<?xml version="1.0" encoding="utf-8"?>
<!-- Generator: Adobe Illustrator 27.0.1, SVG Export Plug-In . SVG Version: 6.00 Build 0)  -->
<svg version="1.1" id="Layer_1" xmlns="http://www.w3.org/2000/svg" xmlns:xlink="http://www.w3.org/1999/xlink" x="0px" y="0px"
	 viewBox="0 0 50 50" style="enable-background:new 0 0 50 50;" xml:space="preserve">
<path d="M36.68,32.64c-0.45,1.05-0.99,2.02-1.61,2.9c-0.85,1.21-1.55,2.05-2.08,2.51c-0.83,0.77-1.72,1.16-2.68,1.17
	c-0.69,0-1.5-0.19-2.48-0.59c-0.96-0.39-1.85-0.59-2.66-0.59c-0.85,0-1.76,0.19-2.73,0.59c-0.97,0.39-1.76,0.59-2.37,0.63
	c-0.91,0.03-1.82-0.36-2.73-1.21c-0.58-0.5-1.3-1.38-2.18-2.6c-0.94-1.32-1.69-2.83-2.3-4.57c-0.64-1.88-0.97-3.68-0.97-5.45
	c0-2,0.44-3.74,1.3-5.2c0.69-1.17,1.6-2.08,2.74-2.77c1.14-0.67,2.37-1.02,3.7-1.05c0.72,0,1.68,0.22,2.87,0.66
	c1.18,0.44,1.94,0.67,2.27,0.67c0.25,0,1.1-0.27,2.52-0.78c1.35-0.49,2.49-0.69,3.42-0.61c2.52,0.2,4.42,1.21,5.69,2.99
	c-2.26,1.36-3.39,3.29-3.35,5.75c0.02,1.91,0.72,3.51,2.08,4.78c0.63,0.59,1.32,1.03,2.08,1.36C37.04,31.73,36.87,32.2,36.68,32.64z
	 M30.89,9.86c0,1.5-0.55,2.9-1.65,4.2c-1.32,1.53-2.91,2.43-4.65,2.29c-0.02-0.17-0.03-0.38-0.03-0.56c0-1.44,0.63-2.97,1.74-4.24
	c0.56-0.64,1.27-1.17,2.12-1.6c0.86-0.42,1.66-0.64,2.43-0.69C30.89,9.45,30.89,9.65,30.89,9.86L30.89,9.86z"/>
</svg>
