<?xml version="1.0" encoding="utf-8"?>
<!-- Generator: Adobe Illustrator 27.0.1, SVG Export Plug-In . SVG Version: 6.00 Build 0)  -->
<svg version="1.1" id="Layer_1" xmlns="http://www.w3.org/2000/svg" xmlns:xlink="http://www.w3.org/1999/xlink" x="0px" y="0px"
	 viewBox="0 0 50 50" style="enable-background:new 0 0 50 50;" xml:space="preserve">
<style type="text/css">
	.st0{fill-rule:evenodd;clip-rule:evenodd;fill:#4285F4;}
	.st1{fill-rule:evenodd;clip-rule:evenodd;fill:#34A853;}
	.st2{fill-rule:evenodd;clip-rule:evenodd;fill:#FBBC05;}
	.st3{fill-rule:evenodd;clip-rule:evenodd;fill:#EA4335;}
</style>
<path class="st0" d="M40.68,25.32c0-1.13-0.11-2.22-0.3-3.27l-15.06,0.04l0.02,6.19l8.61-0.02c-0.37,2-1.49,3.7-3.18,4.84l0.01,4.01
	l5.17-0.01C38.96,34.3,40.69,30.19,40.68,25.32z"/>
<path class="st1" d="M25.36,40.99c4.32-0.01,7.94-1.45,10.57-3.91l-5.18-4c-1.43,0.96-3.26,1.54-5.41,1.54
	c-4.17,0.01-7.7-2.79-8.97-6.57l-5.34,0.02l0.01,4.14C13.69,37.44,19.11,41.01,25.36,40.99z"/>
<path class="st2" d="M16.38,28.06c-0.32-0.96-0.51-1.98-0.51-3.04c0-1.05,0.18-2.08,0.49-3.04l-0.01-4.14l-5.34,0.02
	c-1.08,2.16-1.69,4.61-1.68,7.19c0.01,2.58,0.63,5.02,1.72,7.18L16.38,28.06z"/>
<path class="st3" d="M25.29,15.37c2.35-0.01,4.46,0.79,6.12,2.37l4.57-4.6c-2.78-2.57-6.4-4.15-10.71-4.14
	c-6.25,0.02-11.65,3.62-14.27,8.85l5.36,4.13C17.61,18.2,21.13,15.38,25.29,15.37z"/>
</svg>
