<?xml version="1.0" encoding="utf-8"?>
<!-- Generator: Adobe Illustrator 27.0.1, SVG Export Plug-In . SVG Version: 6.00 Build 0)  -->
<svg version="1.1" id="Layer_1" xmlns="http://www.w3.org/2000/svg" xmlns:xlink="http://www.w3.org/1999/xlink" x="0px" y="0px"
	 viewBox="0 0 50 50" style="enable-background:new 0 0 50 50;" xml:space="preserve">
<style type="text/css">
	.st0{clip-path:url(#SVGID_00000095311355155459970320000004375113897253679028_);}
	.st1{fill:#817FB0;}
</style>
<g>
	<defs>
		<rect id="SVGID_1_" x="6.66" y="4.99" width="38" height="38"/>
	</defs>
	<clipPath id="SVGID_00000014611613153623569560000018101227383301601189_">
		<use xlink:href="#SVGID_1_"  style="overflow:visible;"/>
	</clipPath>
	<g style="clip-path:url(#SVGID_00000014611613153623569560000018101227383301601189_);">
		<path class="st1" d="M37.11,22.14l0.84-0.84l-2.52-2.52l-4.61-4.61l-2.52-2.52l-0.84,0.84l-1.68,1.68L11.01,28.96
			c-0.77,0.77-1.34,1.73-1.65,2.78l-2.63,8.94c-0.19,0.62-0.01,1.3,0.45,1.76c0.47,0.46,1.14,0.63,1.76,0.45l8.93-2.63
			c1.05-0.31,2-0.88,2.78-1.65l14.78-14.78L37.11,22.14z M18.53,34.63l-0.68,1.68c-0.3,0.23-0.63,0.4-0.99,0.51l-5.8,1.71l1.71-5.8
			c0.1-0.36,0.28-0.7,0.51-0.99l1.68-0.68v2.37c0,0.65,0.53,1.19,1.19,1.19L18.53,34.63L18.53,34.63z M33.57,6.38l-1.07,1.08
			l-1.68,1.68l-0.85,0.84l2.52,2.52l4.61,4.61l2.52,2.52l0.84-0.84l1.68-1.68l1.08-1.08c1.86-1.86,1.86-4.86,0-6.72L40.3,6.38
			C38.44,4.53,35.44,4.53,33.57,6.38L33.57,6.38z M30.06,18.85L19.37,29.54c-0.46,0.46-1.22,0.46-1.68,0
			c-0.46-0.46-0.46-1.22,0-1.68l10.69-10.69c0.46-0.46,1.22-0.46,1.68,0C30.52,17.63,30.52,18.39,30.06,18.85L30.06,18.85z"/>
	</g>
</g>
</svg>
