<?xml version="1.0" encoding="utf-8"?>
<!-- Generator: Adobe Illustrator 27.0.1, SVG Export Plug-In . SVG Version: 6.00 Build 0)  -->
<svg version="1.1" id="Layer_1" xmlns="http://www.w3.org/2000/svg" xmlns:xlink="http://www.w3.org/1999/xlink" x="0px" y="0px"
	 viewBox="0 0 50 50" style="enable-background:new 0 0 50 50;" xml:space="preserve">
<style type="text/css">
	.st0{clip-path:url(#SVGID_00000101821773837093697070000017379462333489137554_);}
	.st1{fill:#817FB0;}
</style>
<g>
	<defs>
		<rect id="SVGID_1_" x="7.9" y="6.34" width="34.2" height="38"/>
	</defs>
	<clipPath id="SVGID_00000008842938095643403040000018218386764240104071_">
		<use xlink:href="#SVGID_1_"  style="overflow:visible;"/>
	</clipPath>
	<g style="clip-path:url(#SVGID_00000008842938095643403040000018218386764240104071_);">
		<path class="st1" d="M18.22,7.65c0.41-0.81,1.26-1.31,2.18-1.31h9.19c0.92,0,1.77,0.5,2.18,1.31l0.55,1.06h7.33
			c1.35,0,2.44,1.06,2.44,2.37s-1.09,2.37-2.44,2.37H10.34c-1.35,0-2.44-1.06-2.44-2.37s1.09-2.37,2.44-2.37h7.33L18.22,7.65z
			 M10.34,15.84h29.31v23.75c0,2.62-2.19,4.75-4.89,4.75H15.23c-2.69,0-4.89-2.13-4.89-4.75V15.84z M17.67,20.59
			c-0.67,0-1.22,0.53-1.22,1.19V38.4c0,0.65,0.55,1.19,1.22,1.19c0.67,0,1.22-0.53,1.22-1.19V21.78
			C18.89,21.12,18.34,20.59,17.67,20.59z M25,20.59c-0.67,0-1.22,0.53-1.22,1.19V38.4c0,0.65,0.55,1.19,1.22,1.19
			s1.22-0.53,1.22-1.19V21.78C26.22,21.12,25.67,20.59,25,20.59z M32.33,20.59c-0.67,0-1.22,0.53-1.22,1.19V38.4
			c0,0.65,0.55,1.19,1.22,1.19c0.67,0,1.22-0.53,1.22-1.19V21.78C33.55,21.12,33,20.59,32.33,20.59z"/>
	</g>
</g>
</svg>
