<?xml version="1.0" encoding="utf-8"?>
<!-- Generator: Adobe Illustrator 27.0.1, SVG Export Plug-In . SVG Version: 6.00 Build 0)  -->
<svg version="1.1" id="Layer_1" xmlns="http://www.w3.org/2000/svg" xmlns:xlink="http://www.w3.org/1999/xlink" x="0px" y="0px"
	 viewBox="0 0 200 200" style="enable-background:new 0 0 200 200;" xml:space="preserve">
<style type="text/css">
	.st0{fill:#5E5BA9;}
</style>
<path class="st0" d="M49.3,152.63c0,1.17-0.25,2.08-0.75,2.73c-0.47,0.65-1.1,0.97-1.89,0.97c-0.41,0-0.76-0.07-1.06-0.22
	c-0.26-0.15-0.54-0.38-0.84-0.7c0.41-0.29,0.72-0.72,0.92-1.28c0.23-0.56,0.35-1.14,0.35-1.76c0-0.5-0.09-1-0.26-1.5
	c-0.15-0.5-0.4-0.94-0.75-1.32c-0.35-0.41-0.79-0.73-1.32-0.97c-0.53-0.26-1.16-0.4-1.89-0.4c-0.76,0-1.45,0.15-2.07,0.44
	c-0.59,0.26-1.09,0.65-1.5,1.14c-0.38,0.47-0.68,1.03-0.88,1.67c-0.21,0.65-0.31,1.34-0.31,2.07c0,1.41,0.34,2.54,1.01,3.39
	c0.7,0.85,1.57,1.57,2.6,2.16s2.14,1.14,3.35,1.67c1.23,0.53,2.36,1.19,3.39,1.98c1.03,0.76,1.88,1.75,2.55,2.95
	c0.7,1.17,1.06,2.74,1.06,4.71c0,1.76-0.29,3.27-0.88,4.53c-0.59,1.23-1.36,2.23-2.33,2.99c-0.94,0.76-2.03,1.32-3.26,1.67
	c-1.23,0.35-2.49,0.53-3.79,0.53c-1.14,0-2.27-0.13-3.39-0.4c-1.12-0.26-2.11-0.68-2.99-1.23c-0.88-0.59-1.6-1.32-2.16-2.2
	c-0.53-0.91-0.79-2-0.79-3.26c0-0.73,0.1-1.48,0.31-2.25c0.21-0.76,0.5-1.45,0.88-2.07c0.41-0.62,0.91-1.12,1.5-1.5
	c0.62-0.41,1.32-0.62,2.11-0.62c0.65,0,1.19,0.18,1.63,0.53c0.47,0.35,0.88,1.01,1.23,1.98c-0.7,0.03-1.29,0.18-1.76,0.44
	c-0.44,0.26-0.79,0.59-1.06,0.97s-0.45,0.79-0.57,1.23c-0.09,0.44-0.13,0.85-0.13,1.23c0,0.79,0.18,1.48,0.53,2.07
	c0.35,0.59,0.79,1.09,1.32,1.5c0.56,0.38,1.14,0.68,1.76,0.88c0.65,0.18,1.26,0.26,1.85,0.26c1.35,0,2.47-0.51,3.35-1.54
	c0.88-1.03,1.32-2.51,1.32-4.45c0-1.64-0.32-2.94-0.97-3.87c-0.62-0.97-1.41-1.78-2.38-2.42c-0.97-0.65-2.01-1.2-3.13-1.67
	c-1.09-0.47-2.11-1.03-3.08-1.67c-0.97-0.65-1.78-1.47-2.42-2.47c-0.62-1.03-0.92-2.39-0.92-4.09c0-1.47,0.25-2.76,0.75-3.87
	c0.5-1.12,1.14-2.04,1.94-2.77c0.82-0.76,1.76-1.32,2.82-1.67c1.09-0.38,2.2-0.57,3.35-0.57c0.5,0,1.17,0.06,2.03,0.18
	c0.88,0.12,1.73,0.38,2.55,0.79c0.85,0.41,1.57,1.03,2.16,1.85C48.99,150.21,49.3,151.28,49.3,152.63z M58.11,157.56v14.97
	c0,0.29,0.01,0.66,0.04,1.1c0.03,0.44,0.1,0.88,0.22,1.32c0.15,0.41,0.35,0.78,0.62,1.1c0.26,0.29,0.63,0.44,1.1,0.44
	c1.44,0,2.49-1.6,3.17-4.8h1.63c-0.32,1.85-0.73,3.32-1.23,4.4c-0.5,1.06-1.03,1.86-1.58,2.42s-1.13,0.91-1.72,1.06
	c-0.59,0.18-1.12,0.26-1.58,0.26c-1.03,0-1.86-0.19-2.51-0.57c-0.65-0.41-1.16-0.92-1.54-1.54s-0.65-1.31-0.79-2.07
	c-0.15-0.76-0.22-1.5-0.22-2.2v-15.89H58.11z M52.91,151.22c0-0.79,0.28-1.48,0.84-2.07c0.56-0.59,1.25-0.88,2.07-0.88
	c0.79,0,1.48,0.29,2.07,0.88c0.59,0.59,0.88,1.28,0.88,2.07c0,0.82-0.29,1.51-0.88,2.07c-0.59,0.56-1.28,0.84-2.07,0.84
	c-0.82,0-1.51-0.28-2.07-0.84C53.19,152.74,52.91,152.05,52.91,151.22z M67.61,157.56v3.04c0.76-1.41,1.57-2.3,2.42-2.69
	s1.66-0.57,2.42-0.57s1.42,0.1,1.98,0.31c0.59,0.21,1.09,0.48,1.5,0.84c0.41,0.35,0.75,0.76,1.01,1.23c0.29,0.47,0.53,0.98,0.7,1.54
	c0.41-0.88,0.84-1.57,1.28-2.07c0.44-0.53,0.88-0.92,1.32-1.19c0.44-0.29,0.87-0.47,1.28-0.53c0.44-0.09,0.84-0.13,1.19-0.13
	c1.32,0,2.38,0.25,3.17,0.75c0.82,0.5,1.44,1.14,1.85,1.94c0.41,0.76,0.68,1.61,0.79,2.55c0.15,0.91,0.22,1.79,0.22,2.64
	c0,0.53-0.01,1.12-0.04,1.76c-0.03,0.62-0.06,1.26-0.09,1.94c-0.03,0.65-0.06,1.31-0.09,1.98c-0.03,0.65-0.04,1.25-0.04,1.81
	c0,0.23,0.01,0.57,0.04,1.01c0.03,0.41,0.1,0.82,0.22,1.23c0.12,0.41,0.31,0.78,0.57,1.1c0.26,0.29,0.65,0.44,1.14,0.44
	c0.68,0,1.28-0.38,1.81-1.14c0.56-0.76,1.01-1.98,1.36-3.65h1.63c-0.32,1.85-0.73,3.32-1.23,4.4c-0.5,1.06-1.03,1.86-1.58,2.42
	c-0.56,0.56-1.12,0.91-1.67,1.06c-0.56,0.18-1.07,0.26-1.54,0.26c-0.94,0-1.73-0.18-2.38-0.53c-0.65-0.38-1.17-0.88-1.58-1.5
	s-0.72-1.34-0.92-2.16c-0.18-0.82-0.26-1.67-0.26-2.55c0-0.26,0-0.75,0-1.45c0.03-0.73,0.04-1.51,0.04-2.33
	c0.03-0.82,0.04-1.6,0.04-2.33c0.03-0.73,0.04-1.25,0.04-1.54c0-0.94-0.07-1.72-0.22-2.33c-0.15-0.62-0.35-1.1-0.62-1.45
	s-0.57-0.6-0.92-0.75c-0.32-0.15-0.68-0.22-1.06-0.22c-0.91,0-1.66,0.37-2.25,1.1c-0.56,0.73-0.95,1.97-1.19,3.7v14.09h-4.4v-14.7
	c0-0.53-0.03-1.04-0.09-1.54c-0.03-0.5-0.13-0.94-0.31-1.32c-0.18-0.41-0.43-0.73-0.75-0.97c-0.32-0.23-0.76-0.35-1.32-0.35
	c-0.94,0-1.66,0.4-2.16,1.19c-0.47,0.76-0.91,1.97-1.32,3.61v14.09h-4.4v-22.01h4.41V157.56z M98.18,155.93v3.39
	c0.56-0.59,1.2-1.06,1.94-1.41c0.76-0.38,1.64-0.57,2.64-0.57c1.03,0,1.98,0.22,2.86,0.66s1.64,1.12,2.29,2.03
	c0.68,0.88,1.2,2.01,1.58,3.39c0.38,1.35,0.57,2.96,0.57,4.84c0,3.67-0.69,6.52-2.07,8.54s-3.21,3.04-5.5,3.04
	c-0.97,0-1.81-0.18-2.51-0.53c-0.68-0.38-1.28-0.91-1.81-1.58v11.75l-4.45,1.1v-34.65L98.18,155.93L98.18,155.93z M101.22,160.21
	c-0.65,0-1.23,0.19-1.76,0.57c-0.5,0.35-0.92,0.87-1.28,1.54v13.21c0.41,0.53,0.87,0.91,1.36,1.14c0.53,0.23,1.04,0.35,1.54,0.35
	c0.73,0,1.38-0.23,1.94-0.7c0.56-0.47,1.03-1.1,1.41-1.89c0.41-0.82,0.72-1.78,0.92-2.86c0.21-1.09,0.31-2.25,0.31-3.48
	c0-1.53-0.15-2.79-0.44-3.79c-0.26-1.03-0.62-1.83-1.06-2.42c-0.44-0.62-0.92-1.04-1.45-1.28
	C102.19,160.34,101.69,160.21,101.22,160.21z M116.8,148.76v23.77c0,0.29,0.01,0.66,0.04,1.1s0.1,0.88,0.22,1.32
	c0.15,0.41,0.35,0.78,0.62,1.1c0.26,0.29,0.63,0.44,1.1,0.44c1.44,0,2.49-1.6,3.17-4.8h1.63c-0.32,1.85-0.73,3.32-1.23,4.4
	c-0.5,1.06-1.03,1.86-1.58,2.42c-0.56,0.56-1.13,0.91-1.72,1.06c-0.59,0.18-1.12,0.26-1.58,0.26c-1.03,0-1.86-0.19-2.51-0.57
	c-0.65-0.41-1.16-0.92-1.54-1.54s-0.65-1.31-0.79-2.07c-0.15-0.76-0.22-1.5-0.22-2.2v-24.08L116.8,148.76z M135.63,163.07
	c0,2.05-0.85,3.77-2.55,5.15c-1.67,1.38-4.01,2.23-7,2.55c0.12,1.17,0.32,2.13,0.62,2.86c0.32,0.73,0.7,1.32,1.14,1.76
	c0.44,0.41,0.94,0.7,1.5,0.88c0.59,0.15,1.19,0.22,1.81,0.22c0.94,0,1.82-0.16,2.64-0.48c0.85-0.32,1.56-0.88,2.11-1.67
	c0.03,0.21,0.04,0.41,0.04,0.62c0.03,0.18,0.04,0.34,0.04,0.48c0,0.68-0.18,1.28-0.53,1.81c-0.32,0.53-0.78,1-1.36,1.41
	c-0.56,0.38-1.22,0.68-1.98,0.88c-0.73,0.21-1.51,0.31-2.33,0.31c-1,0-2-0.18-2.99-0.53c-1-0.38-1.91-0.97-2.73-1.76
	c-0.79-0.82-1.44-1.88-1.94-3.17s-0.75-2.86-0.75-4.71c0-1.23,0.13-2.57,0.4-4.01c0.29-1.44,0.76-2.77,1.41-4.01
	c0.68-1.23,1.54-2.26,2.6-3.08c1.09-0.82,2.42-1.23,4.01-1.23c0.73,0,1.44,0.09,2.11,0.26c0.7,0.15,1.34,0.44,1.89,0.88
	c0.56,0.41,1,0.98,1.32,1.72C135.46,160.94,135.63,161.89,135.63,163.07z M126.03,169.05c2.08-0.32,3.73-1.06,4.93-2.2
	c1.23-1.14,1.85-2.55,1.85-4.23c0-1.12-0.19-1.91-0.57-2.38c-0.38-0.5-0.92-0.75-1.63-0.75c-0.76,0-1.44,0.29-2.03,0.88
	c-0.56,0.59-1.03,1.35-1.41,2.29c-0.38,0.91-0.68,1.94-0.88,3.08C126.12,166.87,126.03,167.97,126.03,169.05z M148.38,169.41h-8.81
	v-3.08h8.81V169.41z M161.08,157.34c1.03,0,1.92,0.15,2.69,0.44c0.76,0.29,1.41,0.7,1.94,1.23c0.56,0.5,1,1.12,1.32,1.85
	c0.35,0.7,0.62,1.47,0.79,2.29c0.82,0,1.41-0.25,1.76-0.75c0.35-0.53,0.6-1.01,0.75-1.45h1.28c-0.23,0.97-0.63,1.97-1.19,2.99
	c-0.53,1-1.28,1.75-2.25,2.25c0.06,0.35,0.09,0.7,0.09,1.06c0,0.32,0,0.66,0,1.01c0,3.61-0.66,6.44-1.98,8.5
	c-1.32,2.05-3.17,3.08-5.55,3.08c-0.97,0-1.95-0.18-2.95-0.53c-0.97-0.35-1.85-0.94-2.64-1.76c-0.79-0.82-1.44-1.88-1.94-3.17
	c-0.47-1.29-0.7-2.89-0.7-4.8c0-1.29,0.13-2.66,0.4-4.09c0.29-1.44,0.76-2.76,1.41-3.96c0.68-1.2,1.56-2.2,2.64-2.99
	C158.06,157.74,159.44,157.34,161.08,157.34z M161.52,176.5c1.56,0,2.7-0.76,3.43-2.29c0.73-1.56,1.1-3.74,1.1-6.56
	c0-0.15-0.01-0.29-0.04-0.44c0-0.18,0-0.34,0-0.48c-0.82,0-1.42-0.22-1.81-0.66c-0.38-0.47-0.57-1.13-0.57-1.98
	c0-0.59,0.15-1.04,0.44-1.36c0.29-0.35,0.69-0.56,1.19-0.62c-0.35-0.85-0.79-1.45-1.32-1.81c-0.53-0.35-1.1-0.53-1.72-0.53
	c-0.91,0-1.69,0.31-2.33,0.92c-0.62,0.59-1.13,1.35-1.54,2.29c-0.38,0.94-0.66,1.98-0.84,3.13c-0.18,1.12-0.26,2.22-0.26,3.3
	c0,1.44,0.13,2.61,0.4,3.52c0.26,0.91,0.6,1.63,1.01,2.16c0.41,0.53,0.87,0.9,1.36,1.1S161.02,176.5,161.52,176.5z"/>
<path class="st0" d="M44.34,63.79c1.18,0,2.14-0.96,2.14-2.14s-0.96-2.14-2.14-2.14c-1.18,0-2.14,0.96-2.14,2.14
	S43.15,63.79,44.34,63.79z"/>
<path class="st0" d="M44.34,68.07c1.18,0,2.14-0.96,2.14-2.14s-0.96-2.14-2.14-2.14c-1.18,0-2.14,0.96-2.14,2.14
	S43.15,68.07,44.34,68.07z"/>
<path class="st0" d="M44.34,72.35c1.18,0,2.14-0.96,2.14-2.14c0-1.18-0.96-2.14-2.14-2.14c-1.18,0-2.14,0.96-2.14,2.14
	C42.2,71.39,43.15,72.35,44.34,72.35z"/>
<path class="st0" d="M44.34,76.63c1.18,0,2.14-0.96,2.14-2.14c0-1.18-0.96-2.14-2.14-2.14c-1.18,0-2.14,0.96-2.14,2.14
	C42.2,75.67,43.15,76.63,44.34,76.63z"/>
<path class="st0" d="M44.34,80.91c1.18,0,2.14-0.96,2.14-2.14c0-1.18-0.96-2.14-2.14-2.14c-1.18,0-2.14,0.96-2.14,2.14
	C42.2,79.95,43.15,80.91,44.34,80.91z"/>
<path class="st0" d="M44.34,89.47c1.18,0,2.14-0.96,2.14-2.14c0-1.18-0.96-2.14-2.14-2.14c-1.18,0-2.14,0.96-2.14,2.14
	C42.2,88.51,43.15,89.47,44.34,89.47z"/>
<path class="st0" d="M44.34,102.32c1.18,0,2.14-0.96,2.14-2.14c0-1.18-0.96-2.14-2.14-2.14c-1.18,0-2.14,0.96-2.14,2.14
	C42.2,101.36,43.15,102.32,44.34,102.32z"/>
<path class="st0" d="M44.34,106.6c1.18,0,2.14-0.96,2.14-2.14s-0.96-2.14-2.14-2.14c-1.18,0-2.14,0.96-2.14,2.14
	S43.15,106.6,44.34,106.6z"/>
<path class="st0" d="M48.62,55.22c1.18,0,2.14-0.96,2.14-2.14c0-1.18-0.96-2.14-2.14-2.14c-1.18,0-2.14,0.96-2.14,2.14
	C46.48,54.26,47.44,55.22,48.62,55.22z"/>
<path class="st0" d="M48.62,59.5c1.18,0,2.14-0.96,2.14-2.14c0-1.18-0.96-2.14-2.14-2.14c-1.18,0-2.14,0.96-2.14,2.14
	C46.48,58.55,47.44,59.5,48.62,59.5z"/>
<path class="st0" d="M48.62,63.79c1.18,0,2.14-0.96,2.14-2.14s-0.96-2.14-2.14-2.14c-1.18,0-2.14,0.96-2.14,2.14
	S47.44,63.79,48.62,63.79z"/>
<path class="st0" d="M48.62,72.35c1.18,0,2.14-0.96,2.14-2.14c0-1.18-0.96-2.14-2.14-2.14c-1.18,0-2.14,0.96-2.14,2.14
	C46.48,71.39,47.44,72.35,48.62,72.35z"/>
<path class="st0" d="M48.62,76.63c1.18,0,2.14-0.96,2.14-2.14c0-1.18-0.96-2.14-2.14-2.14c-1.18,0-2.14,0.96-2.14,2.14
	C46.48,75.67,47.44,76.63,48.62,76.63z"/>
<path class="st0" d="M48.62,80.91c1.18,0,2.14-0.96,2.14-2.14c0-1.18-0.96-2.14-2.14-2.14c-1.18,0-2.14,0.96-2.14,2.14
	C46.48,79.95,47.44,80.91,48.62,80.91z"/>
<path class="st0" d="M48.62,85.19c1.18,0,2.14-0.96,2.14-2.14c0-1.18-0.96-2.14-2.14-2.14c-1.18,0-2.14,0.96-2.14,2.14
	C46.48,84.23,47.44,85.19,48.62,85.19z"/>
<path class="st0" d="M48.62,89.47c1.18,0,2.14-0.96,2.14-2.14c0-1.18-0.96-2.14-2.14-2.14c-1.18,0-2.14,0.96-2.14,2.14
	C46.48,88.51,47.44,89.47,48.62,89.47z"/>
<path class="st0" d="M48.62,102.32c1.18,0,2.14-0.96,2.14-2.14c0-1.18-0.96-2.14-2.14-2.14c-1.18,0-2.14,0.96-2.14,2.14
	C46.48,101.36,47.44,102.32,48.62,102.32z"/>
<path class="st0" d="M52.9,63.79c1.18,0,2.14-0.96,2.14-2.14s-0.96-2.14-2.14-2.14c-1.18,0-2.14,0.96-2.14,2.14
	S51.72,63.79,52.9,63.79z"/>
<path class="st0" d="M52.9,72.35c1.18,0,2.14-0.96,2.14-2.14c0-1.18-0.96-2.14-2.14-2.14c-1.18,0-2.14,0.96-2.14,2.14
	C50.76,71.39,51.72,72.35,52.9,72.35z"/>
<path class="st0" d="M52.9,76.63c1.18,0,2.14-0.96,2.14-2.14c0-1.18-0.96-2.14-2.14-2.14c-1.18,0-2.14,0.96-2.14,2.14
	C50.76,75.67,51.72,76.63,52.9,76.63z"/>
<path class="st0" d="M52.9,80.91c1.18,0,2.14-0.96,2.14-2.14c0-1.18-0.96-2.14-2.14-2.14c-1.18,0-2.14,0.96-2.14,2.14
	C50.76,79.95,51.72,80.91,52.9,80.91z"/>
<path class="st0" d="M52.9,85.19c1.18,0,2.14-0.96,2.14-2.14c0-1.18-0.96-2.14-2.14-2.14c-1.18,0-2.14,0.96-2.14,2.14
	C50.76,84.23,51.72,85.19,52.9,85.19z"/>
<path class="st0" d="M52.9,89.47c1.18,0,2.14-0.96,2.14-2.14c0-1.18-0.96-2.14-2.14-2.14c-1.18,0-2.14,0.96-2.14,2.14
	C50.76,88.51,51.72,89.47,52.9,89.47z"/>
<path class="st0" d="M52.9,102.32c1.18,0,2.14-0.96,2.14-2.14c0-1.18-0.96-2.14-2.14-2.14c-1.18,0-2.14,0.96-2.14,2.14
	C50.76,101.36,51.72,102.32,52.9,102.32z"/>
<path class="st0" d="M57.18,55.22c1.18,0,2.14-0.96,2.14-2.14c0-1.18-0.96-2.14-2.14-2.14s-2.14,0.96-2.14,2.14
	C55.04,54.26,56,55.22,57.18,55.22z"/>
<path class="st0" d="M57.18,59.5c1.18,0,2.14-0.96,2.14-2.14c0-1.18-0.96-2.14-2.14-2.14s-2.14,0.96-2.14,2.14
	C55.04,58.55,56,59.5,57.18,59.5z"/>
<path class="st0" d="M57.18,63.79c1.18,0,2.14-0.96,2.14-2.14s-0.96-2.14-2.14-2.14s-2.14,0.96-2.14,2.14S56,63.79,57.18,63.79z"/>
<path class="st0" d="M57.18,93.75c1.18,0,2.14-0.96,2.14-2.14c0-1.18-0.96-2.14-2.14-2.14s-2.14,0.96-2.14,2.14
	C55.04,92.8,56,93.75,57.18,93.75z"/>
<path class="st0" d="M57.18,106.6c1.18,0,2.14-0.96,2.14-2.14s-0.96-2.14-2.14-2.14s-2.14,0.96-2.14,2.14S56,106.6,57.18,106.6z"/>
<path class="st0" d="M61.46,55.22c1.18,0,2.14-0.96,2.14-2.14c0-1.18-0.96-2.14-2.14-2.14c-1.18,0-2.14,0.96-2.14,2.14
	C59.32,54.26,60.28,55.22,61.46,55.22z"/>
<path class="st0" d="M61.46,59.5c1.18,0,2.14-0.96,2.14-2.14c0-1.18-0.96-2.14-2.14-2.14c-1.18,0-2.14,0.96-2.14,2.14
	C59.32,58.55,60.28,59.5,61.46,59.5z"/>
<path class="st0" d="M61.46,63.79c1.18,0,2.14-0.96,2.14-2.14s-0.96-2.14-2.14-2.14c-1.18,0-2.14,0.96-2.14,2.14
	S60.28,63.79,61.46,63.79z"/>
<path class="st0" d="M61.46,68.07c1.18,0,2.14-0.96,2.14-2.14s-0.96-2.14-2.14-2.14c-1.18,0-2.14,0.96-2.14,2.14
	S60.28,68.07,61.46,68.07z"/>
<path class="st0" d="M61.46,72.35c1.18,0,2.14-0.96,2.14-2.14c0-1.18-0.96-2.14-2.14-2.14c-1.18,0-2.14,0.96-2.14,2.14
	C59.32,71.39,60.28,72.35,61.46,72.35z"/>
<path class="st0" d="M61.46,76.63c1.18,0,2.14-0.96,2.14-2.14c0-1.18-0.96-2.14-2.14-2.14c-1.18,0-2.14,0.96-2.14,2.14
	C59.32,75.67,60.28,76.63,61.46,76.63z"/>
<path class="st0" d="M61.46,80.91c1.18,0,2.14-0.96,2.14-2.14c0-1.18-0.96-2.14-2.14-2.14c-1.18,0-2.14,0.96-2.14,2.14
	C59.32,79.95,60.28,80.91,61.46,80.91z"/>
<path class="st0" d="M61.46,85.19c1.18,0,2.14-0.96,2.14-2.14c0-1.18-0.96-2.14-2.14-2.14c-1.18,0-2.14,0.96-2.14,2.14
	C59.32,84.23,60.28,85.19,61.46,85.19z"/>
<path class="st0" d="M61.46,89.47c1.18,0,2.14-0.96,2.14-2.14c0-1.18-0.96-2.14-2.14-2.14c-1.18,0-2.14,0.96-2.14,2.14
	C59.32,88.51,60.28,89.47,61.46,89.47z"/>
<path class="st0" d="M61.46,102.32c1.18,0,2.14-0.96,2.14-2.14c0-1.18-0.96-2.14-2.14-2.14c-1.18,0-2.14,0.96-2.14,2.14
	C59.32,101.36,60.28,102.32,61.46,102.32z"/>
<path class="st0" d="M61.46,106.6c1.18,0,2.14-0.96,2.14-2.14s-0.96-2.14-2.14-2.14c-1.18,0-2.14,0.96-2.14,2.14
	S60.28,106.6,61.46,106.6z"/>
<path class="st0" d="M65.74,89.47c1.18,0,2.14-0.96,2.14-2.14c0-1.18-0.96-2.14-2.14-2.14c-1.18,0-2.14,0.96-2.14,2.14
	C63.6,88.51,64.56,89.47,65.74,89.47z"/>
<path class="st0" d="M65.74,106.6c1.18,0,2.14-0.96,2.14-2.14s-0.96-2.14-2.14-2.14c-1.18,0-2.14,0.96-2.14,2.14
	S64.56,106.6,65.74,106.6z"/>
<path class="st0" d="M70.02,55.22c1.18,0,2.14-0.96,2.14-2.14c0-1.18-0.96-2.14-2.14-2.14s-2.14,0.96-2.14,2.14
	C67.88,54.26,68.84,55.22,70.02,55.22z"/>
<path class="st0" d="M70.02,63.79c1.18,0,2.14-0.96,2.14-2.14s-0.96-2.14-2.14-2.14s-2.14,0.96-2.14,2.14S68.84,63.79,70.02,63.79z"
	/>
<path class="st0" d="M70.02,72.35c1.18,0,2.14-0.96,2.14-2.14c0-1.18-0.96-2.14-2.14-2.14s-2.14,0.96-2.14,2.14
	C67.88,71.39,68.84,72.35,70.02,72.35z"/>
<path class="st0" d="M70.02,80.91c1.18,0,2.14-0.96,2.14-2.14c0-1.18-0.96-2.14-2.14-2.14s-2.14,0.96-2.14,2.14
	C67.88,79.95,68.84,80.91,70.02,80.91z"/>
<path class="st0" d="M70.02,89.47c1.18,0,2.14-0.96,2.14-2.14c0-1.18-0.96-2.14-2.14-2.14s-2.14,0.96-2.14,2.14
	C67.88,88.51,68.84,89.47,70.02,89.47z"/>
<path class="st0" d="M70.02,98.03c1.18,0,2.14-0.96,2.14-2.14c0-1.18-0.96-2.14-2.14-2.14s-2.14,0.96-2.14,2.14
	C67.88,97.08,68.84,98.03,70.02,98.03z"/>
<path class="st0" d="M70.02,106.6c1.18,0,2.14-0.96,2.14-2.14s-0.96-2.14-2.14-2.14s-2.14,0.96-2.14,2.14S68.84,106.6,70.02,106.6z"
	/>
<path class="st0" d="M74.3,55.22c1.18,0,2.14-0.96,2.14-2.14c0-1.18-0.96-2.14-2.14-2.14c-1.18,0-2.14,0.96-2.14,2.14
	C72.16,54.26,73.12,55.22,74.3,55.22z"/>
<path class="st0" d="M74.3,59.5c1.18,0,2.14-0.96,2.14-2.14c0-1.18-0.96-2.14-2.14-2.14c-1.18,0-2.14,0.96-2.14,2.14
	C72.16,58.55,73.12,59.5,74.3,59.5z"/>
<path class="st0" d="M74.3,72.35c1.18,0,2.14-0.96,2.14-2.14c0-1.18-0.96-2.14-2.14-2.14c-1.18,0-2.14,0.96-2.14,2.14
	C72.16,71.39,73.12,72.35,74.3,72.35z"/>
<path class="st0" d="M74.3,80.91c1.18,0,2.14-0.96,2.14-2.14c0-1.18-0.96-2.14-2.14-2.14c-1.18,0-2.14,0.96-2.14,2.14
	C72.16,79.95,73.12,80.91,74.3,80.91z"/>
<path class="st0" d="M74.3,85.19c1.18,0,2.14-0.96,2.14-2.14c0-1.18-0.96-2.14-2.14-2.14c-1.18,0-2.14,0.96-2.14,2.14
	C72.16,84.23,73.12,85.19,74.3,85.19z"/>
<path class="st0" d="M74.3,89.47c1.18,0,2.14-0.96,2.14-2.14c0-1.18-0.96-2.14-2.14-2.14c-1.18,0-2.14,0.96-2.14,2.14
	C72.16,88.51,73.12,89.47,74.3,89.47z"/>
<path class="st0" d="M74.3,93.75c1.18,0,2.14-0.96,2.14-2.14c0-1.18-0.96-2.14-2.14-2.14c-1.18,0-2.14,0.96-2.14,2.14
	C72.16,92.8,73.12,93.75,74.3,93.75z"/>
<path class="st0" d="M74.3,98.03c1.18,0,2.14-0.96,2.14-2.14c0-1.18-0.96-2.14-2.14-2.14c-1.18,0-2.14,0.96-2.14,2.14
	C72.16,97.08,73.12,98.03,74.3,98.03z"/>
<path class="st0" d="M74.3,102.32c1.18,0,2.14-0.96,2.14-2.14c0-1.18-0.96-2.14-2.14-2.14c-1.18,0-2.14,0.96-2.14,2.14
	C72.16,101.36,73.12,102.32,74.3,102.32z"/>
<path class="st0" d="M78.59,25.25c1.18,0,2.14-0.96,2.14-2.14c0-1.18-0.96-2.14-2.14-2.14c-1.18,0-2.14,0.96-2.14,2.14
	C76.45,24.3,77.4,25.25,78.59,25.25z"/>
<path class="st0" d="M78.59,33.82c1.18,0,2.14-0.96,2.14-2.14c0-1.18-0.96-2.14-2.14-2.14c-1.18,0-2.14,0.96-2.14,2.14
	C76.45,32.86,77.4,33.82,78.59,33.82z"/>
<path class="st0" d="M78.59,38.1c1.18,0,2.14-0.96,2.14-2.14c0-1.18-0.96-2.14-2.14-2.14c-1.18,0-2.14,0.96-2.14,2.14
	C76.45,37.14,77.4,38.1,78.59,38.1z"/>
<path class="st0" d="M78.59,42.38c1.18,0,2.14-0.96,2.14-2.14c0-1.18-0.96-2.14-2.14-2.14c-1.18,0-2.14,0.96-2.14,2.14
	C76.45,41.42,77.4,42.38,78.59,42.38z"/>
<path class="st0" d="M78.59,46.66c1.18,0,2.14-0.96,2.14-2.14c0-1.18-0.96-2.14-2.14-2.14c-1.18,0-2.14,0.96-2.14,2.14
	C76.45,45.7,77.4,46.66,78.59,46.66z"/>
<path class="st0" d="M78.59,55.22c1.18,0,2.14-0.96,2.14-2.14c0-1.18-0.96-2.14-2.14-2.14c-1.18,0-2.14,0.96-2.14,2.14
	C76.45,54.26,77.4,55.22,78.59,55.22z"/>
<path class="st0" d="M78.59,80.91c1.18,0,2.14-0.96,2.14-2.14c0-1.18-0.96-2.14-2.14-2.14c-1.18,0-2.14,0.96-2.14,2.14
	C76.45,79.95,77.4,80.91,78.59,80.91z"/>
<path class="st0" d="M78.59,85.19c1.18,0,2.14-0.96,2.14-2.14c0-1.18-0.96-2.14-2.14-2.14c-1.18,0-2.14,0.96-2.14,2.14
	C76.45,84.23,77.4,85.19,78.59,85.19z"/>
<path class="st0" d="M78.59,89.47c1.18,0,2.14-0.96,2.14-2.14c0-1.18-0.96-2.14-2.14-2.14c-1.18,0-2.14,0.96-2.14,2.14
	C76.45,88.51,77.4,89.47,78.59,89.47z"/>
<path class="st0" d="M78.59,102.32c1.18,0,2.14-0.96,2.14-2.14c0-1.18-0.96-2.14-2.14-2.14c-1.18,0-2.14,0.96-2.14,2.14
	C76.45,101.36,77.4,102.32,78.59,102.32z"/>
<path class="st0" d="M78.59,110.88c1.18,0,2.14-0.96,2.14-2.14c0-1.18-0.96-2.14-2.14-2.14c-1.18,0-2.14,0.96-2.14,2.14
	C76.45,109.92,77.4,110.88,78.59,110.88z"/>
<path class="st0" d="M78.59,115.16c1.18,0,2.14-0.96,2.14-2.14c0-1.18-0.96-2.14-2.14-2.14c-1.18,0-2.14,0.96-2.14,2.14
	C76.45,114.2,77.4,115.16,78.59,115.16z"/>
<path class="st0" d="M78.59,123.72c1.18,0,2.14-0.96,2.14-2.14c0-1.18-0.96-2.14-2.14-2.14c-1.18,0-2.14,0.96-2.14,2.14
	C76.45,122.76,77.4,123.72,78.59,123.72z"/>
<path class="st0" d="M78.59,128c1.18,0,2.14-0.96,2.14-2.14c0-1.18-0.96-2.14-2.14-2.14c-1.18,0-2.14,0.96-2.14,2.14
	C76.45,127.04,77.4,128,78.59,128z"/>
<path class="st0" d="M78.59,136.57c1.18,0,2.14-0.96,2.14-2.14c0-1.18-0.96-2.14-2.14-2.14c-1.18,0-2.14,0.96-2.14,2.14
	C76.45,135.61,77.4,136.57,78.59,136.57z"/>
<path class="st0" d="M82.87,25.25c1.18,0,2.14-0.96,2.14-2.14c0-1.18-0.96-2.14-2.14-2.14c-1.18,0-2.14,0.96-2.14,2.14
	C80.73,24.3,81.69,25.25,82.87,25.25z"/>
<path class="st0" d="M82.87,50.94c1.18,0,2.14-0.96,2.14-2.14c0-1.18-0.96-2.14-2.14-2.14c-1.18,0-2.14,0.96-2.14,2.14
	C80.73,49.98,81.69,50.94,82.87,50.94z"/>
<path class="st0" d="M82.87,55.22c1.18,0,2.14-0.96,2.14-2.14c0-1.18-0.96-2.14-2.14-2.14c-1.18,0-2.14,0.96-2.14,2.14
	C80.73,54.26,81.69,55.22,82.87,55.22z"/>
<path class="st0" d="M82.87,72.35c1.18,0,2.14-0.96,2.14-2.14c0-1.18-0.96-2.14-2.14-2.14c-1.18,0-2.14,0.96-2.14,2.14
	C80.73,71.39,81.69,72.35,82.87,72.35z"/>
<path class="st0" d="M82.87,80.91c1.18,0,2.14-0.96,2.14-2.14c0-1.18-0.96-2.14-2.14-2.14c-1.18,0-2.14,0.96-2.14,2.14
	C80.73,79.95,81.69,80.91,82.87,80.91z"/>
<path class="st0" d="M82.87,85.19c1.18,0,2.14-0.96,2.14-2.14c0-1.18-0.96-2.14-2.14-2.14c-1.18,0-2.14,0.96-2.14,2.14
	C80.73,84.23,81.69,85.19,82.87,85.19z"/>
<path class="st0" d="M82.87,98.03c1.18,0,2.14-0.96,2.14-2.14c0-1.18-0.96-2.14-2.14-2.14c-1.18,0-2.14,0.96-2.14,2.14
	C80.73,97.08,81.69,98.03,82.87,98.03z"/>
<path class="st0" d="M82.87,115.16c1.18,0,2.14-0.96,2.14-2.14c0-1.18-0.96-2.14-2.14-2.14c-1.18,0-2.14,0.96-2.14,2.14
	C80.73,114.2,81.69,115.16,82.87,115.16z"/>
<path class="st0" d="M82.87,119.44c1.18,0,2.14-0.96,2.14-2.14s-0.96-2.14-2.14-2.14c-1.18,0-2.14,0.96-2.14,2.14
	S81.69,119.44,82.87,119.44z"/>
<path class="st0" d="M82.87,123.72c1.18,0,2.14-0.96,2.14-2.14c0-1.18-0.96-2.14-2.14-2.14c-1.18,0-2.14,0.96-2.14,2.14
	C80.73,122.76,81.69,123.72,82.87,123.72z"/>
<path class="st0" d="M82.87,128c1.18,0,2.14-0.96,2.14-2.14c0-1.18-0.96-2.14-2.14-2.14c-1.18,0-2.14,0.96-2.14,2.14
	C80.73,127.04,81.69,128,82.87,128z"/>
<path class="st0" d="M82.87,136.57c1.18,0,2.14-0.96,2.14-2.14c0-1.18-0.96-2.14-2.14-2.14c-1.18,0-2.14,0.96-2.14,2.14
	C80.73,135.61,81.69,136.57,82.87,136.57z"/>
<path class="st0" d="M87.15,20.97c1.18,0,2.14-0.96,2.14-2.14c0-1.18-0.96-2.14-2.14-2.14c-1.18,0-2.14,0.96-2.14,2.14
	C85.01,20.02,85.97,20.97,87.15,20.97z"/>
<path class="st0" d="M87.15,25.25c1.18,0,2.14-0.96,2.14-2.14c0-1.18-0.96-2.14-2.14-2.14c-1.18,0-2.14,0.96-2.14,2.14
	C85.01,24.3,85.97,25.25,87.15,25.25z"/>
<path class="st0" d="M87.15,29.54c1.18,0,2.14-0.96,2.14-2.14c0-1.18-0.96-2.14-2.14-2.14c-1.18,0-2.14,0.96-2.14,2.14
	C85.01,28.58,85.97,29.54,87.15,29.54z"/>
<path class="st0" d="M87.15,38.1c1.18,0,2.14-0.96,2.14-2.14c0-1.18-0.96-2.14-2.14-2.14c-1.18,0-2.14,0.96-2.14,2.14
	C85.01,37.14,85.97,38.1,87.15,38.1z"/>
<path class="st0" d="M87.15,46.66c1.18,0,2.14-0.96,2.14-2.14c0-1.18-0.96-2.14-2.14-2.14c-1.18,0-2.14,0.96-2.14,2.14
	C85.01,45.7,85.97,46.66,87.15,46.66z"/>
<path class="st0" d="M87.15,55.22c1.18,0,2.14-0.96,2.14-2.14c0-1.18-0.96-2.14-2.14-2.14c-1.18,0-2.14,0.96-2.14,2.14
	C85.01,54.26,85.97,55.22,87.15,55.22z"/>
<path class="st0" d="M87.15,63.79c1.18,0,2.14-0.96,2.14-2.14s-0.96-2.14-2.14-2.14c-1.18,0-2.14,0.96-2.14,2.14
	S85.97,63.79,87.15,63.79z"/>
<path class="st0" d="M87.15,72.35c1.18,0,2.14-0.96,2.14-2.14c0-1.18-0.96-2.14-2.14-2.14c-1.18,0-2.14,0.96-2.14,2.14
	C85.01,71.39,85.97,72.35,87.15,72.35z"/>
<path class="st0" d="M87.15,76.63c1.18,0,2.14-0.96,2.14-2.14c0-1.18-0.96-2.14-2.14-2.14c-1.18,0-2.14,0.96-2.14,2.14
	C85.01,75.67,85.97,76.63,87.15,76.63z"/>
<path class="st0" d="M87.15,80.91c1.18,0,2.14-0.96,2.14-2.14c0-1.18-0.96-2.14-2.14-2.14c-1.18,0-2.14,0.96-2.14,2.14
	C85.01,79.95,85.97,80.91,87.15,80.91z"/>
<path class="st0" d="M87.15,85.19c1.18,0,2.14-0.96,2.14-2.14c0-1.18-0.96-2.14-2.14-2.14c-1.18,0-2.14,0.96-2.14,2.14
	C85.01,84.23,85.97,85.19,87.15,85.19z"/>
<path class="st0" d="M87.15,93.75c1.18,0,2.14-0.96,2.14-2.14c0-1.18-0.96-2.14-2.14-2.14c-1.18,0-2.14,0.96-2.14,2.14
	C85.01,92.8,85.97,93.75,87.15,93.75z"/>
<path class="st0" d="M87.15,98.03c1.18,0,2.14-0.96,2.14-2.14c0-1.18-0.96-2.14-2.14-2.14c-1.18,0-2.14,0.96-2.14,2.14
	C85.01,97.08,85.97,98.03,87.15,98.03z"/>
<path class="st0" d="M87.15,102.32c1.18,0,2.14-0.96,2.14-2.14c0-1.18-0.96-2.14-2.14-2.14c-1.18,0-2.14,0.96-2.14,2.14
	C85.01,101.36,85.97,102.32,87.15,102.32z"/>
<path class="st0" d="M87.15,106.6c1.18,0,2.14-0.96,2.14-2.14s-0.96-2.14-2.14-2.14c-1.18,0-2.14,0.96-2.14,2.14
	S85.97,106.6,87.15,106.6z"/>
<path class="st0" d="M87.15,110.88c1.18,0,2.14-0.96,2.14-2.14c0-1.18-0.96-2.14-2.14-2.14c-1.18,0-2.14,0.96-2.14,2.14
	C85.01,109.92,85.97,110.88,87.15,110.88z"/>
<path class="st0" d="M87.15,115.16c1.18,0,2.14-0.96,2.14-2.14c0-1.18-0.96-2.14-2.14-2.14c-1.18,0-2.14,0.96-2.14,2.14
	C85.01,114.2,85.97,115.16,87.15,115.16z"/>
<path class="st0" d="M87.15,123.72c1.18,0,2.14-0.96,2.14-2.14c0-1.18-0.96-2.14-2.14-2.14c-1.18,0-2.14,0.96-2.14,2.14
	C85.01,122.76,85.97,123.72,87.15,123.72z"/>
<path class="st0" d="M87.15,128c1.18,0,2.14-0.96,2.14-2.14c0-1.18-0.96-2.14-2.14-2.14c-1.18,0-2.14,0.96-2.14,2.14
	C85.01,127.04,85.97,128,87.15,128z"/>
<path class="st0" d="M91.43,29.54c1.18,0,2.14-0.96,2.14-2.14c0-1.18-0.96-2.14-2.14-2.14s-2.14,0.96-2.14,2.14
	C89.29,28.58,90.25,29.54,91.43,29.54z"/>
<path class="st0" d="M91.43,38.1c1.18,0,2.14-0.96,2.14-2.14c0-1.18-0.96-2.14-2.14-2.14s-2.14,0.96-2.14,2.14
	C89.29,37.14,90.25,38.1,91.43,38.1z"/>
<path class="st0" d="M91.43,42.38c1.18,0,2.14-0.96,2.14-2.14c0-1.18-0.96-2.14-2.14-2.14s-2.14,0.96-2.14,2.14
	C89.29,41.42,90.25,42.38,91.43,42.38z"/>
<path class="st0" d="M91.43,50.94c1.18,0,2.14-0.96,2.14-2.14c0-1.18-0.96-2.14-2.14-2.14s-2.14,0.96-2.14,2.14
	C89.29,49.98,90.25,50.94,91.43,50.94z"/>
<path class="st0" d="M91.43,55.22c1.18,0,2.14-0.96,2.14-2.14c0-1.18-0.96-2.14-2.14-2.14s-2.14,0.96-2.14,2.14
	C89.29,54.26,90.25,55.22,91.43,55.22z"/>
<path class="st0" d="M91.43,63.79c1.18,0,2.14-0.96,2.14-2.14s-0.96-2.14-2.14-2.14s-2.14,0.96-2.14,2.14S90.25,63.79,91.43,63.79z"
	/>
<path class="st0" d="M91.43,72.35c1.18,0,2.14-0.96,2.14-2.14c0-1.18-0.96-2.14-2.14-2.14s-2.14,0.96-2.14,2.14
	C89.29,71.39,90.25,72.35,91.43,72.35z"/>
<path class="st0" d="M91.43,89.47c1.18,0,2.14-0.96,2.14-2.14c0-1.18-0.96-2.14-2.14-2.14s-2.14,0.96-2.14,2.14
	C89.29,88.51,90.25,89.47,91.43,89.47z"/>
<path class="st0" d="M91.43,93.75c1.18,0,2.14-0.96,2.14-2.14c0-1.18-0.96-2.14-2.14-2.14s-2.14,0.96-2.14,2.14
	C89.29,92.8,90.25,93.75,91.43,93.75z"/>
<path class="st0" d="M91.43,102.32c1.18,0,2.14-0.96,2.14-2.14c0-1.18-0.96-2.14-2.14-2.14s-2.14,0.96-2.14,2.14
	C89.29,101.36,90.25,102.32,91.43,102.32z"/>
<path class="st0" d="M91.43,106.6c1.18,0,2.14-0.96,2.14-2.14s-0.96-2.14-2.14-2.14s-2.14,0.96-2.14,2.14S90.25,106.6,91.43,106.6z"
	/>
<path class="st0" d="M91.43,123.72c1.18,0,2.14-0.96,2.14-2.14c0-1.18-0.96-2.14-2.14-2.14s-2.14,0.96-2.14,2.14
	C89.29,122.76,90.25,123.72,91.43,123.72z"/>
<path class="st0" d="M91.43,128c1.18,0,2.14-0.96,2.14-2.14c0-1.18-0.96-2.14-2.14-2.14s-2.14,0.96-2.14,2.14
	C89.29,127.04,90.25,128,91.43,128z"/>
<path class="st0" d="M91.43,140.85c1.18,0,2.14-0.96,2.14-2.14c0-1.18-0.96-2.14-2.14-2.14s-2.14,0.96-2.14,2.14
	C89.29,139.89,90.25,140.85,91.43,140.85z"/>
<path class="st0" d="M95.71,20.97c1.18,0,2.14-0.96,2.14-2.14c0-1.18-0.96-2.14-2.14-2.14c-1.18,0-2.14,0.96-2.14,2.14
	C93.57,20.02,94.53,20.97,95.71,20.97z"/>
<path class="st0" d="M95.71,25.25c1.18,0,2.14-0.96,2.14-2.14c0-1.18-0.96-2.14-2.14-2.14c-1.18,0-2.14,0.96-2.14,2.14
	C93.57,24.3,94.53,25.25,95.71,25.25z"/>
<path class="st0" d="M95.71,29.54c1.18,0,2.14-0.96,2.14-2.14c0-1.18-0.96-2.14-2.14-2.14c-1.18,0-2.14,0.96-2.14,2.14
	C93.57,28.58,94.53,29.54,95.71,29.54z"/>
<path class="st0" d="M95.71,38.1c1.18,0,2.14-0.96,2.14-2.14c0-1.18-0.96-2.14-2.14-2.14c-1.18,0-2.14,0.96-2.14,2.14
	C93.57,37.14,94.53,38.1,95.71,38.1z"/>
<path class="st0" d="M95.71,46.66c1.18,0,2.14-0.96,2.14-2.14c0-1.18-0.96-2.14-2.14-2.14c-1.18,0-2.14,0.96-2.14,2.14
	C93.57,45.7,94.53,46.66,95.71,46.66z"/>
<path class="st0" d="M95.71,50.94c1.18,0,2.14-0.96,2.14-2.14c0-1.18-0.96-2.14-2.14-2.14c-1.18,0-2.14,0.96-2.14,2.14
	C93.57,49.98,94.53,50.94,95.71,50.94z"/>
<path class="st0" d="M95.71,55.22c1.18,0,2.14-0.96,2.14-2.14c0-1.18-0.96-2.14-2.14-2.14c-1.18,0-2.14,0.96-2.14,2.14
	C93.57,54.26,94.53,55.22,95.71,55.22z"/>
<path class="st0" d="M95.71,59.5c1.18,0,2.14-0.96,2.14-2.14c0-1.18-0.96-2.14-2.14-2.14c-1.18,0-2.14,0.96-2.14,2.14
	C93.57,58.55,94.53,59.5,95.71,59.5z"/>
<path class="st0" d="M95.71,63.79c1.18,0,2.14-0.96,2.14-2.14s-0.96-2.14-2.14-2.14c-1.18,0-2.14,0.96-2.14,2.14
	S94.53,63.79,95.71,63.79z"/>
<path class="st0" d="M95.71,68.07c1.18,0,2.14-0.96,2.14-2.14s-0.96-2.14-2.14-2.14c-1.18,0-2.14,0.96-2.14,2.14
	S94.53,68.07,95.71,68.07z"/>
<path class="st0" d="M95.71,72.35c1.18,0,2.14-0.96,2.14-2.14c0-1.18-0.96-2.14-2.14-2.14c-1.18,0-2.14,0.96-2.14,2.14
	C93.57,71.39,94.53,72.35,95.71,72.35z"/>
<path class="st0" d="M95.71,76.63c1.18,0,2.14-0.96,2.14-2.14c0-1.18-0.96-2.14-2.14-2.14c-1.18,0-2.14,0.96-2.14,2.14
	C93.57,75.67,94.53,76.63,95.71,76.63z"/>
<path class="st0" d="M95.71,89.47c1.18,0,2.14-0.96,2.14-2.14c0-1.18-0.96-2.14-2.14-2.14c-1.18,0-2.14,0.96-2.14,2.14
	C93.57,88.51,94.53,89.47,95.71,89.47z"/>
<path class="st0" d="M95.71,106.6c1.18,0,2.14-0.96,2.14-2.14s-0.96-2.14-2.14-2.14c-1.18,0-2.14,0.96-2.14,2.14
	S94.53,106.6,95.71,106.6z"/>
<path class="st0" d="M95.71,110.88c1.18,0,2.14-0.96,2.14-2.14c0-1.18-0.96-2.14-2.14-2.14c-1.18,0-2.14,0.96-2.14,2.14
	C93.57,109.92,94.53,110.88,95.71,110.88z"/>
<path class="st0" d="M95.71,115.16c1.18,0,2.14-0.96,2.14-2.14c0-1.18-0.96-2.14-2.14-2.14c-1.18,0-2.14,0.96-2.14,2.14
	C93.57,114.2,94.53,115.16,95.71,115.16z"/>
<path class="st0" d="M95.71,132.28c1.18,0,2.14-0.96,2.14-2.14S96.89,128,95.71,128c-1.18,0-2.14,0.96-2.14,2.14
	S94.53,132.28,95.71,132.28z"/>
<path class="st0" d="M95.71,136.57c1.18,0,2.14-0.96,2.14-2.14c0-1.18-0.96-2.14-2.14-2.14c-1.18,0-2.14,0.96-2.14,2.14
	C93.57,135.61,94.53,136.57,95.71,136.57z"/>
<path class="st0" d="M99.99,20.97c1.18,0,2.14-0.96,2.14-2.14c0-1.18-0.96-2.14-2.14-2.14c-1.18,0-2.14,0.96-2.14,2.14
	C97.85,20.02,98.81,20.97,99.99,20.97z"/>
<path class="st0" d="M99.99,29.54c1.18,0,2.14-0.96,2.14-2.14c0-1.18-0.96-2.14-2.14-2.14c-1.18,0-2.14,0.96-2.14,2.14
	C97.85,28.58,98.81,29.54,99.99,29.54z"/>
<path class="st0" d="M99.99,42.38c1.18,0,2.14-0.96,2.14-2.14c0-1.18-0.96-2.14-2.14-2.14c-1.18,0-2.14,0.96-2.14,2.14
	C97.85,41.42,98.81,42.38,99.99,42.38z"/>
<path class="st0" d="M99.99,50.94c1.18,0,2.14-0.96,2.14-2.14c0-1.18-0.96-2.14-2.14-2.14c-1.18,0-2.14,0.96-2.14,2.14
	C97.85,49.98,98.81,50.94,99.99,50.94z"/>
<path class="st0" d="M99.99,59.5c1.18,0,2.14-0.96,2.14-2.14c0-1.18-0.96-2.14-2.14-2.14c-1.18,0-2.14,0.96-2.14,2.14
	C97.85,58.55,98.81,59.5,99.99,59.5z"/>
<path class="st0" d="M99.99,68.07c1.18,0,2.14-0.96,2.14-2.14s-0.96-2.14-2.14-2.14c-1.18,0-2.14,0.96-2.14,2.14
	S98.81,68.07,99.99,68.07z"/>
<path class="st0" d="M99.99,80.91c1.18,0,2.14-0.96,2.14-2.14c0-1.18-0.96-2.14-2.14-2.14c-1.18,0-2.14,0.96-2.14,2.14
	C97.85,79.95,98.81,80.91,99.99,80.91z"/>
<path class="st0" d="M99.99,89.47c1.18,0,2.14-0.96,2.14-2.14c0-1.18-0.96-2.14-2.14-2.14c-1.18,0-2.14,0.96-2.14,2.14
	C97.85,88.51,98.81,89.47,99.99,89.47z"/>
<path class="st0" d="M99.99,115.16c1.18,0,2.14-0.96,2.14-2.14c0-1.18-0.96-2.14-2.14-2.14c-1.18,0-2.14,0.96-2.14,2.14
	C97.85,114.2,98.81,115.16,99.99,115.16z"/>
<path class="st0" d="M99.99,123.72c1.18,0,2.14-0.96,2.14-2.14c0-1.18-0.96-2.14-2.14-2.14c-1.18,0-2.14,0.96-2.14,2.14
	C97.85,122.76,98.81,123.72,99.99,123.72z"/>
<path class="st0" d="M99.99,132.28c1.18,0,2.14-0.96,2.14-2.14s-0.96-2.14-2.14-2.14c-1.18,0-2.14,0.96-2.14,2.14
	S98.81,132.28,99.99,132.28z"/>
<path class="st0" d="M99.99,140.85c1.18,0,2.14-0.96,2.14-2.14c0-1.18-0.96-2.14-2.14-2.14c-1.18,0-2.14,0.96-2.14,2.14
	C97.85,139.89,98.81,140.85,99.99,140.85z"/>
<path class="st0" d="M104.27,20.97c1.18,0,2.14-0.96,2.14-2.14c0-1.18-0.96-2.14-2.14-2.14c-1.18,0-2.14,0.96-2.14,2.14
	C102.13,20.02,103.09,20.97,104.27,20.97z"/>
<path class="st0" d="M104.27,33.82c1.18,0,2.14-0.96,2.14-2.14c0-1.18-0.96-2.14-2.14-2.14c-1.18,0-2.14,0.96-2.14,2.14
	C102.13,32.86,103.09,33.82,104.27,33.82z"/>
<path class="st0" d="M104.27,38.1c1.18,0,2.14-0.96,2.14-2.14c0-1.18-0.96-2.14-2.14-2.14c-1.18,0-2.14,0.96-2.14,2.14
	C102.13,37.14,103.09,38.1,104.27,38.1z"/>
<path class="st0" d="M104.27,46.66c1.18,0,2.14-0.96,2.14-2.14c0-1.18-0.96-2.14-2.14-2.14c-1.18,0-2.14,0.96-2.14,2.14
	C102.13,45.7,103.09,46.66,104.27,46.66z"/>
<path class="st0" d="M104.27,59.5c1.18,0,2.14-0.96,2.14-2.14c0-1.18-0.96-2.14-2.14-2.14c-1.18,0-2.14,0.96-2.14,2.14
	C102.13,58.55,103.09,59.5,104.27,59.5z"/>
<path class="st0" d="M104.27,63.79c1.18,0,2.14-0.96,2.14-2.14s-0.96-2.14-2.14-2.14c-1.18,0-2.14,0.96-2.14,2.14
	S103.09,63.79,104.27,63.79z"/>
<path class="st0" d="M104.27,76.63c1.18,0,2.14-0.96,2.14-2.14c0-1.18-0.96-2.14-2.14-2.14c-1.18,0-2.14,0.96-2.14,2.14
	C102.13,75.67,103.09,76.63,104.27,76.63z"/>
<path class="st0" d="M104.27,85.19c1.18,0,2.14-0.96,2.14-2.14c0-1.18-0.96-2.14-2.14-2.14c-1.18,0-2.14,0.96-2.14,2.14
	C102.13,84.23,103.09,85.19,104.27,85.19z"/>
<path class="st0" d="M104.27,89.47c1.18,0,2.14-0.96,2.14-2.14c0-1.18-0.96-2.14-2.14-2.14c-1.18,0-2.14,0.96-2.14,2.14
	C102.13,88.51,103.09,89.47,104.27,89.47z"/>
<path class="st0" d="M104.27,98.03c1.18,0,2.14-0.96,2.14-2.14c0-1.18-0.96-2.14-2.14-2.14c-1.18,0-2.14,0.96-2.14,2.14
	C102.13,97.08,103.09,98.03,104.27,98.03z"/>
<path class="st0" d="M104.27,102.32c1.18,0,2.14-0.96,2.14-2.14c0-1.18-0.96-2.14-2.14-2.14c-1.18,0-2.14,0.96-2.14,2.14
	C102.13,101.36,103.09,102.32,104.27,102.32z"/>
<path class="st0" d="M104.27,106.6c1.18,0,2.14-0.96,2.14-2.14s-0.96-2.14-2.14-2.14c-1.18,0-2.14,0.96-2.14,2.14
	S103.09,106.6,104.27,106.6z"/>
<path class="st0" d="M104.27,119.44c1.18,0,2.14-0.96,2.14-2.14s-0.96-2.14-2.14-2.14c-1.18,0-2.14,0.96-2.14,2.14
	S103.09,119.44,104.27,119.44z"/>
<path class="st0" d="M104.27,128c1.18,0,2.14-0.96,2.14-2.14c0-1.18-0.96-2.14-2.14-2.14c-1.18,0-2.14,0.96-2.14,2.14
	C102.13,127.04,103.09,128,104.27,128z"/>
<path class="st0" d="M104.27,136.57c1.18,0,2.14-0.96,2.14-2.14c0-1.18-0.96-2.14-2.14-2.14c-1.18,0-2.14,0.96-2.14,2.14
	C102.13,135.61,103.09,136.57,104.27,136.57z"/>
<path class="st0" d="M104.27,140.85c1.18,0,2.14-0.96,2.14-2.14c0-1.18-0.96-2.14-2.14-2.14c-1.18,0-2.14,0.96-2.14,2.14
	C102.13,139.89,103.09,140.85,104.27,140.85z"/>
<path class="st0" d="M108.55,20.97c1.18,0,2.14-0.96,2.14-2.14c0-1.18-0.96-2.14-2.14-2.14s-2.14,0.96-2.14,2.14
	C106.41,20.02,107.37,20.97,108.55,20.97z"/>
<path class="st0" d="M108.55,42.38c1.18,0,2.14-0.96,2.14-2.14c0-1.18-0.96-2.14-2.14-2.14s-2.14,0.96-2.14,2.14
	C106.41,41.42,107.37,42.38,108.55,42.38z"/>
<path class="st0" d="M108.55,55.22c1.18,0,2.14-0.96,2.14-2.14c0-1.18-0.96-2.14-2.14-2.14s-2.14,0.96-2.14,2.14
	C106.41,54.26,107.37,55.22,108.55,55.22z"/>
<path class="st0" d="M108.55,59.5c1.18,0,2.14-0.96,2.14-2.14c0-1.18-0.96-2.14-2.14-2.14s-2.14,0.96-2.14,2.14
	C106.41,58.55,107.37,59.5,108.55,59.5z"/>
<path class="st0" d="M108.55,72.35c1.18,0,2.14-0.96,2.14-2.14c0-1.18-0.96-2.14-2.14-2.14s-2.14,0.96-2.14,2.14
	C106.41,71.39,107.37,72.35,108.55,72.35z"/>
<path class="st0" d="M108.55,89.47c1.18,0,2.14-0.96,2.14-2.14c0-1.18-0.96-2.14-2.14-2.14s-2.14,0.96-2.14,2.14
	C106.41,88.51,107.37,89.47,108.55,89.47z"/>
<path class="st0" d="M108.55,110.88c1.18,0,2.14-0.96,2.14-2.14c0-1.18-0.96-2.14-2.14-2.14s-2.14,0.96-2.14,2.14
	C106.41,109.92,107.37,110.88,108.55,110.88z"/>
<path class="st0" d="M108.55,115.16c1.18,0,2.14-0.96,2.14-2.14c0-1.18-0.96-2.14-2.14-2.14s-2.14,0.96-2.14,2.14
	C106.41,114.2,107.37,115.16,108.55,115.16z"/>
<path class="st0" d="M108.55,123.72c1.18,0,2.14-0.96,2.14-2.14c0-1.18-0.96-2.14-2.14-2.14s-2.14,0.96-2.14,2.14
	C106.41,122.76,107.37,123.72,108.55,123.72z"/>
<path class="st0" d="M108.55,128c1.18,0,2.14-0.96,2.14-2.14c0-1.18-0.96-2.14-2.14-2.14s-2.14,0.96-2.14,2.14
	C106.41,127.04,107.37,128,108.55,128z"/>
<path class="st0" d="M108.55,132.28c1.18,0,2.14-0.96,2.14-2.14s-0.96-2.14-2.14-2.14s-2.14,0.96-2.14,2.14
	S107.37,132.28,108.55,132.28z"/>
<path class="st0" d="M108.55,136.57c1.18,0,2.14-0.96,2.14-2.14c0-1.18-0.96-2.14-2.14-2.14s-2.14,0.96-2.14,2.14
	C106.41,135.61,107.37,136.57,108.55,136.57z"/>
<path class="st0" d="M108.55,140.85c1.18,0,2.14-0.96,2.14-2.14c0-1.18-0.96-2.14-2.14-2.14s-2.14,0.96-2.14,2.14
	C106.41,139.89,107.37,140.85,108.55,140.85z"/>
<path class="st0" d="M112.84,20.97c1.18,0,2.14-0.96,2.14-2.14c0-1.18-0.96-2.14-2.14-2.14c-1.18,0-2.14,0.96-2.14,2.14
	C110.69,20.02,111.65,20.97,112.84,20.97z"/>
<path class="st0" d="M112.84,25.25c1.18,0,2.14-0.96,2.14-2.14c0-1.18-0.96-2.14-2.14-2.14c-1.18,0-2.14,0.96-2.14,2.14
	C110.69,24.3,111.65,25.25,112.84,25.25z"/>
<path class="st0" d="M112.84,29.54c1.18,0,2.14-0.96,2.14-2.14c0-1.18-0.96-2.14-2.14-2.14c-1.18,0-2.14,0.96-2.14,2.14
	C110.69,28.58,111.65,29.54,112.84,29.54z"/>
<path class="st0" d="M112.84,38.1c1.18,0,2.14-0.96,2.14-2.14c0-1.18-0.96-2.14-2.14-2.14c-1.18,0-2.14,0.96-2.14,2.14
	C110.69,37.14,111.65,38.1,112.84,38.1z"/>
<path class="st0" d="M112.84,46.66c1.18,0,2.14-0.96,2.14-2.14c0-1.18-0.96-2.14-2.14-2.14c-1.18,0-2.14,0.96-2.14,2.14
	C110.69,45.7,111.65,46.66,112.84,46.66z"/>
<path class="st0" d="M112.84,50.94c1.18,0,2.14-0.96,2.14-2.14c0-1.18-0.96-2.14-2.14-2.14c-1.18,0-2.14,0.96-2.14,2.14
	C110.69,49.98,111.65,50.94,112.84,50.94z"/>
<path class="st0" d="M112.84,68.07c1.18,0,2.14-0.96,2.14-2.14s-0.96-2.14-2.14-2.14c-1.18,0-2.14,0.96-2.14,2.14
	S111.65,68.07,112.84,68.07z"/>
<path class="st0" d="M112.84,76.63c1.18,0,2.14-0.96,2.14-2.14c0-1.18-0.96-2.14-2.14-2.14c-1.18,0-2.14,0.96-2.14,2.14
	C110.69,75.67,111.65,76.63,112.84,76.63z"/>
<path class="st0" d="M112.84,80.91c1.18,0,2.14-0.96,2.14-2.14c0-1.18-0.96-2.14-2.14-2.14c-1.18,0-2.14,0.96-2.14,2.14
	C110.69,79.95,111.65,80.91,112.84,80.91z"/>
<path class="st0" d="M112.84,93.75c1.18,0,2.14-0.96,2.14-2.14c0-1.18-0.96-2.14-2.14-2.14c-1.18,0-2.14,0.96-2.14,2.14
	C110.69,92.8,111.65,93.75,112.84,93.75z"/>
<path class="st0" d="M112.84,98.03c1.18,0,2.14-0.96,2.14-2.14c0-1.18-0.96-2.14-2.14-2.14c-1.18,0-2.14,0.96-2.14,2.14
	C110.69,97.08,111.65,98.03,112.84,98.03z"/>
<path class="st0" d="M112.84,102.32c1.18,0,2.14-0.96,2.14-2.14c0-1.18-0.96-2.14-2.14-2.14c-1.18,0-2.14,0.96-2.14,2.14
	C110.69,101.36,111.65,102.32,112.84,102.32z"/>
<path class="st0" d="M112.84,106.6c1.18,0,2.14-0.96,2.14-2.14s-0.96-2.14-2.14-2.14c-1.18,0-2.14,0.96-2.14,2.14
	S111.65,106.6,112.84,106.6z"/>
<path class="st0" d="M112.84,123.72c1.18,0,2.14-0.96,2.14-2.14c0-1.18-0.96-2.14-2.14-2.14c-1.18,0-2.14,0.96-2.14,2.14
	C110.69,122.76,111.65,123.72,112.84,123.72z"/>
<path class="st0" d="M112.84,128c1.18,0,2.14-0.96,2.14-2.14c0-1.18-0.96-2.14-2.14-2.14c-1.18,0-2.14,0.96-2.14,2.14
	C110.69,127.04,111.65,128,112.84,128z"/>
<path class="st0" d="M112.84,140.85c1.18,0,2.14-0.96,2.14-2.14c0-1.18-0.96-2.14-2.14-2.14c-1.18,0-2.14,0.96-2.14,2.14
	C110.69,139.89,111.65,140.85,112.84,140.85z"/>
<path class="st0" d="M117.12,20.97c1.18,0,2.14-0.96,2.14-2.14c0-1.18-0.96-2.14-2.14-2.14c-1.18,0-2.14,0.96-2.14,2.14
	C114.98,20.02,115.93,20.97,117.12,20.97z"/>
<path class="st0" d="M117.12,33.82c1.18,0,2.14-0.96,2.14-2.14c0-1.18-0.96-2.14-2.14-2.14c-1.18,0-2.14,0.96-2.14,2.14
	C114.98,32.86,115.93,33.82,117.12,33.82z"/>
<path class="st0" d="M117.12,42.38c1.18,0,2.14-0.96,2.14-2.14c0-1.18-0.96-2.14-2.14-2.14c-1.18,0-2.14,0.96-2.14,2.14
	C114.98,41.42,115.93,42.38,117.12,42.38z"/>
<path class="st0" d="M117.12,50.94c1.18,0,2.14-0.96,2.14-2.14c0-1.18-0.96-2.14-2.14-2.14c-1.18,0-2.14,0.96-2.14,2.14
	C114.98,49.98,115.93,50.94,117.12,50.94z"/>
<path class="st0" d="M117.12,55.22c1.18,0,2.14-0.96,2.14-2.14c0-1.18-0.96-2.14-2.14-2.14c-1.18,0-2.14,0.96-2.14,2.14
	C114.98,54.26,115.93,55.22,117.12,55.22z"/>
<path class="st0" d="M117.12,59.5c1.18,0,2.14-0.96,2.14-2.14c0-1.18-0.96-2.14-2.14-2.14c-1.18,0-2.14,0.96-2.14,2.14
	C114.98,58.55,115.93,59.5,117.12,59.5z"/>
<path class="st0" d="M117.12,63.79c1.18,0,2.14-0.96,2.14-2.14s-0.96-2.14-2.14-2.14c-1.18,0-2.14,0.96-2.14,2.14
	S115.93,63.79,117.12,63.79z"/>
<path class="st0" d="M117.12,68.07c1.18,0,2.14-0.96,2.14-2.14s-0.96-2.14-2.14-2.14c-1.18,0-2.14,0.96-2.14,2.14
	S115.93,68.07,117.12,68.07z"/>
<path class="st0" d="M117.12,76.63c1.18,0,2.14-0.96,2.14-2.14c0-1.18-0.96-2.14-2.14-2.14c-1.18,0-2.14,0.96-2.14,2.14
	C114.98,75.67,115.93,76.63,117.12,76.63z"/>
<path class="st0" d="M117.12,93.75c1.18,0,2.14-0.96,2.14-2.14c0-1.18-0.96-2.14-2.14-2.14c-1.18,0-2.14,0.96-2.14,2.14
	C114.98,92.8,115.93,93.75,117.12,93.75z"/>
<path class="st0" d="M117.12,110.88c1.18,0,2.14-0.96,2.14-2.14c0-1.18-0.96-2.14-2.14-2.14c-1.18,0-2.14,0.96-2.14,2.14
	C114.98,109.92,115.93,110.88,117.12,110.88z"/>
<path class="st0" d="M117.12,123.72c1.18,0,2.14-0.96,2.14-2.14c0-1.18-0.96-2.14-2.14-2.14c-1.18,0-2.14,0.96-2.14,2.14
	C114.98,122.76,115.93,123.72,117.12,123.72z"/>
<path class="st0" d="M117.12,128c1.18,0,2.14-0.96,2.14-2.14c0-1.18-0.96-2.14-2.14-2.14c-1.18,0-2.14,0.96-2.14,2.14
	C114.98,127.04,115.93,128,117.12,128z"/>
<path class="st0" d="M121.4,20.97c1.18,0,2.14-0.96,2.14-2.14c0-1.18-0.96-2.14-2.14-2.14c-1.18,0-2.14,0.96-2.14,2.14
	C119.26,20.02,120.22,20.97,121.4,20.97z"/>
<path class="st0" d="M121.4,25.25c1.18,0,2.14-0.96,2.14-2.14c0-1.18-0.96-2.14-2.14-2.14c-1.18,0-2.14,0.96-2.14,2.14
	C119.26,24.3,120.22,25.25,121.4,25.25z"/>
<path class="st0" d="M121.4,29.54c1.18,0,2.14-0.96,2.14-2.14c0-1.18-0.96-2.14-2.14-2.14c-1.18,0-2.14,0.96-2.14,2.14
	C119.26,28.58,120.22,29.54,121.4,29.54z"/>
<path class="st0" d="M121.4,38.1c1.18,0,2.14-0.96,2.14-2.14c0-1.18-0.96-2.14-2.14-2.14c-1.18,0-2.14,0.96-2.14,2.14
	C119.26,37.14,120.22,38.1,121.4,38.1z"/>
<path class="st0" d="M121.4,46.66c1.18,0,2.14-0.96,2.14-2.14c0-1.18-0.96-2.14-2.14-2.14c-1.18,0-2.14,0.96-2.14,2.14
	C119.26,45.7,120.22,46.66,121.4,46.66z"/>
<path class="st0" d="M121.4,59.5c1.18,0,2.14-0.96,2.14-2.14c0-1.18-0.96-2.14-2.14-2.14c-1.18,0-2.14,0.96-2.14,2.14
	C119.26,58.55,120.22,59.5,121.4,59.5z"/>
<path class="st0" d="M121.4,63.79c1.18,0,2.14-0.96,2.14-2.14s-0.96-2.14-2.14-2.14c-1.18,0-2.14,0.96-2.14,2.14
	S120.22,63.79,121.4,63.79z"/>
<path class="st0" d="M121.4,68.07c1.18,0,2.14-0.96,2.14-2.14s-0.96-2.14-2.14-2.14c-1.18,0-2.14,0.96-2.14,2.14
	S120.22,68.07,121.4,68.07z"/>
<path class="st0" d="M121.4,72.35c1.18,0,2.14-0.96,2.14-2.14c0-1.18-0.96-2.14-2.14-2.14c-1.18,0-2.14,0.96-2.14,2.14
	C119.26,71.39,120.22,72.35,121.4,72.35z"/>
<path class="st0" d="M121.4,80.91c1.18,0,2.14-0.96,2.14-2.14c0-1.18-0.96-2.14-2.14-2.14c-1.18,0-2.14,0.96-2.14,2.14
	C119.26,79.95,120.22,80.91,121.4,80.91z"/>
<path class="st0" d="M121.4,89.47c1.18,0,2.14-0.96,2.14-2.14c0-1.18-0.96-2.14-2.14-2.14c-1.18,0-2.14,0.96-2.14,2.14
	C119.26,88.51,120.22,89.47,121.4,89.47z"/>
<path class="st0" d="M121.4,98.03c1.18,0,2.14-0.96,2.14-2.14c0-1.18-0.96-2.14-2.14-2.14c-1.18,0-2.14,0.96-2.14,2.14
	C119.26,97.08,120.22,98.03,121.4,98.03z"/>
<path class="st0" d="M121.4,102.32c1.18,0,2.14-0.96,2.14-2.14c0-1.18-0.96-2.14-2.14-2.14c-1.18,0-2.14,0.96-2.14,2.14
	C119.26,101.36,120.22,102.32,121.4,102.32z"/>
<path class="st0" d="M121.4,106.6c1.18,0,2.14-0.96,2.14-2.14s-0.96-2.14-2.14-2.14c-1.18,0-2.14,0.96-2.14,2.14
	S120.22,106.6,121.4,106.6z"/>
<path class="st0" d="M121.4,132.28c1.18,0,2.14-0.96,2.14-2.14s-0.96-2.14-2.14-2.14c-1.18,0-2.14,0.96-2.14,2.14
	S120.22,132.28,121.4,132.28z"/>
<path class="st0" d="M121.4,140.85c1.18,0,2.14-0.96,2.14-2.14c0-1.18-0.96-2.14-2.14-2.14c-1.18,0-2.14,0.96-2.14,2.14
	C119.26,139.89,120.22,140.85,121.4,140.85z"/>
<path class="st0" d="M125.68,20.97c1.18,0,2.14-0.96,2.14-2.14c0-1.18-0.96-2.14-2.14-2.14c-1.18,0-2.14,0.96-2.14,2.14
	C123.54,20.02,124.5,20.97,125.68,20.97z"/>
<path class="st0" d="M125.68,25.25c1.18,0,2.14-0.96,2.14-2.14c0-1.18-0.96-2.14-2.14-2.14c-1.18,0-2.14,0.96-2.14,2.14
	C123.54,24.3,124.5,25.25,125.68,25.25z"/>
<path class="st0" d="M125.68,29.54c1.18,0,2.14-0.96,2.14-2.14c0-1.18-0.96-2.14-2.14-2.14c-1.18,0-2.14,0.96-2.14,2.14
	C123.54,28.58,124.5,29.54,125.68,29.54z"/>
<path class="st0" d="M125.68,38.1c1.18,0,2.14-0.96,2.14-2.14c0-1.18-0.96-2.14-2.14-2.14c-1.18,0-2.14,0.96-2.14,2.14
	C123.54,37.14,124.5,38.1,125.68,38.1z"/>
<path class="st0" d="M125.68,55.22c1.18,0,2.14-0.96,2.14-2.14c0-1.18-0.96-2.14-2.14-2.14c-1.18,0-2.14,0.96-2.14,2.14
	C123.54,54.26,124.5,55.22,125.68,55.22z"/>
<path class="st0" d="M125.68,76.63c1.18,0,2.14-0.96,2.14-2.14c0-1.18-0.96-2.14-2.14-2.14c-1.18,0-2.14,0.96-2.14,2.14
	C123.54,75.67,124.5,76.63,125.68,76.63z"/>
<path class="st0" d="M125.68,85.19c1.18,0,2.14-0.96,2.14-2.14c0-1.18-0.96-2.14-2.14-2.14c-1.18,0-2.14,0.96-2.14,2.14
	C123.54,84.23,124.5,85.19,125.68,85.19z"/>
<path class="st0" d="M125.68,89.47c1.18,0,2.14-0.96,2.14-2.14c0-1.18-0.96-2.14-2.14-2.14c-1.18,0-2.14,0.96-2.14,2.14
	C123.54,88.51,124.5,89.47,125.68,89.47z"/>
<path class="st0" d="M125.68,98.03c1.18,0,2.14-0.96,2.14-2.14c0-1.18-0.96-2.14-2.14-2.14c-1.18,0-2.14,0.96-2.14,2.14
	C123.54,97.08,124.5,98.03,125.68,98.03z"/>
<path class="st0" d="M125.68,106.6c1.18,0,2.14-0.96,2.14-2.14s-0.96-2.14-2.14-2.14c-1.18,0-2.14,0.96-2.14,2.14
	S124.5,106.6,125.68,106.6z"/>
<path class="st0" d="M125.68,110.88c1.18,0,2.14-0.96,2.14-2.14c0-1.18-0.96-2.14-2.14-2.14c-1.18,0-2.14,0.96-2.14,2.14
	C123.54,109.92,124.5,110.88,125.68,110.88z"/>
<path class="st0" d="M125.68,115.16c1.18,0,2.14-0.96,2.14-2.14c0-1.18-0.96-2.14-2.14-2.14c-1.18,0-2.14,0.96-2.14,2.14
	C123.54,114.2,124.5,115.16,125.68,115.16z"/>
<path class="st0" d="M125.68,119.44c1.18,0,2.14-0.96,2.14-2.14s-0.96-2.14-2.14-2.14c-1.18,0-2.14,0.96-2.14,2.14
	S124.5,119.44,125.68,119.44z"/>
<path class="st0" d="M125.68,123.72c1.18,0,2.14-0.96,2.14-2.14c0-1.18-0.96-2.14-2.14-2.14c-1.18,0-2.14,0.96-2.14,2.14
	C123.54,122.76,124.5,123.72,125.68,123.72z"/>
<path class="st0" d="M125.68,132.28c1.18,0,2.14-0.96,2.14-2.14s-0.96-2.14-2.14-2.14c-1.18,0-2.14,0.96-2.14,2.14
	S124.5,132.28,125.68,132.28z"/>
<path class="st0" d="M125.68,136.57c1.18,0,2.14-0.96,2.14-2.14c0-1.18-0.96-2.14-2.14-2.14c-1.18,0-2.14,0.96-2.14,2.14
	C123.54,135.61,124.5,136.57,125.68,136.57z"/>
<path class="st0" d="M129.96,20.97c1.18,0,2.14-0.96,2.14-2.14c0-1.18-0.96-2.14-2.14-2.14c-1.18,0-2.14,0.96-2.14,2.14
	C127.82,20.02,128.78,20.97,129.96,20.97z"/>
<path class="st0" d="M129.96,25.25c1.18,0,2.14-0.96,2.14-2.14c0-1.18-0.96-2.14-2.14-2.14c-1.18,0-2.14,0.96-2.14,2.14
	C127.82,24.3,128.78,25.25,129.96,25.25z"/>
<path class="st0" d="M129.96,29.54c1.18,0,2.14-0.96,2.14-2.14c0-1.18-0.96-2.14-2.14-2.14c-1.18,0-2.14,0.96-2.14,2.14
	C127.82,28.58,128.78,29.54,129.96,29.54z"/>
<path class="st0" d="M129.96,33.82c1.18,0,2.14-0.96,2.14-2.14c0-1.18-0.96-2.14-2.14-2.14c-1.18,0-2.14,0.96-2.14,2.14
	C127.82,32.86,128.78,33.82,129.96,33.82z"/>
<path class="st0" d="M129.96,42.38c1.18,0,2.14-0.96,2.14-2.14c0-1.18-0.96-2.14-2.14-2.14c-1.18,0-2.14,0.96-2.14,2.14
	C127.82,41.42,128.78,42.38,129.96,42.38z"/>
<path class="st0" d="M129.96,46.66c1.18,0,2.14-0.96,2.14-2.14c0-1.18-0.96-2.14-2.14-2.14c-1.18,0-2.14,0.96-2.14,2.14
	C127.82,45.7,128.78,46.66,129.96,46.66z"/>
<path class="st0" d="M129.96,50.94c1.18,0,2.14-0.96,2.14-2.14c0-1.18-0.96-2.14-2.14-2.14c-1.18,0-2.14,0.96-2.14,2.14
	C127.82,49.98,128.78,50.94,129.96,50.94z"/>
<path class="st0" d="M129.96,55.22c1.18,0,2.14-0.96,2.14-2.14c0-1.18-0.96-2.14-2.14-2.14c-1.18,0-2.14,0.96-2.14,2.14
	C127.82,54.26,128.78,55.22,129.96,55.22z"/>
<path class="st0" d="M129.96,59.5c1.18,0,2.14-0.96,2.14-2.14c0-1.18-0.96-2.14-2.14-2.14c-1.18,0-2.14,0.96-2.14,2.14
	C127.82,58.55,128.78,59.5,129.96,59.5z"/>
<path class="st0" d="M129.96,72.35c1.18,0,2.14-0.96,2.14-2.14c0-1.18-0.96-2.14-2.14-2.14c-1.18,0-2.14,0.96-2.14,2.14
	C127.82,71.39,128.78,72.35,129.96,72.35z"/>
<path class="st0" d="M129.96,76.63c1.18,0,2.14-0.96,2.14-2.14c0-1.18-0.96-2.14-2.14-2.14c-1.18,0-2.14,0.96-2.14,2.14
	C127.82,75.67,128.78,76.63,129.96,76.63z"/>
<path class="st0" d="M129.96,80.91c1.18,0,2.14-0.96,2.14-2.14c0-1.18-0.96-2.14-2.14-2.14c-1.18,0-2.14,0.96-2.14,2.14
	C127.82,79.95,128.78,80.91,129.96,80.91z"/>
<path class="st0" d="M129.96,89.47c1.18,0,2.14-0.96,2.14-2.14c0-1.18-0.96-2.14-2.14-2.14c-1.18,0-2.14,0.96-2.14,2.14
	C127.82,88.51,128.78,89.47,129.96,89.47z"/>
<path class="st0" d="M129.96,93.75c1.18,0,2.14-0.96,2.14-2.14c0-1.18-0.96-2.14-2.14-2.14c-1.18,0-2.14,0.96-2.14,2.14
	C127.82,92.8,128.78,93.75,129.96,93.75z"/>
<path class="st0" d="M129.96,98.03c1.18,0,2.14-0.96,2.14-2.14c0-1.18-0.96-2.14-2.14-2.14c-1.18,0-2.14,0.96-2.14,2.14
	C127.82,97.08,128.78,98.03,129.96,98.03z"/>
<path class="st0" d="M129.96,102.32c1.18,0,2.14-0.96,2.14-2.14c0-1.18-0.96-2.14-2.14-2.14c-1.18,0-2.14,0.96-2.14,2.14
	C127.82,101.36,128.78,102.32,129.96,102.32z"/>
<path class="st0" d="M129.96,106.6c1.18,0,2.14-0.96,2.14-2.14s-0.96-2.14-2.14-2.14c-1.18,0-2.14,0.96-2.14,2.14
	S128.78,106.6,129.96,106.6z"/>
<path class="st0" d="M129.96,110.88c1.18,0,2.14-0.96,2.14-2.14c0-1.18-0.96-2.14-2.14-2.14c-1.18,0-2.14,0.96-2.14,2.14
	C127.82,109.92,128.78,110.88,129.96,110.88z"/>
<path class="st0" d="M129.96,115.16c1.18,0,2.14-0.96,2.14-2.14c0-1.18-0.96-2.14-2.14-2.14c-1.18,0-2.14,0.96-2.14,2.14
	C127.82,114.2,128.78,115.16,129.96,115.16z"/>
<path class="st0" d="M129.96,119.44c1.18,0,2.14-0.96,2.14-2.14s-0.96-2.14-2.14-2.14c-1.18,0-2.14,0.96-2.14,2.14
	S128.78,119.44,129.96,119.44z"/>
<path class="st0" d="M129.96,123.72c1.18,0,2.14-0.96,2.14-2.14c0-1.18-0.96-2.14-2.14-2.14c-1.18,0-2.14,0.96-2.14,2.14
	C127.82,122.76,128.78,123.72,129.96,123.72z"/>
<path class="st0" d="M129.96,128c1.18,0,2.14-0.96,2.14-2.14c0-1.18-0.96-2.14-2.14-2.14c-1.18,0-2.14,0.96-2.14,2.14
	C127.82,127.04,128.78,128,129.96,128z"/>
<path class="st0" d="M129.96,132.28c1.18,0,2.14-0.96,2.14-2.14s-0.96-2.14-2.14-2.14c-1.18,0-2.14,0.96-2.14,2.14
	S128.78,132.28,129.96,132.28z"/>
<path class="st0" d="M129.96,136.57c1.18,0,2.14-0.96,2.14-2.14c0-1.18-0.96-2.14-2.14-2.14c-1.18,0-2.14,0.96-2.14,2.14
	C127.82,135.61,128.78,136.57,129.96,136.57z"/>
<path class="st0" d="M134.24,55.22c1.18,0,2.14-0.96,2.14-2.14c0-1.18-0.96-2.14-2.14-2.14c-1.18,0-2.14,0.96-2.14,2.14
	C132.1,54.26,133.06,55.22,134.24,55.22z"/>
<path class="st0" d="M134.24,63.79c1.18,0,2.14-0.96,2.14-2.14s-0.96-2.14-2.14-2.14c-1.18,0-2.14,0.96-2.14,2.14
	S133.06,63.79,134.24,63.79z"/>
<path class="st0" d="M134.24,85.19c1.18,0,2.14-0.96,2.14-2.14c0-1.18-0.96-2.14-2.14-2.14c-1.18,0-2.14,0.96-2.14,2.14
	C132.1,84.23,133.06,85.19,134.24,85.19z"/>
<path class="st0" d="M134.24,93.75c1.18,0,2.14-0.96,2.14-2.14c0-1.18-0.96-2.14-2.14-2.14c-1.18,0-2.14,0.96-2.14,2.14
	C132.1,92.8,133.06,93.75,134.24,93.75z"/>
<path class="st0" d="M134.24,98.03c1.18,0,2.14-0.96,2.14-2.14c0-1.18-0.96-2.14-2.14-2.14c-1.18,0-2.14,0.96-2.14,2.14
	C132.1,97.08,133.06,98.03,134.24,98.03z"/>
<path class="st0" d="M134.24,106.6c1.18,0,2.14-0.96,2.14-2.14s-0.96-2.14-2.14-2.14c-1.18,0-2.14,0.96-2.14,2.14
	S133.06,106.6,134.24,106.6z"/>
<path class="st0" d="M134.24,123.72c1.18,0,2.14-0.96,2.14-2.14c0-1.18-0.96-2.14-2.14-2.14c-1.18,0-2.14,0.96-2.14,2.14
	C132.1,122.76,133.06,123.72,134.24,123.72z"/>
<path class="st0" d="M134.24,128c1.18,0,2.14-0.96,2.14-2.14c0-1.18-0.96-2.14-2.14-2.14c-1.18,0-2.14,0.96-2.14,2.14
	C132.1,127.04,133.06,128,134.24,128z"/>
<path class="st0" d="M134.24,132.28c1.18,0,2.14-0.96,2.14-2.14s-0.96-2.14-2.14-2.14c-1.18,0-2.14,0.96-2.14,2.14
	S133.06,132.28,134.24,132.28z"/>
<path class="st0" d="M138.52,63.79c1.18,0,2.14-0.96,2.14-2.14s-0.96-2.14-2.14-2.14s-2.14,0.96-2.14,2.14
	S137.34,63.79,138.52,63.79z"/>
<path class="st0" d="M138.52,68.07c1.18,0,2.14-0.96,2.14-2.14s-0.96-2.14-2.14-2.14s-2.14,0.96-2.14,2.14
	S137.34,68.07,138.52,68.07z"/>
<path class="st0" d="M138.52,72.35c1.18,0,2.14-0.96,2.14-2.14c0-1.18-0.96-2.14-2.14-2.14s-2.14,0.96-2.14,2.14
	C136.38,71.39,137.34,72.35,138.52,72.35z"/>
<path class="st0" d="M138.52,80.91c1.18,0,2.14-0.96,2.14-2.14c0-1.18-0.96-2.14-2.14-2.14s-2.14,0.96-2.14,2.14
	C136.38,79.95,137.34,80.91,138.52,80.91z"/>
<path class="st0" d="M138.52,85.19c1.18,0,2.14-0.96,2.14-2.14c0-1.18-0.96-2.14-2.14-2.14s-2.14,0.96-2.14,2.14
	C136.38,84.23,137.34,85.19,138.52,85.19z"/>
<path class="st0" d="M138.52,89.47c1.18,0,2.14-0.96,2.14-2.14c0-1.18-0.96-2.14-2.14-2.14s-2.14,0.96-2.14,2.14
	C136.38,88.51,137.34,89.47,138.52,89.47z"/>
<path class="st0" d="M138.52,102.32c1.18,0,2.14-0.96,2.14-2.14c0-1.18-0.96-2.14-2.14-2.14s-2.14,0.96-2.14,2.14
	C136.38,101.36,137.34,102.32,138.52,102.32z"/>
<path class="st0" d="M138.52,106.6c1.18,0,2.14-0.96,2.14-2.14s-0.96-2.14-2.14-2.14s-2.14,0.96-2.14,2.14
	S137.34,106.6,138.52,106.6z"/>
<path class="st0" d="M138.52,115.16c1.18,0,2.14-0.96,2.14-2.14c0-1.18-0.96-2.14-2.14-2.14s-2.14,0.96-2.14,2.14
	C136.38,114.2,137.34,115.16,138.52,115.16z"/>
<path class="st0" d="M138.52,123.72c1.18,0,2.14-0.96,2.14-2.14c0-1.18-0.96-2.14-2.14-2.14s-2.14,0.96-2.14,2.14
	C136.38,122.76,137.34,123.72,138.52,123.72z"/>
<path class="st0" d="M138.52,132.28c1.18,0,2.14-0.96,2.14-2.14s-0.96-2.14-2.14-2.14s-2.14,0.96-2.14,2.14
	S137.34,132.28,138.52,132.28z"/>
<path class="st0" d="M142.8,55.22c1.18,0,2.14-0.96,2.14-2.14c0-1.18-0.96-2.14-2.14-2.14c-1.18,0-2.14,0.96-2.14,2.14
	C140.66,54.26,141.62,55.22,142.8,55.22z"/>
<path class="st0" d="M142.8,59.5c1.18,0,2.14-0.96,2.14-2.14c0-1.18-0.96-2.14-2.14-2.14c-1.18,0-2.14,0.96-2.14,2.14
	C140.66,58.55,141.62,59.5,142.8,59.5z"/>
<path class="st0" d="M142.8,68.07c1.18,0,2.14-0.96,2.14-2.14s-0.96-2.14-2.14-2.14c-1.18,0-2.14,0.96-2.14,2.14
	S141.62,68.07,142.8,68.07z"/>
<path class="st0" d="M142.8,76.63c1.18,0,2.14-0.96,2.14-2.14c0-1.18-0.96-2.14-2.14-2.14c-1.18,0-2.14,0.96-2.14,2.14
	C140.66,75.67,141.62,76.63,142.8,76.63z"/>
<path class="st0" d="M142.8,85.19c1.18,0,2.14-0.96,2.14-2.14c0-1.18-0.96-2.14-2.14-2.14c-1.18,0-2.14,0.96-2.14,2.14
	C140.66,84.23,141.62,85.19,142.8,85.19z"/>
<path class="st0" d="M142.8,89.47c1.18,0,2.14-0.96,2.14-2.14c0-1.18-0.96-2.14-2.14-2.14c-1.18,0-2.14,0.96-2.14,2.14
	C140.66,88.51,141.62,89.47,142.8,89.47z"/>
<path class="st0" d="M142.8,98.03c1.18,0,2.14-0.96,2.14-2.14c0-1.18-0.96-2.14-2.14-2.14c-1.18,0-2.14,0.96-2.14,2.14
	C140.66,97.08,141.62,98.03,142.8,98.03z"/>
<path class="st0" d="M142.8,102.32c1.18,0,2.14-0.96,2.14-2.14c0-1.18-0.96-2.14-2.14-2.14c-1.18,0-2.14,0.96-2.14,2.14
	C140.66,101.36,141.62,102.32,142.8,102.32z"/>
<path class="st0" d="M142.8,106.6c1.18,0,2.14-0.96,2.14-2.14s-0.96-2.14-2.14-2.14c-1.18,0-2.14,0.96-2.14,2.14
	S141.62,106.6,142.8,106.6z"/>
<path class="st0" d="M142.8,123.72c1.18,0,2.14-0.96,2.14-2.14c0-1.18-0.96-2.14-2.14-2.14c-1.18,0-2.14,0.96-2.14,2.14
	C140.66,122.76,141.62,123.72,142.8,123.72z"/>
<path class="st0" d="M142.8,128c1.18,0,2.14-0.96,2.14-2.14c0-1.18-0.96-2.14-2.14-2.14c-1.18,0-2.14,0.96-2.14,2.14
	C140.66,127.04,141.62,128,142.8,128z"/>
<path class="st0" d="M142.8,136.57c1.18,0,2.14-0.96,2.14-2.14c0-1.18-0.96-2.14-2.14-2.14c-1.18,0-2.14,0.96-2.14,2.14
	C140.66,135.61,141.62,136.57,142.8,136.57z"/>
<path class="st0" d="M147.09,55.22c1.18,0,2.14-0.96,2.14-2.14c0-1.18-0.96-2.14-2.14-2.14c-1.18,0-2.14,0.96-2.14,2.14
	C144.94,54.26,145.9,55.22,147.09,55.22z"/>
<path class="st0" d="M147.09,59.5c1.18,0,2.14-0.96,2.14-2.14c0-1.18-0.96-2.14-2.14-2.14c-1.18,0-2.14,0.96-2.14,2.14
	C144.94,58.55,145.9,59.5,147.09,59.5z"/>
<path class="st0" d="M147.09,68.07c1.18,0,2.14-0.96,2.14-2.14s-0.96-2.14-2.14-2.14c-1.18,0-2.14,0.96-2.14,2.14
	S145.9,68.07,147.09,68.07z"/>
<path class="st0" d="M147.09,80.91c1.18,0,2.14-0.96,2.14-2.14c0-1.18-0.96-2.14-2.14-2.14c-1.18,0-2.14,0.96-2.14,2.14
	C144.94,79.95,145.9,80.91,147.09,80.91z"/>
<path class="st0" d="M147.09,85.19c1.18,0,2.14-0.96,2.14-2.14c0-1.18-0.96-2.14-2.14-2.14c-1.18,0-2.14,0.96-2.14,2.14
	C144.94,84.23,145.9,85.19,147.09,85.19z"/>
<path class="st0" d="M147.09,93.75c1.18,0,2.14-0.96,2.14-2.14c0-1.18-0.96-2.14-2.14-2.14c-1.18,0-2.14,0.96-2.14,2.14
	C144.94,92.8,145.9,93.75,147.09,93.75z"/>
<path class="st0" d="M147.09,102.32c1.18,0,2.14-0.96,2.14-2.14c0-1.18-0.96-2.14-2.14-2.14c-1.18,0-2.14,0.96-2.14,2.14
	C144.94,101.36,145.9,102.32,147.09,102.32z"/>
<path class="st0" d="M147.09,106.6c1.18,0,2.14-0.96,2.14-2.14s-0.96-2.14-2.14-2.14c-1.18,0-2.14,0.96-2.14,2.14
	S145.9,106.6,147.09,106.6z"/>
<path class="st0" d="M147.09,110.88c1.18,0,2.14-0.96,2.14-2.14c0-1.18-0.96-2.14-2.14-2.14c-1.18,0-2.14,0.96-2.14,2.14
	C144.94,109.92,145.9,110.88,147.09,110.88z"/>
<path class="st0" d="M147.09,115.16c1.18,0,2.14-0.96,2.14-2.14c0-1.18-0.96-2.14-2.14-2.14c-1.18,0-2.14,0.96-2.14,2.14
	C144.94,114.2,145.9,115.16,147.09,115.16z"/>
<path class="st0" d="M147.09,119.44c1.18,0,2.14-0.96,2.14-2.14s-0.96-2.14-2.14-2.14c-1.18,0-2.14,0.96-2.14,2.14
	S145.9,119.44,147.09,119.44z"/>
<path class="st0" d="M147.09,123.72c1.18,0,2.14-0.96,2.14-2.14c0-1.18-0.96-2.14-2.14-2.14c-1.18,0-2.14,0.96-2.14,2.14
	C144.94,122.76,145.9,123.72,147.09,123.72z"/>
<path class="st0" d="M151.37,55.22c1.18,0,2.14-0.96,2.14-2.14c0-1.18-0.96-2.14-2.14-2.14s-2.14,0.96-2.14,2.14
	C149.23,54.26,150.18,55.22,151.37,55.22z"/>
<path class="st0" d="M151.37,68.07c1.18,0,2.14-0.96,2.14-2.14s-0.96-2.14-2.14-2.14s-2.14,0.96-2.14,2.14
	S150.18,68.07,151.37,68.07z"/>
<path class="st0" d="M151.37,76.63c1.18,0,2.14-0.96,2.14-2.14c0-1.18-0.96-2.14-2.14-2.14s-2.14,0.96-2.14,2.14
	C149.23,75.67,150.18,76.63,151.37,76.63z"/>
<path class="st0" d="M151.37,80.91c1.18,0,2.14-0.96,2.14-2.14c0-1.18-0.96-2.14-2.14-2.14s-2.14,0.96-2.14,2.14
	C149.23,79.95,150.18,80.91,151.37,80.91z"/>
<path class="st0" d="M151.37,93.75c1.18,0,2.14-0.96,2.14-2.14c0-1.18-0.96-2.14-2.14-2.14s-2.14,0.96-2.14,2.14
	C149.23,92.8,150.18,93.75,151.37,93.75z"/>
<path class="st0" d="M151.37,98.03c1.18,0,2.14-0.96,2.14-2.14c0-1.18-0.96-2.14-2.14-2.14s-2.14,0.96-2.14,2.14
	C149.23,97.08,150.18,98.03,151.37,98.03z"/>
<path class="st0" d="M151.37,119.44c1.18,0,2.14-0.96,2.14-2.14s-0.96-2.14-2.14-2.14s-2.14,0.96-2.14,2.14
	S150.18,119.44,151.37,119.44z"/>
<path class="st0" d="M151.37,128c1.18,0,2.14-0.96,2.14-2.14c0-1.18-0.96-2.14-2.14-2.14s-2.14,0.96-2.14,2.14
	C149.23,127.04,150.18,128,151.37,128z"/>
<path class="st0" d="M151.37,132.28c1.18,0,2.14-0.96,2.14-2.14s-0.96-2.14-2.14-2.14s-2.14,0.96-2.14,2.14
	S150.18,132.28,151.37,132.28z"/>
<path class="st0" d="M151.37,136.57c1.18,0,2.14-0.96,2.14-2.14c0-1.18-0.96-2.14-2.14-2.14s-2.14,0.96-2.14,2.14
	C149.23,135.61,150.18,136.57,151.37,136.57z"/>
<path class="st0" d="M155.65,59.5c1.18,0,2.14-0.96,2.14-2.14c0-1.18-0.96-2.14-2.14-2.14s-2.14,0.96-2.14,2.14
	C153.51,58.55,154.47,59.5,155.65,59.5z"/>
<path class="st0" d="M155.65,63.79c1.18,0,2.14-0.96,2.14-2.14s-0.96-2.14-2.14-2.14s-2.14,0.96-2.14,2.14
	S154.47,63.79,155.65,63.79z"/>
<path class="st0" d="M155.65,68.07c1.18,0,2.14-0.96,2.14-2.14s-0.96-2.14-2.14-2.14s-2.14,0.96-2.14,2.14
	S154.47,68.07,155.65,68.07z"/>
<path class="st0" d="M155.65,72.35c1.18,0,2.14-0.96,2.14-2.14c0-1.18-0.96-2.14-2.14-2.14s-2.14,0.96-2.14,2.14
	C153.51,71.39,154.47,72.35,155.65,72.35z"/>
<path class="st0" d="M155.65,76.63c1.18,0,2.14-0.96,2.14-2.14c0-1.18-0.96-2.14-2.14-2.14s-2.14,0.96-2.14,2.14
	C153.51,75.67,154.47,76.63,155.65,76.63z"/>
<path class="st0" d="M155.65,85.19c1.18,0,2.14-0.96,2.14-2.14c0-1.18-0.96-2.14-2.14-2.14s-2.14,0.96-2.14,2.14
	C153.51,84.23,154.47,85.19,155.65,85.19z"/>
<path class="st0" d="M155.65,93.75c1.18,0,2.14-0.96,2.14-2.14c0-1.18-0.96-2.14-2.14-2.14s-2.14,0.96-2.14,2.14
	C153.51,92.8,154.47,93.75,155.65,93.75z"/>
<path class="st0" d="M155.65,106.6c1.18,0,2.14-0.96,2.14-2.14s-0.96-2.14-2.14-2.14s-2.14,0.96-2.14,2.14
	S154.47,106.6,155.65,106.6z"/>
<path class="st0" d="M155.65,110.88c1.18,0,2.14-0.96,2.14-2.14c0-1.18-0.96-2.14-2.14-2.14s-2.14,0.96-2.14,2.14
	C153.51,109.92,154.47,110.88,155.65,110.88z"/>
<path class="st0" d="M155.65,119.44c1.18,0,2.14-0.96,2.14-2.14s-0.96-2.14-2.14-2.14s-2.14,0.96-2.14,2.14
	S154.47,119.44,155.65,119.44z"/>
<path class="st0" d="M155.65,123.72c1.18,0,2.14-0.96,2.14-2.14c0-1.18-0.96-2.14-2.14-2.14s-2.14,0.96-2.14,2.14
	C153.51,122.76,154.47,123.72,155.65,123.72z"/>
<path class="st0" d="M155.65,132.28c1.18,0,2.14-0.96,2.14-2.14s-0.96-2.14-2.14-2.14s-2.14,0.96-2.14,2.14
	S154.47,132.28,155.65,132.28z"/>
<path class="st0" d="M155.65,136.57c1.18,0,2.14-0.96,2.14-2.14c0-1.18-0.96-2.14-2.14-2.14s-2.14,0.96-2.14,2.14
	C153.51,135.61,154.47,136.57,155.65,136.57z"/>
<path class="st0" d="M155.65,140.85c1.18,0,2.14-0.96,2.14-2.14c0-1.18-0.96-2.14-2.14-2.14s-2.14,0.96-2.14,2.14
	C153.51,139.89,154.47,140.85,155.65,140.85z"/>
<path class="st0" d="M159.93,55.22c1.18,0,2.14-0.96,2.14-2.14c0-1.18-0.96-2.14-2.14-2.14c-1.18,0-2.14,0.96-2.14,2.14
	C157.79,54.26,158.75,55.22,159.93,55.22z"/>
<path class="st0" d="M159.93,59.5c1.18,0,2.14-0.96,2.14-2.14c0-1.18-0.96-2.14-2.14-2.14c-1.18,0-2.14,0.96-2.14,2.14
	C157.79,58.55,158.75,59.5,159.93,59.5z"/>
<path class="st0" d="M159.93,63.79c1.18,0,2.14-0.96,2.14-2.14s-0.96-2.14-2.14-2.14c-1.18,0-2.14,0.96-2.14,2.14
	S158.75,63.79,159.93,63.79z"/>
<path class="st0" d="M159.93,72.35c1.18,0,2.14-0.96,2.14-2.14c0-1.18-0.96-2.14-2.14-2.14c-1.18,0-2.14,0.96-2.14,2.14
	C157.79,71.39,158.75,72.35,159.93,72.35z"/>
<path class="st0" d="M159.93,89.47c1.18,0,2.14-0.96,2.14-2.14c0-1.18-0.96-2.14-2.14-2.14c-1.18,0-2.14,0.96-2.14,2.14
	C157.79,88.51,158.75,89.47,159.93,89.47z"/>
<path class="st0" d="M159.93,98.03c1.18,0,2.14-0.96,2.14-2.14c0-1.18-0.96-2.14-2.14-2.14c-1.18,0-2.14,0.96-2.14,2.14
	C157.79,97.08,158.75,98.03,159.93,98.03z"/>
<path class="st0" d="M159.93,102.32c1.18,0,2.14-0.96,2.14-2.14c0-1.18-0.96-2.14-2.14-2.14c-1.18,0-2.14,0.96-2.14,2.14
	C157.79,101.36,158.75,102.32,159.93,102.32z"/>
<path class="st0" d="M159.93,115.16c1.18,0,2.14-0.96,2.14-2.14c0-1.18-0.96-2.14-2.14-2.14c-1.18,0-2.14,0.96-2.14,2.14
	C157.79,114.2,158.75,115.16,159.93,115.16z"/>
<path class="st0" d="M159.93,123.72c1.18,0,2.14-0.96,2.14-2.14c0-1.18-0.96-2.14-2.14-2.14c-1.18,0-2.14,0.96-2.14,2.14
	C157.79,122.76,158.75,123.72,159.93,123.72z"/>
<path class="st0" d="M159.93,128c1.18,0,2.14-0.96,2.14-2.14c0-1.18-0.96-2.14-2.14-2.14c-1.18,0-2.14,0.96-2.14,2.14
	C157.79,127.04,158.75,128,159.93,128z"/>
<path class="st0" d="M159.93,132.28c1.18,0,2.14-0.96,2.14-2.14s-0.96-2.14-2.14-2.14c-1.18,0-2.14,0.96-2.14,2.14
	S158.75,132.28,159.93,132.28z"/>
<path class="st0" d="M159.93,140.85c1.18,0,2.14-0.96,2.14-2.14c0-1.18-0.96-2.14-2.14-2.14c-1.18,0-2.14,0.96-2.14,2.14
	C157.79,139.89,158.75,140.85,159.93,140.85z"/>
<path class="st0" d="M164.21,63.79c1.18,0,2.14-0.96,2.14-2.14s-0.96-2.14-2.14-2.14c-1.18,0-2.14,0.96-2.14,2.14
	S163.03,63.79,164.21,63.79z"/>
<path class="st0" d="M164.21,72.35c1.18,0,2.14-0.96,2.14-2.14c0-1.18-0.96-2.14-2.14-2.14c-1.18,0-2.14,0.96-2.14,2.14
	C162.07,71.39,163.03,72.35,164.21,72.35z"/>
<path class="st0" d="M164.21,85.19c1.18,0,2.14-0.96,2.14-2.14c0-1.18-0.96-2.14-2.14-2.14c-1.18,0-2.14,0.96-2.14,2.14
	C162.07,84.23,163.03,85.19,164.21,85.19z"/>
<path class="st0" d="M164.21,102.32c1.18,0,2.14-0.96,2.14-2.14c0-1.18-0.96-2.14-2.14-2.14c-1.18,0-2.14,0.96-2.14,2.14
	C162.07,101.36,163.03,102.32,164.21,102.32z"/>
<path class="st0" d="M164.21,106.6c1.18,0,2.14-0.96,2.14-2.14s-0.96-2.14-2.14-2.14c-1.18,0-2.14,0.96-2.14,2.14
	S163.03,106.6,164.21,106.6z"/>
<path class="st0" d="M164.21,119.44c1.18,0,2.14-0.96,2.14-2.14s-0.96-2.14-2.14-2.14c-1.18,0-2.14,0.96-2.14,2.14
	S163.03,119.44,164.21,119.44z"/>
<path class="st0" d="M164.21,123.72c1.18,0,2.14-0.96,2.14-2.14c0-1.18-0.96-2.14-2.14-2.14c-1.18,0-2.14,0.96-2.14,2.14
	C162.07,122.76,163.03,123.72,164.21,123.72z"/>
<path class="st0" d="M44.34,20.97c1.18,0,2.14-0.96,2.14-2.14c0-1.18-0.96-2.14-2.14-2.14c-1.18,0-2.14,0.96-2.14,2.14
	C42.2,20.02,43.15,20.97,44.34,20.97z"/>
<path class="st0" d="M44.34,25.25c1.18,0,2.14-0.96,2.14-2.14c0-1.18-0.96-2.14-2.14-2.14c-1.18,0-2.14,0.96-2.14,2.14
	C42.2,24.3,43.15,25.25,44.34,25.25z"/>
<path class="st0" d="M44.34,29.54c1.18,0,2.14-0.96,2.14-2.14c0-1.18-0.96-2.14-2.14-2.14c-1.18,0-2.14,0.96-2.14,2.14
	C42.2,28.58,43.15,29.54,44.34,29.54z"/>
<path class="st0" d="M44.34,33.82c1.18,0,2.14-0.96,2.14-2.14c0-1.18-0.96-2.14-2.14-2.14c-1.18,0-2.14,0.96-2.14,2.14
	C42.2,32.86,43.15,33.82,44.34,33.82z"/>
<path class="st0" d="M44.34,38.1c1.18,0,2.14-0.96,2.14-2.14c0-1.18-0.96-2.14-2.14-2.14c-1.18,0-2.14,0.96-2.14,2.14
	C42.2,37.14,43.15,38.1,44.34,38.1z"/>
<path class="st0" d="M44.34,42.38c1.18,0,2.14-0.96,2.14-2.14c0-1.18-0.96-2.14-2.14-2.14c-1.18,0-2.14,0.96-2.14,2.14
	C42.2,41.42,43.15,42.38,44.34,42.38z"/>
<path class="st0" d="M44.34,46.66c1.18,0,2.14-0.96,2.14-2.14c0-1.18-0.96-2.14-2.14-2.14c-1.18,0-2.14,0.96-2.14,2.14
	C42.2,45.7,43.15,46.66,44.34,46.66z"/>
<path class="st0" d="M48.62,20.97c1.18,0,2.14-0.96,2.14-2.14c0-1.18-0.96-2.14-2.14-2.14c-1.18,0-2.14,0.96-2.14,2.14
	C46.48,20.02,47.44,20.97,48.62,20.97z"/>
<path class="st0" d="M48.62,46.66c1.18,0,2.14-0.96,2.14-2.14c0-1.18-0.96-2.14-2.14-2.14c-1.18,0-2.14,0.96-2.14,2.14
	C46.48,45.7,47.44,46.66,48.62,46.66z"/>
<path class="st0" d="M52.9,20.97c1.18,0,2.14-0.96,2.14-2.14c0-1.18-0.96-2.14-2.14-2.14c-1.18,0-2.14,0.96-2.14,2.14
	C50.76,20.02,51.72,20.97,52.9,20.97z"/>
<path class="st0" d="M52.9,46.66c1.18,0,2.14-0.96,2.14-2.14c0-1.18-0.96-2.14-2.14-2.14c-1.18,0-2.14,0.96-2.14,2.14
	C50.76,45.7,51.72,46.66,52.9,46.66z"/>
<path class="st0" d="M57.18,20.97c1.18,0,2.14-0.96,2.14-2.14c0-1.18-0.96-2.14-2.14-2.14s-2.14,0.96-2.14,2.14
	C55.04,20.02,56,20.97,57.18,20.97z"/>
<path class="st0" d="M57.18,46.66c1.18,0,2.14-0.96,2.14-2.14c0-1.18-0.96-2.14-2.14-2.14s-2.14,0.96-2.14,2.14
	C55.04,45.7,56,46.66,57.18,46.66z"/>
<path class="st0" d="M61.46,20.97c1.18,0,2.14-0.96,2.14-2.14c0-1.18-0.96-2.14-2.14-2.14c-1.18,0-2.14,0.96-2.14,2.14
	C59.32,20.02,60.28,20.97,61.46,20.97z"/>
<path class="st0" d="M61.46,46.66c1.18,0,2.14-0.96,2.14-2.14c0-1.18-0.96-2.14-2.14-2.14c-1.18,0-2.14,0.96-2.14,2.14
	C59.32,45.7,60.28,46.66,61.46,46.66z"/>
<path class="st0" d="M65.74,20.97c1.18,0,2.14-0.96,2.14-2.14c0-1.18-0.96-2.14-2.14-2.14c-1.18,0-2.14,0.96-2.14,2.14
	C63.6,20.02,64.56,20.97,65.74,20.97z"/>
<path class="st0" d="M65.74,46.66c1.18,0,2.14-0.96,2.14-2.14c0-1.18-0.96-2.14-2.14-2.14c-1.18,0-2.14,0.96-2.14,2.14
	C63.6,45.7,64.56,46.66,65.74,46.66z"/>
<path class="st0" d="M70.02,20.97c1.18,0,2.14-0.96,2.14-2.14c0-1.18-0.96-2.14-2.14-2.14s-2.14,0.96-2.14,2.14
	C67.88,20.02,68.84,20.97,70.02,20.97z"/>
<path class="st0" d="M70.02,25.25c1.18,0,2.14-0.96,2.14-2.14c0-1.18-0.96-2.14-2.14-2.14s-2.14,0.96-2.14,2.14
	C67.88,24.3,68.84,25.25,70.02,25.25z"/>
<path class="st0" d="M70.02,29.54c1.18,0,2.14-0.96,2.14-2.14c0-1.18-0.96-2.14-2.14-2.14s-2.14,0.96-2.14,2.14
	C67.88,28.58,68.84,29.54,70.02,29.54z"/>
<path class="st0" d="M70.02,33.82c1.18,0,2.14-0.96,2.14-2.14c0-1.18-0.96-2.14-2.14-2.14s-2.14,0.96-2.14,2.14
	C67.88,32.86,68.84,33.82,70.02,33.82z"/>
<path class="st0" d="M70.02,38.1c1.18,0,2.14-0.96,2.14-2.14c0-1.18-0.96-2.14-2.14-2.14s-2.14,0.96-2.14,2.14
	C67.88,37.14,68.84,38.1,70.02,38.1z"/>
<path class="st0" d="M70.02,42.38c1.18,0,2.14-0.96,2.14-2.14c0-1.18-0.96-2.14-2.14-2.14s-2.14,0.96-2.14,2.14
	C67.88,41.42,68.84,42.38,70.02,42.38z"/>
<path class="st0" d="M70.02,46.66c1.18,0,2.14-0.96,2.14-2.14c0-1.18-0.96-2.14-2.14-2.14s-2.14,0.96-2.14,2.14
	C67.88,45.7,68.84,46.66,70.02,46.66z"/>
<path class="st0" d="M52.9,29.54c1.18,0,2.14-0.96,2.14-2.14c0-1.18-0.96-2.14-2.14-2.14c-1.18,0-2.14,0.96-2.14,2.14
	C50.76,28.58,51.72,29.54,52.9,29.54z"/>
<path class="st0" d="M52.9,33.82c1.18,0,2.14-0.96,2.14-2.14c0-1.18-0.96-2.14-2.14-2.14c-1.18,0-2.14,0.96-2.14,2.14
	C50.76,32.86,51.72,33.82,52.9,33.82z"/>
<path class="st0" d="M52.9,38.1c1.18,0,2.14-0.96,2.14-2.14c0-1.18-0.96-2.14-2.14-2.14c-1.18,0-2.14,0.96-2.14,2.14
	C50.76,37.14,51.72,38.1,52.9,38.1z"/>
<path class="st0" d="M57.18,29.54c1.18,0,2.14-0.96,2.14-2.14c0-1.18-0.96-2.14-2.14-2.14s-2.14,0.96-2.14,2.14
	C55.04,28.58,56,29.54,57.18,29.54z"/>
<path class="st0" d="M57.18,33.82c1.18,0,2.14-0.96,2.14-2.14c0-1.18-0.96-2.14-2.14-2.14s-2.14,0.96-2.14,2.14
	C55.04,32.86,56,33.82,57.18,33.82z"/>
<path class="st0" d="M57.18,38.1c1.18,0,2.14-0.96,2.14-2.14c0-1.18-0.96-2.14-2.14-2.14s-2.14,0.96-2.14,2.14
	C55.04,37.14,56,38.1,57.18,38.1z"/>
<path class="st0" d="M61.46,29.54c1.18,0,2.14-0.96,2.14-2.14c0-1.18-0.96-2.14-2.14-2.14c-1.18,0-2.14,0.96-2.14,2.14
	C59.32,28.58,60.28,29.54,61.46,29.54z"/>
<path class="st0" d="M61.46,33.82c1.18,0,2.14-0.96,2.14-2.14c0-1.18-0.96-2.14-2.14-2.14c-1.18,0-2.14,0.96-2.14,2.14
	C59.32,32.86,60.28,33.82,61.46,33.82z"/>
<path class="st0" d="M61.46,38.1c1.18,0,2.14-0.96,2.14-2.14c0-1.18-0.96-2.14-2.14-2.14c-1.18,0-2.14,0.96-2.14,2.14
	C59.32,37.14,60.28,38.1,61.46,38.1z"/>
<path class="st0" d="M138.52,20.97c1.18,0,2.14-0.96,2.14-2.14c0-1.18-0.96-2.14-2.14-2.14s-2.14,0.96-2.14,2.14
	C136.38,20.02,137.34,20.97,138.52,20.97z"/>
<path class="st0" d="M138.52,25.25c1.18,0,2.14-0.96,2.14-2.14c0-1.18-0.96-2.14-2.14-2.14s-2.14,0.96-2.14,2.14
	C136.38,24.3,137.34,25.25,138.52,25.25z"/>
<path class="st0" d="M138.52,29.54c1.18,0,2.14-0.96,2.14-2.14c0-1.18-0.96-2.14-2.14-2.14s-2.14,0.96-2.14,2.14
	C136.38,28.58,137.34,29.54,138.52,29.54z"/>
<path class="st0" d="M138.52,33.82c1.18,0,2.14-0.96,2.14-2.14c0-1.18-0.96-2.14-2.14-2.14s-2.14,0.96-2.14,2.14
	C136.38,32.86,137.34,33.82,138.52,33.82z"/>
<path class="st0" d="M138.52,38.1c1.18,0,2.14-0.96,2.14-2.14c0-1.18-0.96-2.14-2.14-2.14s-2.14,0.96-2.14,2.14
	C136.38,37.14,137.34,38.1,138.52,38.1z"/>
<path class="st0" d="M138.52,42.38c1.18,0,2.14-0.96,2.14-2.14c0-1.18-0.96-2.14-2.14-2.14s-2.14,0.96-2.14,2.14
	C136.38,41.42,137.34,42.38,138.52,42.38z"/>
<path class="st0" d="M138.52,46.66c1.18,0,2.14-0.96,2.14-2.14c0-1.18-0.96-2.14-2.14-2.14s-2.14,0.96-2.14,2.14
	C136.38,45.7,137.34,46.66,138.52,46.66z"/>
<path class="st0" d="M142.8,20.97c1.18,0,2.14-0.96,2.14-2.14c0-1.18-0.96-2.14-2.14-2.14c-1.18,0-2.14,0.96-2.14,2.14
	C140.66,20.02,141.62,20.97,142.8,20.97z"/>
<path class="st0" d="M142.8,46.66c1.18,0,2.14-0.96,2.14-2.14c0-1.18-0.96-2.14-2.14-2.14c-1.18,0-2.14,0.96-2.14,2.14
	C140.66,45.7,141.62,46.66,142.8,46.66z"/>
<path class="st0" d="M147.09,20.97c1.18,0,2.14-0.96,2.14-2.14c0-1.18-0.96-2.14-2.14-2.14c-1.18,0-2.14,0.96-2.14,2.14
	C144.94,20.02,145.9,20.97,147.09,20.97z"/>
<path class="st0" d="M147.09,46.66c1.18,0,2.14-0.96,2.14-2.14c0-1.18-0.96-2.14-2.14-2.14c-1.18,0-2.14,0.96-2.14,2.14
	C144.94,45.7,145.9,46.66,147.09,46.66z"/>
<path class="st0" d="M151.37,20.97c1.18,0,2.14-0.96,2.14-2.14c0-1.18-0.96-2.14-2.14-2.14s-2.14,0.96-2.14,2.14
	C149.23,20.02,150.18,20.97,151.37,20.97z"/>
<path class="st0" d="M151.37,46.66c1.18,0,2.14-0.96,2.14-2.14c0-1.18-0.96-2.14-2.14-2.14s-2.14,0.96-2.14,2.14
	C149.23,45.7,150.18,46.66,151.37,46.66z"/>
<path class="st0" d="M155.65,20.97c1.18,0,2.14-0.96,2.14-2.14c0-1.18-0.96-2.14-2.14-2.14s-2.14,0.96-2.14,2.14
	C153.51,20.02,154.47,20.97,155.65,20.97z"/>
<path class="st0" d="M155.65,46.66c1.18,0,2.14-0.96,2.14-2.14c0-1.18-0.96-2.14-2.14-2.14s-2.14,0.96-2.14,2.14
	C153.51,45.7,154.47,46.66,155.65,46.66z"/>
<path class="st0" d="M159.93,20.97c1.18,0,2.14-0.96,2.14-2.14c0-1.18-0.96-2.14-2.14-2.14c-1.18,0-2.14,0.96-2.14,2.14
	C157.79,20.02,158.75,20.97,159.93,20.97z"/>
<path class="st0" d="M159.93,46.66c1.18,0,2.14-0.96,2.14-2.14c0-1.18-0.96-2.14-2.14-2.14c-1.18,0-2.14,0.96-2.14,2.14
	C157.79,45.7,158.75,46.66,159.93,46.66z"/>
<path class="st0" d="M164.21,20.97c1.18,0,2.14-0.96,2.14-2.14c0-1.18-0.96-2.14-2.14-2.14c-1.18,0-2.14,0.96-2.14,2.14
	C162.07,20.02,163.03,20.97,164.21,20.97z"/>
<path class="st0" d="M164.21,25.25c1.18,0,2.14-0.96,2.14-2.14c0-1.18-0.96-2.14-2.14-2.14c-1.18,0-2.14,0.96-2.14,2.14
	C162.07,24.3,163.03,25.25,164.21,25.25z"/>
<path class="st0" d="M164.21,29.54c1.18,0,2.14-0.96,2.14-2.14c0-1.18-0.96-2.14-2.14-2.14c-1.18,0-2.14,0.96-2.14,2.14
	C162.07,28.58,163.03,29.54,164.21,29.54z"/>
<path class="st0" d="M164.21,33.82c1.18,0,2.14-0.96,2.14-2.14c0-1.18-0.96-2.14-2.14-2.14c-1.18,0-2.14,0.96-2.14,2.14
	C162.07,32.86,163.03,33.82,164.21,33.82z"/>
<path class="st0" d="M164.21,38.1c1.18,0,2.14-0.96,2.14-2.14c0-1.18-0.96-2.14-2.14-2.14c-1.18,0-2.14,0.96-2.14,2.14
	C162.07,37.14,163.03,38.1,164.21,38.1z"/>
<path class="st0" d="M164.21,42.38c1.18,0,2.14-0.96,2.14-2.14c0-1.18-0.96-2.14-2.14-2.14c-1.18,0-2.14,0.96-2.14,2.14
	C162.07,41.42,163.03,42.38,164.21,42.38z"/>
<path class="st0" d="M164.21,46.66c1.18,0,2.14-0.96,2.14-2.14c0-1.18-0.96-2.14-2.14-2.14c-1.18,0-2.14,0.96-2.14,2.14
	C162.07,45.7,163.03,46.66,164.21,46.66z"/>
<path class="st0" d="M147.09,29.54c1.18,0,2.14-0.96,2.14-2.14c0-1.18-0.96-2.14-2.14-2.14c-1.18,0-2.14,0.96-2.14,2.14
	C144.94,28.58,145.9,29.54,147.09,29.54z"/>
<path class="st0" d="M147.09,33.82c1.18,0,2.14-0.96,2.14-2.14c0-1.18-0.96-2.14-2.14-2.14c-1.18,0-2.14,0.96-2.14,2.14
	C144.94,32.86,145.9,33.82,147.09,33.82z"/>
<path class="st0" d="M147.09,38.1c1.18,0,2.14-0.96,2.14-2.14c0-1.18-0.96-2.14-2.14-2.14c-1.18,0-2.14,0.96-2.14,2.14
	C144.94,37.14,145.9,38.1,147.09,38.1z"/>
<path class="st0" d="M151.37,29.54c1.18,0,2.14-0.96,2.14-2.14c0-1.18-0.96-2.14-2.14-2.14s-2.14,0.96-2.14,2.14
	C149.23,28.58,150.18,29.54,151.37,29.54z"/>
<path class="st0" d="M151.37,33.82c1.18,0,2.14-0.96,2.14-2.14c0-1.18-0.96-2.14-2.14-2.14s-2.14,0.96-2.14,2.14
	C149.23,32.86,150.18,33.82,151.37,33.82z"/>
<path class="st0" d="M151.37,38.1c1.18,0,2.14-0.96,2.14-2.14c0-1.18-0.96-2.14-2.14-2.14s-2.14,0.96-2.14,2.14
	C149.23,37.14,150.18,38.1,151.37,38.1z"/>
<path class="st0" d="M155.65,29.54c1.18,0,2.14-0.96,2.14-2.14c0-1.18-0.96-2.14-2.14-2.14s-2.14,0.96-2.14,2.14
	C153.51,28.58,154.47,29.54,155.65,29.54z"/>
<path class="st0" d="M155.65,33.82c1.18,0,2.14-0.96,2.14-2.14c0-1.18-0.96-2.14-2.14-2.14s-2.14,0.96-2.14,2.14
	C153.51,32.86,154.47,33.82,155.65,33.82z"/>
<path class="st0" d="M155.65,38.1c1.18,0,2.14-0.96,2.14-2.14c0-1.18-0.96-2.14-2.14-2.14s-2.14,0.96-2.14,2.14
	C153.51,37.14,154.47,38.1,155.65,38.1z"/>
<path class="st0" d="M44.34,115.16c1.18,0,2.14-0.96,2.14-2.14c0-1.18-0.96-2.14-2.14-2.14c-1.18,0-2.14,0.96-2.14,2.14
	C42.2,114.2,43.15,115.16,44.34,115.16z"/>
<path class="st0" d="M44.34,119.44c1.18,0,2.14-0.96,2.14-2.14s-0.96-2.14-2.14-2.14c-1.18,0-2.14,0.96-2.14,2.14
	S43.15,119.44,44.34,119.44z"/>
<path class="st0" d="M44.34,123.72c1.18,0,2.14-0.96,2.14-2.14c0-1.18-0.96-2.14-2.14-2.14c-1.18,0-2.14,0.96-2.14,2.14
	C42.2,122.76,43.15,123.72,44.34,123.72z"/>
<path class="st0" d="M44.34,128c1.18,0,2.14-0.96,2.14-2.14c0-1.18-0.96-2.14-2.14-2.14c-1.18,0-2.14,0.96-2.14,2.14
	C42.2,127.04,43.15,128,44.34,128z"/>
<path class="st0" d="M44.34,132.28c1.18,0,2.14-0.96,2.14-2.14S45.52,128,44.34,128c-1.18,0-2.14,0.96-2.14,2.14
	S43.15,132.28,44.34,132.28z"/>
<path class="st0" d="M44.34,136.57c1.18,0,2.14-0.96,2.14-2.14c0-1.18-0.96-2.14-2.14-2.14c-1.18,0-2.14,0.96-2.14,2.14
	C42.2,135.61,43.15,136.57,44.34,136.57z"/>
<path class="st0" d="M44.34,140.85c1.18,0,2.14-0.96,2.14-2.14c0-1.18-0.96-2.14-2.14-2.14c-1.18,0-2.14,0.96-2.14,2.14
	C42.2,139.89,43.15,140.85,44.34,140.85z"/>
<path class="st0" d="M48.62,115.16c1.18,0,2.14-0.96,2.14-2.14c0-1.18-0.96-2.14-2.14-2.14c-1.18,0-2.14,0.96-2.14,2.14
	C46.48,114.2,47.44,115.16,48.62,115.16z"/>
<path class="st0" d="M48.62,140.85c1.18,0,2.14-0.96,2.14-2.14c0-1.18-0.96-2.14-2.14-2.14c-1.18,0-2.14,0.96-2.14,2.14
	C46.48,139.89,47.44,140.85,48.62,140.85z"/>
<path class="st0" d="M52.9,115.16c1.18,0,2.14-0.96,2.14-2.14c0-1.18-0.96-2.14-2.14-2.14c-1.18,0-2.14,0.96-2.14,2.14
	C50.76,114.2,51.72,115.16,52.9,115.16z"/>
<path class="st0" d="M52.9,140.85c1.18,0,2.14-0.96,2.14-2.14c0-1.18-0.96-2.14-2.14-2.14c-1.18,0-2.14,0.96-2.14,2.14
	C50.76,139.89,51.72,140.85,52.9,140.85z"/>
<path class="st0" d="M57.18,115.16c1.18,0,2.14-0.96,2.14-2.14c0-1.18-0.96-2.14-2.14-2.14s-2.14,0.96-2.14,2.14
	C55.04,114.2,56,115.16,57.18,115.16z"/>
<path class="st0" d="M57.18,140.85c1.18,0,2.14-0.96,2.14-2.14c0-1.18-0.96-2.14-2.14-2.14s-2.14,0.96-2.14,2.14
	C55.04,139.89,56,140.85,57.18,140.85z"/>
<path class="st0" d="M61.46,115.16c1.18,0,2.14-0.96,2.14-2.14c0-1.18-0.96-2.14-2.14-2.14c-1.18,0-2.14,0.96-2.14,2.14
	C59.32,114.2,60.28,115.16,61.46,115.16z"/>
<path class="st0" d="M61.46,140.85c1.18,0,2.14-0.96,2.14-2.14c0-1.18-0.96-2.14-2.14-2.14c-1.18,0-2.14,0.96-2.14,2.14
	C59.32,139.89,60.28,140.85,61.46,140.85z"/>
<path class="st0" d="M65.74,115.16c1.18,0,2.14-0.96,2.14-2.14c0-1.18-0.96-2.14-2.14-2.14c-1.18,0-2.14,0.96-2.14,2.14
	C63.6,114.2,64.56,115.16,65.74,115.16z"/>
<path class="st0" d="M65.74,140.85c1.18,0,2.14-0.96,2.14-2.14c0-1.18-0.96-2.14-2.14-2.14c-1.18,0-2.14,0.96-2.14,2.14
	C63.6,139.89,64.56,140.85,65.74,140.85z"/>
<path class="st0" d="M70.02,115.16c1.18,0,2.14-0.96,2.14-2.14c0-1.18-0.96-2.14-2.14-2.14s-2.14,0.96-2.14,2.14
	C67.88,114.2,68.84,115.16,70.02,115.16z"/>
<path class="st0" d="M70.02,119.44c1.18,0,2.14-0.96,2.14-2.14s-0.96-2.14-2.14-2.14s-2.14,0.96-2.14,2.14
	S68.84,119.44,70.02,119.44z"/>
<path class="st0" d="M70.02,123.72c1.18,0,2.14-0.96,2.14-2.14c0-1.18-0.96-2.14-2.14-2.14s-2.14,0.96-2.14,2.14
	C67.88,122.76,68.84,123.72,70.02,123.72z"/>
<path class="st0" d="M70.02,128c1.18,0,2.14-0.96,2.14-2.14c0-1.18-0.96-2.14-2.14-2.14s-2.14,0.96-2.14,2.14
	C67.88,127.04,68.84,128,70.02,128z"/>
<path class="st0" d="M70.02,132.28c1.18,0,2.14-0.96,2.14-2.14S71.21,128,70.02,128s-2.14,0.96-2.14,2.14S68.84,132.28,70.02,132.28
	z"/>
<path class="st0" d="M70.02,136.57c1.18,0,2.14-0.96,2.14-2.14c0-1.18-0.96-2.14-2.14-2.14s-2.14,0.96-2.14,2.14
	C67.88,135.61,68.84,136.57,70.02,136.57z"/>
<path class="st0" d="M70.02,140.85c1.18,0,2.14-0.96,2.14-2.14c0-1.18-0.96-2.14-2.14-2.14s-2.14,0.96-2.14,2.14
	C67.88,139.89,68.84,140.85,70.02,140.85z"/>
<path class="st0" d="M52.9,123.72c1.18,0,2.14-0.96,2.14-2.14c0-1.18-0.96-2.14-2.14-2.14c-1.18,0-2.14,0.96-2.14,2.14
	C50.76,122.76,51.72,123.72,52.9,123.72z"/>
<path class="st0" d="M52.9,128c1.18,0,2.14-0.96,2.14-2.14c0-1.18-0.96-2.14-2.14-2.14c-1.18,0-2.14,0.96-2.14,2.14
	C50.76,127.04,51.72,128,52.9,128z"/>
<path class="st0" d="M52.9,132.28c1.18,0,2.14-0.96,2.14-2.14S54.08,128,52.9,128c-1.18,0-2.14,0.96-2.14,2.14
	S51.72,132.28,52.9,132.28z"/>
<path class="st0" d="M57.18,123.72c1.18,0,2.14-0.96,2.14-2.14c0-1.18-0.96-2.14-2.14-2.14s-2.14,0.96-2.14,2.14
	C55.04,122.76,56,123.72,57.18,123.72z"/>
<path class="st0" d="M57.18,128c1.18,0,2.14-0.96,2.14-2.14c0-1.18-0.96-2.14-2.14-2.14s-2.14,0.96-2.14,2.14
	C55.04,127.04,56,128,57.18,128z"/>
<path class="st0" d="M57.18,132.28c1.18,0,2.14-0.96,2.14-2.14S58.36,128,57.18,128s-2.14,0.96-2.14,2.14S56,132.28,57.18,132.28z"
	/>
<path class="st0" d="M61.46,123.72c1.18,0,2.14-0.96,2.14-2.14c0-1.18-0.96-2.14-2.14-2.14c-1.18,0-2.14,0.96-2.14,2.14
	C59.32,122.76,60.28,123.72,61.46,123.72z"/>
<path class="st0" d="M61.46,128c1.18,0,2.14-0.96,2.14-2.14c0-1.18-0.96-2.14-2.14-2.14c-1.18,0-2.14,0.96-2.14,2.14
	C59.32,127.04,60.28,128,61.46,128z"/>
<path class="st0" d="M61.46,132.28c1.18,0,2.14-0.96,2.14-2.14S62.64,128,61.46,128c-1.18,0-2.14,0.96-2.14,2.14
	S60.28,132.28,61.46,132.28z"/>
</svg>
