<?xml version="1.0" encoding="utf-8"?>
<!-- Generator: Adobe Illustrator 27.0.1, SVG Export Plug-In . SVG Version: 6.00 Build 0)  -->
<svg version="1.1" id="Layer_1" xmlns="http://www.w3.org/2000/svg" xmlns:xlink="http://www.w3.org/1999/xlink" x="0px" y="0px"
	 viewBox="0 0 250 80" style="enable-background:new 0 0 250 80;" xml:space="preserve">
<style type="text/css">
	.st0{fill:#5E5BA9;}
</style>
<path class="st0" d="M18.5,34.97c0.62,0,1.12-0.44,1.12-0.98c0-0.54-0.5-0.98-1.12-0.98s-1.12,0.44-1.12,0.98
	C17.38,34.53,17.88,34.97,18.5,34.97z"/>
<path class="st0" d="M18.5,36.93c0.62,0,1.12-0.44,1.12-0.98c0-0.54-0.5-0.98-1.12-0.98s-1.12,0.44-1.12,0.98
	C17.38,36.49,17.88,36.93,18.5,36.93z"/>
<path class="st0" d="M18.5,38.9c0.62,0,1.12-0.44,1.12-0.98c0-0.54-0.5-0.98-1.12-0.98s-1.12,0.44-1.12,0.98
	C17.38,38.46,17.88,38.9,18.5,38.9z"/>
<path class="st0" d="M18.5,40.86c0.62,0,1.12-0.44,1.12-0.98c0-0.54-0.5-0.98-1.12-0.98s-1.12,0.44-1.12,0.98
	C17.38,40.42,17.88,40.86,18.5,40.86z"/>
<path class="st0" d="M18.5,42.83c0.62,0,1.12-0.44,1.12-0.98c0-0.54-0.5-0.98-1.12-0.98s-1.12,0.44-1.12,0.98
	C17.38,42.39,17.88,42.83,18.5,42.83z"/>
<path class="st0" d="M18.5,46.76c0.62,0,1.12-0.44,1.12-0.98c0-0.54-0.5-0.98-1.12-0.98s-1.12,0.44-1.12,0.98
	C17.38,46.32,17.88,46.76,18.5,46.76z"/>
<path class="st0" d="M18.5,52.66c0.62,0,1.12-0.44,1.12-0.98c0-0.54-0.5-0.98-1.12-0.98s-1.12,0.44-1.12,0.98
	C17.38,52.22,17.88,52.66,18.5,52.66z"/>
<path class="st0" d="M18.5,54.62c0.62,0,1.12-0.44,1.12-0.98c0-0.54-0.5-0.98-1.12-0.98s-1.12,0.44-1.12,0.98
	C17.38,54.18,17.88,54.62,18.5,54.62z"/>
<path class="st0" d="M20.75,31.04c0.62,0,1.12-0.44,1.12-0.98c0-0.54-0.5-0.98-1.12-0.98s-1.12,0.44-1.12,0.98
	C19.63,30.6,20.13,31.04,20.75,31.04z"/>
<path class="st0" d="M20.75,33c0.62,0,1.12-0.44,1.12-0.98c0-0.54-0.5-0.98-1.12-0.98s-1.12,0.44-1.12,0.98
	C19.63,32.56,20.13,33,20.75,33z"/>
<path class="st0" d="M20.75,34.97c0.62,0,1.12-0.44,1.12-0.98c0-0.54-0.5-0.98-1.12-0.98s-1.12,0.44-1.12,0.98
	C19.63,34.53,20.13,34.97,20.75,34.97z"/>
<path class="st0" d="M20.75,38.9c0.62,0,1.12-0.44,1.12-0.98c0-0.54-0.5-0.98-1.12-0.98s-1.12,0.44-1.12,0.98
	C19.63,38.46,20.13,38.9,20.75,38.9z"/>
<path class="st0" d="M20.75,40.86c0.62,0,1.12-0.44,1.12-0.98c0-0.54-0.5-0.98-1.12-0.98s-1.12,0.44-1.12,0.98
	C19.63,40.42,20.13,40.86,20.75,40.86z"/>
<path class="st0" d="M20.75,42.83c0.62,0,1.12-0.44,1.12-0.98c0-0.54-0.5-0.98-1.12-0.98s-1.12,0.44-1.12,0.98
	C19.63,42.39,20.13,42.83,20.75,42.83z"/>
<path class="st0" d="M20.75,44.79c0.62,0,1.12-0.44,1.12-0.98c0-0.54-0.5-0.98-1.12-0.98s-1.12,0.44-1.12,0.98
	C19.63,44.35,20.13,44.79,20.75,44.79z"/>
<path class="st0" d="M20.75,46.76c0.62,0,1.12-0.44,1.12-0.98c0-0.54-0.5-0.98-1.12-0.98s-1.12,0.44-1.12,0.98
	C19.63,46.32,20.13,46.76,20.75,46.76z"/>
<path class="st0" d="M20.75,52.66c0.62,0,1.12-0.44,1.12-0.98c0-0.54-0.5-0.98-1.12-0.98s-1.12,0.44-1.12,0.98
	C19.63,52.22,20.13,52.66,20.75,52.66z"/>
<path class="st0" d="M22.99,34.97c0.62,0,1.12-0.44,1.12-0.98c0-0.54-0.5-0.98-1.12-0.98s-1.12,0.44-1.12,0.98
	C21.87,34.53,22.37,34.97,22.99,34.97z"/>
<path class="st0" d="M22.99,38.9c0.62,0,1.12-0.44,1.12-0.98c0-0.54-0.5-0.98-1.12-0.98s-1.12,0.44-1.12,0.98
	C21.87,38.46,22.37,38.9,22.99,38.9z"/>
<path class="st0" d="M22.99,40.86c0.62,0,1.12-0.44,1.12-0.98c0-0.54-0.5-0.98-1.12-0.98s-1.12,0.44-1.12,0.98
	C21.87,40.42,22.37,40.86,22.99,40.86z"/>
<path class="st0" d="M22.99,42.83c0.62,0,1.12-0.44,1.12-0.98c0-0.54-0.5-0.98-1.12-0.98s-1.12,0.44-1.12,0.98
	C21.87,42.39,22.37,42.83,22.99,42.83z"/>
<path class="st0" d="M22.99,44.79c0.62,0,1.12-0.44,1.12-0.98c0-0.54-0.5-0.98-1.12-0.98s-1.12,0.44-1.12,0.98
	C21.87,44.35,22.37,44.79,22.99,44.79z"/>
<path class="st0" d="M22.99,46.76c0.62,0,1.12-0.44,1.12-0.98c0-0.54-0.5-0.98-1.12-0.98s-1.12,0.44-1.12,0.98
	C21.87,46.32,22.37,46.76,22.99,46.76z"/>
<path class="st0" d="M22.99,52.66c0.62,0,1.12-0.44,1.12-0.98c0-0.54-0.5-0.98-1.12-0.98s-1.12,0.44-1.12,0.98
	C21.87,52.22,22.37,52.66,22.99,52.66z"/>
<path class="st0" d="M25.24,31.04c0.62,0,1.12-0.44,1.12-0.98c0-0.54-0.5-0.98-1.12-0.98c-0.62,0-1.12,0.44-1.12,0.98
	C24.12,30.6,24.62,31.04,25.24,31.04z"/>
<path class="st0" d="M25.24,33c0.62,0,1.12-0.44,1.12-0.98c0-0.54-0.5-0.98-1.12-0.98c-0.62,0-1.12,0.44-1.12,0.98
	C24.12,32.56,24.62,33,25.24,33z"/>
<path class="st0" d="M25.24,34.97c0.62,0,1.12-0.44,1.12-0.98c0-0.54-0.5-0.98-1.12-0.98c-0.62,0-1.12,0.44-1.12,0.98
	C24.12,34.53,24.62,34.97,25.24,34.97z"/>
<path class="st0" d="M25.24,48.73c0.62,0,1.12-0.44,1.12-0.98s-0.5-0.98-1.12-0.98c-0.62,0-1.12,0.44-1.12,0.98
	S24.62,48.73,25.24,48.73z"/>
<path class="st0" d="M25.24,54.62c0.62,0,1.12-0.44,1.12-0.98c0-0.54-0.5-0.98-1.12-0.98c-0.62,0-1.12,0.44-1.12,0.98
	C24.12,54.18,24.62,54.62,25.24,54.62z"/>
<path class="st0" d="M27.49,31.04c0.62,0,1.12-0.44,1.12-0.98c0-0.54-0.5-0.98-1.12-0.98c-0.62,0-1.12,0.44-1.12,0.98
	C26.36,30.6,26.87,31.04,27.49,31.04z"/>
<path class="st0" d="M27.49,33c0.62,0,1.12-0.44,1.12-0.98c0-0.54-0.5-0.98-1.12-0.98c-0.62,0-1.12,0.44-1.12,0.98
	C26.36,32.56,26.87,33,27.49,33z"/>
<path class="st0" d="M27.49,34.97c0.62,0,1.12-0.44,1.12-0.98c0-0.54-0.5-0.98-1.12-0.98c-0.62,0-1.12,0.44-1.12,0.98
	C26.36,34.53,26.87,34.97,27.49,34.97z"/>
<path class="st0" d="M27.49,36.93c0.62,0,1.12-0.44,1.12-0.98c0-0.54-0.5-0.98-1.12-0.98c-0.62,0-1.12,0.44-1.12,0.98
	C26.36,36.49,26.87,36.93,27.49,36.93z"/>
<path class="st0" d="M27.49,38.9c0.62,0,1.12-0.44,1.12-0.98c0-0.54-0.5-0.98-1.12-0.98c-0.62,0-1.12,0.44-1.12,0.98
	C26.36,38.46,26.87,38.9,27.49,38.9z"/>
<path class="st0" d="M27.49,40.86c0.62,0,1.12-0.44,1.12-0.98c0-0.54-0.5-0.98-1.12-0.98c-0.62,0-1.12,0.44-1.12,0.98
	C26.36,40.42,26.87,40.86,27.49,40.86z"/>
<path class="st0" d="M27.49,42.83c0.62,0,1.12-0.44,1.12-0.98c0-0.54-0.5-0.98-1.12-0.98c-0.62,0-1.12,0.44-1.12,0.98
	C26.36,42.39,26.87,42.83,27.49,42.83z"/>
<path class="st0" d="M27.49,44.79c0.62,0,1.12-0.44,1.12-0.98c0-0.54-0.5-0.98-1.12-0.98c-0.62,0-1.12,0.44-1.12,0.98
	C26.36,44.35,26.87,44.79,27.49,44.79z"/>
<path class="st0" d="M27.49,46.76c0.62,0,1.12-0.44,1.12-0.98c0-0.54-0.5-0.98-1.12-0.98c-0.62,0-1.12,0.44-1.12,0.98
	C26.36,46.32,26.87,46.76,27.49,46.76z"/>
<path class="st0" d="M27.49,52.66c0.62,0,1.12-0.44,1.12-0.98c0-0.54-0.5-0.98-1.12-0.98c-0.62,0-1.12,0.44-1.12,0.98
	C26.36,52.22,26.87,52.66,27.49,52.66z"/>
<path class="st0" d="M27.49,54.62c0.62,0,1.12-0.44,1.12-0.98c0-0.54-0.5-0.98-1.12-0.98c-0.62,0-1.12,0.44-1.12,0.98
	C26.36,54.18,26.87,54.62,27.49,54.62z"/>
<path class="st0" d="M29.73,46.76c0.62,0,1.12-0.44,1.12-0.98c0-0.54-0.5-0.98-1.12-0.98s-1.12,0.44-1.12,0.98
	C28.61,46.32,29.11,46.76,29.73,46.76z"/>
<path class="st0" d="M29.73,54.62c0.62,0,1.12-0.44,1.12-0.98c0-0.54-0.5-0.98-1.12-0.98s-1.12,0.44-1.12,0.98
	C28.61,54.18,29.11,54.62,29.73,54.62z"/>
<path class="st0" d="M31.98,31.04c0.62,0,1.12-0.44,1.12-0.98c0-0.54-0.5-0.98-1.12-0.98c-0.62,0-1.12,0.44-1.12,0.98
	C30.85,30.6,31.36,31.04,31.98,31.04z"/>
<path class="st0" d="M31.98,34.97c0.62,0,1.12-0.44,1.12-0.98c0-0.54-0.5-0.98-1.12-0.98c-0.62,0-1.12,0.44-1.12,0.98
	C30.85,34.53,31.36,34.97,31.98,34.97z"/>
<path class="st0" d="M31.98,38.9c0.62,0,1.12-0.44,1.12-0.98c0-0.54-0.5-0.98-1.12-0.98c-0.62,0-1.12,0.44-1.12,0.98
	C30.85,38.46,31.36,38.9,31.98,38.9z"/>
<path class="st0" d="M31.98,42.83c0.62,0,1.12-0.44,1.12-0.98c0-0.54-0.5-0.98-1.12-0.98c-0.62,0-1.12,0.44-1.12,0.98
	C30.85,42.39,31.36,42.83,31.98,42.83z"/>
<path class="st0" d="M31.98,46.76c0.62,0,1.12-0.44,1.12-0.98c0-0.54-0.5-0.98-1.12-0.98c-0.62,0-1.12,0.44-1.12,0.98
	C30.85,46.32,31.36,46.76,31.98,46.76z"/>
<path class="st0" d="M31.98,50.69c0.62,0,1.12-0.44,1.12-0.98c0-0.54-0.5-0.98-1.12-0.98c-0.62,0-1.12,0.44-1.12,0.98
	C30.85,50.25,31.36,50.69,31.98,50.69z"/>
<path class="st0" d="M31.98,54.62c0.62,0,1.12-0.44,1.12-0.98c0-0.54-0.5-0.98-1.12-0.98c-0.62,0-1.12,0.44-1.12,0.98
	C30.85,54.18,31.36,54.62,31.98,54.62z"/>
<path class="st0" d="M34.22,31.04c0.62,0,1.12-0.44,1.12-0.98c0-0.54-0.5-0.98-1.12-0.98s-1.12,0.44-1.12,0.98
	C33.1,30.6,33.6,31.04,34.22,31.04z"/>
<path class="st0" d="M34.22,33c0.62,0,1.12-0.44,1.12-0.98c0-0.54-0.5-0.98-1.12-0.98s-1.12,0.44-1.12,0.98
	C33.1,32.56,33.6,33,34.22,33z"/>
<path class="st0" d="M34.22,38.9c0.62,0,1.12-0.44,1.12-0.98c0-0.54-0.5-0.98-1.12-0.98s-1.12,0.44-1.12,0.98
	C33.1,38.46,33.6,38.9,34.22,38.9z"/>
<path class="st0" d="M34.22,42.83c0.62,0,1.12-0.44,1.12-0.98c0-0.54-0.5-0.98-1.12-0.98s-1.12,0.44-1.12,0.98
	C33.1,42.39,33.6,42.83,34.22,42.83z"/>
<path class="st0" d="M34.22,44.79c0.62,0,1.12-0.44,1.12-0.98c0-0.54-0.5-0.98-1.12-0.98s-1.12,0.44-1.12,0.98
	C33.1,44.35,33.6,44.79,34.22,44.79z"/>
<path class="st0" d="M34.22,46.76c0.62,0,1.12-0.44,1.12-0.98c0-0.54-0.5-0.98-1.12-0.98s-1.12,0.44-1.12,0.98
	C33.1,46.32,33.6,46.76,34.22,46.76z"/>
<path class="st0" d="M34.22,48.73c0.62,0,1.12-0.44,1.12-0.98s-0.5-0.98-1.12-0.98s-1.12,0.44-1.12,0.98S33.6,48.73,34.22,48.73z"/>
<path class="st0" d="M34.22,50.69c0.62,0,1.12-0.44,1.12-0.98c0-0.54-0.5-0.98-1.12-0.98s-1.12,0.44-1.12,0.98
	C33.1,50.25,33.6,50.69,34.22,50.69z"/>
<path class="st0" d="M34.22,52.66c0.62,0,1.12-0.44,1.12-0.98c0-0.54-0.5-0.98-1.12-0.98s-1.12,0.44-1.12,0.98
	C33.1,52.22,33.6,52.66,34.22,52.66z"/>
<path class="st0" d="M36.47,17.28c0.62,0,1.12-0.44,1.12-0.98s-0.5-0.98-1.12-0.98c-0.62,0-1.12,0.44-1.12,0.98
	S35.85,17.28,36.47,17.28z"/>
<path class="st0" d="M36.47,21.21c0.62,0,1.12-0.44,1.12-0.98c0-0.54-0.5-0.98-1.12-0.98c-0.62,0-1.12,0.44-1.12,0.98
	C35.35,20.77,35.85,21.21,36.47,21.21z"/>
<path class="st0" d="M36.47,23.17c0.62,0,1.12-0.44,1.12-0.98c0-0.54-0.5-0.98-1.12-0.98c-0.62,0-1.12,0.44-1.12,0.98
	C35.35,22.73,35.85,23.17,36.47,23.17z"/>
<path class="st0" d="M36.47,25.14c0.62,0,1.12-0.44,1.12-0.98c0-0.54-0.5-0.98-1.12-0.98c-0.62,0-1.12,0.44-1.12,0.98
	C35.35,24.7,35.85,25.14,36.47,25.14z"/>
<path class="st0" d="M36.47,27.1c0.62,0,1.12-0.44,1.12-0.98s-0.5-0.98-1.12-0.98c-0.62,0-1.12,0.44-1.12,0.98
	S35.85,27.1,36.47,27.1z"/>
<path class="st0" d="M36.47,31.04c0.62,0,1.12-0.44,1.12-0.98c0-0.54-0.5-0.98-1.12-0.98c-0.62,0-1.12,0.44-1.12,0.98
	C35.35,30.6,35.85,31.04,36.47,31.04z"/>
<path class="st0" d="M36.47,42.83c0.62,0,1.12-0.44,1.12-0.98c0-0.54-0.5-0.98-1.12-0.98c-0.62,0-1.12,0.44-1.12,0.98
	C35.35,42.39,35.85,42.83,36.47,42.83z"/>
<path class="st0" d="M36.47,44.79c0.62,0,1.12-0.44,1.12-0.98c0-0.54-0.5-0.98-1.12-0.98c-0.62,0-1.12,0.44-1.12,0.98
	C35.35,44.35,35.85,44.79,36.47,44.79z"/>
<path class="st0" d="M36.47,46.76c0.62,0,1.12-0.44,1.12-0.98c0-0.54-0.5-0.98-1.12-0.98c-0.62,0-1.12,0.44-1.12,0.98
	C35.35,46.32,35.85,46.76,36.47,46.76z"/>
<path class="st0" d="M36.47,52.66c0.62,0,1.12-0.44,1.12-0.98c0-0.54-0.5-0.98-1.12-0.98c-0.62,0-1.12,0.44-1.12,0.98
	C35.35,52.22,35.85,52.66,36.47,52.66z"/>
<path class="st0" d="M36.47,56.59c0.62,0,1.12-0.44,1.12-0.98c0-0.54-0.5-0.98-1.12-0.98c-0.62,0-1.12,0.44-1.12,0.98
	C35.35,56.15,35.85,56.59,36.47,56.59z"/>
<path class="st0" d="M36.47,58.55c0.62,0,1.12-0.44,1.12-0.98c0-0.54-0.5-0.98-1.12-0.98c-0.62,0-1.12,0.44-1.12,0.98
	C35.35,58.11,35.85,58.55,36.47,58.55z"/>
<path class="st0" d="M36.47,62.48c0.62,0,1.12-0.44,1.12-0.98c0-0.54-0.5-0.98-1.12-0.98c-0.62,0-1.12,0.44-1.12,0.98
	C35.35,62.04,35.85,62.48,36.47,62.48z"/>
<path class="st0" d="M36.47,64.45c0.62,0,1.12-0.44,1.12-0.98c0-0.54-0.5-0.98-1.12-0.98c-0.62,0-1.12,0.44-1.12,0.98
	C35.35,64.01,35.85,64.45,36.47,64.45z"/>
<path class="st0" d="M36.47,68.38c0.62,0,1.12-0.44,1.12-0.98c0-0.54-0.5-0.98-1.12-0.98c-0.62,0-1.12,0.44-1.12,0.98
	C35.35,67.94,35.85,68.38,36.47,68.38z"/>
<path class="st0" d="M38.71,17.28c0.62,0,1.12-0.44,1.12-0.98s-0.5-0.98-1.12-0.98c-0.62,0-1.12,0.44-1.12,0.98
	S38.09,17.28,38.71,17.28z"/>
<path class="st0" d="M38.71,29.07c0.62,0,1.12-0.44,1.12-0.98c0-0.54-0.5-0.98-1.12-0.98c-0.62,0-1.12,0.44-1.12,0.98
	C37.59,28.63,38.09,29.07,38.71,29.07z"/>
<path class="st0" d="M38.71,31.04c0.62,0,1.12-0.44,1.12-0.98c0-0.54-0.5-0.98-1.12-0.98c-0.62,0-1.12,0.44-1.12,0.98
	C37.59,30.6,38.09,31.04,38.71,31.04z"/>
<path class="st0" d="M38.71,38.9c0.62,0,1.12-0.44,1.12-0.98c0-0.54-0.5-0.98-1.12-0.98c-0.62,0-1.12,0.44-1.12,0.98
	C37.59,38.46,38.09,38.9,38.71,38.9z"/>
<path class="st0" d="M38.71,42.83c0.62,0,1.12-0.44,1.12-0.98c0-0.54-0.5-0.98-1.12-0.98c-0.62,0-1.12,0.44-1.12,0.98
	C37.59,42.39,38.09,42.83,38.71,42.83z"/>
<path class="st0" d="M38.71,44.79c0.62,0,1.12-0.44,1.12-0.98c0-0.54-0.5-0.98-1.12-0.98c-0.62,0-1.12,0.44-1.12,0.98
	C37.59,44.35,38.09,44.79,38.71,44.79z"/>
<path class="st0" d="M38.71,50.69c0.62,0,1.12-0.44,1.12-0.98c0-0.54-0.5-0.98-1.12-0.98c-0.62,0-1.12,0.44-1.12,0.98
	C37.59,50.25,38.09,50.69,38.71,50.69z"/>
<path class="st0" d="M38.71,58.55c0.62,0,1.12-0.44,1.12-0.98c0-0.54-0.5-0.98-1.12-0.98c-0.62,0-1.12,0.44-1.12,0.98
	C37.59,58.11,38.09,58.55,38.71,58.55z"/>
<path class="st0" d="M38.71,60.52c0.62,0,1.12-0.44,1.12-0.98c0-0.54-0.5-0.98-1.12-0.98c-0.62,0-1.12,0.44-1.12,0.98
	C37.59,60.08,38.09,60.52,38.71,60.52z"/>
<path class="st0" d="M38.71,62.48c0.62,0,1.12-0.44,1.12-0.98c0-0.54-0.5-0.98-1.12-0.98c-0.62,0-1.12,0.44-1.12,0.98
	C37.59,62.04,38.09,62.48,38.71,62.48z"/>
<path class="st0" d="M38.71,64.45c0.62,0,1.12-0.44,1.12-0.98c0-0.54-0.5-0.98-1.12-0.98c-0.62,0-1.12,0.44-1.12,0.98
	C37.59,64.01,38.09,64.45,38.71,64.45z"/>
<path class="st0" d="M38.71,68.38c0.62,0,1.12-0.44,1.12-0.98c0-0.54-0.5-0.98-1.12-0.98c-0.62,0-1.12,0.44-1.12,0.98
	C37.59,67.94,38.09,68.38,38.71,68.38z"/>
<path class="st0" d="M40.96,15.31c0.62,0,1.12-0.44,1.12-0.98c0-0.54-0.5-0.98-1.12-0.98s-1.12,0.44-1.12,0.98
	C39.84,14.87,40.34,15.31,40.96,15.31z"/>
<path class="st0" d="M40.96,17.28c0.62,0,1.12-0.44,1.12-0.98s-0.5-0.98-1.12-0.98s-1.12,0.44-1.12,0.98S40.34,17.28,40.96,17.28z"
	/>
<path class="st0" d="M40.96,19.24c0.62,0,1.12-0.44,1.12-0.98c0-0.54-0.5-0.98-1.12-0.98s-1.12,0.44-1.12,0.98
	C39.84,18.8,40.34,19.24,40.96,19.24z"/>
<path class="st0" d="M40.96,23.17c0.62,0,1.12-0.44,1.12-0.98c0-0.54-0.5-0.98-1.12-0.98s-1.12,0.44-1.12,0.98
	C39.84,22.73,40.34,23.17,40.96,23.17z"/>
<path class="st0" d="M40.96,27.1c0.62,0,1.12-0.44,1.12-0.98s-0.5-0.98-1.12-0.98s-1.12,0.44-1.12,0.98S40.34,27.1,40.96,27.1z"/>
<path class="st0" d="M40.96,31.04c0.62,0,1.12-0.44,1.12-0.98c0-0.54-0.5-0.98-1.12-0.98s-1.12,0.44-1.12,0.98
	C39.84,30.6,40.34,31.04,40.96,31.04z"/>
<path class="st0" d="M40.96,34.97c0.62,0,1.12-0.44,1.12-0.98c0-0.54-0.5-0.98-1.12-0.98s-1.12,0.44-1.12,0.98
	C39.84,34.53,40.34,34.97,40.96,34.97z"/>
<path class="st0" d="M40.96,38.9c0.62,0,1.12-0.44,1.12-0.98c0-0.54-0.5-0.98-1.12-0.98s-1.12,0.44-1.12,0.98
	C39.84,38.46,40.34,38.9,40.96,38.9z"/>
<path class="st0" d="M40.96,40.86c0.62,0,1.12-0.44,1.12-0.98c0-0.54-0.5-0.98-1.12-0.98s-1.12,0.44-1.12,0.98
	C39.84,40.42,40.34,40.86,40.96,40.86z"/>
<path class="st0" d="M40.96,42.83c0.62,0,1.12-0.44,1.12-0.98c0-0.54-0.5-0.98-1.12-0.98s-1.12,0.44-1.12,0.98
	C39.84,42.39,40.34,42.83,40.96,42.83z"/>
<path class="st0" d="M40.96,44.79c0.62,0,1.12-0.44,1.12-0.98c0-0.54-0.5-0.98-1.12-0.98s-1.12,0.44-1.12,0.98
	C39.84,44.35,40.34,44.79,40.96,44.79z"/>
<path class="st0" d="M40.96,48.73c0.62,0,1.12-0.44,1.12-0.98s-0.5-0.98-1.12-0.98s-1.12,0.44-1.12,0.98S40.34,48.73,40.96,48.73z"
	/>
<path class="st0" d="M40.96,50.69c0.62,0,1.12-0.44,1.12-0.98c0-0.54-0.5-0.98-1.12-0.98s-1.12,0.44-1.12,0.98
	C39.84,50.25,40.34,50.69,40.96,50.69z"/>
<path class="st0" d="M40.96,52.66c0.62,0,1.12-0.44,1.12-0.98c0-0.54-0.5-0.98-1.12-0.98s-1.12,0.44-1.12,0.98
	C39.84,52.22,40.34,52.66,40.96,52.66z"/>
<path class="st0" d="M40.96,54.62c0.62,0,1.12-0.44,1.12-0.98c0-0.54-0.5-0.98-1.12-0.98s-1.12,0.44-1.12,0.98
	C39.84,54.18,40.34,54.62,40.96,54.62z"/>
<path class="st0" d="M40.96,56.59c0.62,0,1.12-0.44,1.12-0.98c0-0.54-0.5-0.98-1.12-0.98s-1.12,0.44-1.12,0.98
	C39.84,56.15,40.34,56.59,40.96,56.59z"/>
<path class="st0" d="M40.96,58.55c0.62,0,1.12-0.44,1.12-0.98c0-0.54-0.5-0.98-1.12-0.98s-1.12,0.44-1.12,0.98
	C39.84,58.11,40.34,58.55,40.96,58.55z"/>
<path class="st0" d="M40.96,62.48c0.62,0,1.12-0.44,1.12-0.98c0-0.54-0.5-0.98-1.12-0.98s-1.12,0.44-1.12,0.98
	C39.84,62.04,40.34,62.48,40.96,62.48z"/>
<path class="st0" d="M40.96,64.45c0.62,0,1.12-0.44,1.12-0.98c0-0.54-0.5-0.98-1.12-0.98s-1.12,0.44-1.12,0.98
	C39.84,64.01,40.34,64.45,40.96,64.45z"/>
<path class="st0" d="M43.21,19.24c0.62,0,1.12-0.44,1.12-0.98c0-0.54-0.5-0.98-1.12-0.98s-1.12,0.44-1.12,0.98
	C42.08,18.8,42.59,19.24,43.21,19.24z"/>
<path class="st0" d="M43.21,23.17c0.62,0,1.12-0.44,1.12-0.98c0-0.54-0.5-0.98-1.12-0.98s-1.12,0.44-1.12,0.98
	C42.08,22.73,42.59,23.17,43.21,23.17z"/>
<path class="st0" d="M43.21,25.14c0.62,0,1.12-0.44,1.12-0.98c0-0.54-0.5-0.98-1.12-0.98s-1.12,0.44-1.12,0.98
	C42.08,24.7,42.59,25.14,43.21,25.14z"/>
<path class="st0" d="M43.21,29.07c0.62,0,1.12-0.44,1.12-0.98c0-0.54-0.5-0.98-1.12-0.98s-1.12,0.44-1.12,0.98
	C42.08,28.63,42.59,29.07,43.21,29.07z"/>
<path class="st0" d="M43.21,31.04c0.62,0,1.12-0.44,1.12-0.98c0-0.54-0.5-0.98-1.12-0.98s-1.12,0.44-1.12,0.98
	C42.08,30.6,42.59,31.04,43.21,31.04z"/>
<path class="st0" d="M43.21,34.97c0.62,0,1.12-0.44,1.12-0.98c0-0.54-0.5-0.98-1.12-0.98s-1.12,0.44-1.12,0.98
	C42.08,34.53,42.59,34.97,43.21,34.97z"/>
<path class="st0" d="M43.21,38.9c0.62,0,1.12-0.44,1.12-0.98c0-0.54-0.5-0.98-1.12-0.98s-1.12,0.44-1.12,0.98
	C42.08,38.46,42.59,38.9,43.21,38.9z"/>
<path class="st0" d="M43.21,46.76c0.62,0,1.12-0.44,1.12-0.98c0-0.54-0.5-0.98-1.12-0.98s-1.12,0.44-1.12,0.98
	C42.08,46.32,42.59,46.76,43.21,46.76z"/>
<path class="st0" d="M43.21,48.73c0.62,0,1.12-0.44,1.12-0.98s-0.5-0.98-1.12-0.98s-1.12,0.44-1.12,0.98S42.59,48.73,43.21,48.73z"
	/>
<path class="st0" d="M43.21,52.66c0.62,0,1.12-0.44,1.12-0.98c0-0.54-0.5-0.98-1.12-0.98s-1.12,0.44-1.12,0.98
	C42.08,52.22,42.59,52.66,43.21,52.66z"/>
<path class="st0" d="M43.21,54.62c0.62,0,1.12-0.44,1.12-0.98c0-0.54-0.5-0.98-1.12-0.98s-1.12,0.44-1.12,0.98
	C42.08,54.18,42.59,54.62,43.21,54.62z"/>
<path class="st0" d="M43.21,62.48c0.62,0,1.12-0.44,1.12-0.98c0-0.54-0.5-0.98-1.12-0.98s-1.12,0.44-1.12,0.98
	C42.08,62.04,42.59,62.48,43.21,62.48z"/>
<path class="st0" d="M43.21,64.45c0.62,0,1.12-0.44,1.12-0.98c0-0.54-0.5-0.98-1.12-0.98s-1.12,0.44-1.12,0.98
	C42.08,64.01,42.59,64.45,43.21,64.45z"/>
<path class="st0" d="M43.21,70.35c0.62,0,1.12-0.44,1.12-0.98s-0.5-0.98-1.12-0.98s-1.12,0.44-1.12,0.98S42.59,70.35,43.21,70.35z"
	/>
<path class="st0" d="M45.45,15.31c0.62,0,1.12-0.44,1.12-0.98c0-0.54-0.5-0.98-1.12-0.98c-0.62,0-1.12,0.44-1.12,0.98
	C44.33,14.87,44.83,15.31,45.45,15.31z"/>
<path class="st0" d="M45.45,17.28c0.62,0,1.12-0.44,1.12-0.98s-0.5-0.98-1.12-0.98c-0.62,0-1.12,0.44-1.12,0.98
	S44.83,17.28,45.45,17.28z"/>
<path class="st0" d="M45.45,19.24c0.62,0,1.12-0.44,1.12-0.98c0-0.54-0.5-0.98-1.12-0.98c-0.62,0-1.12,0.44-1.12,0.98
	C44.33,18.8,44.83,19.24,45.45,19.24z"/>
<path class="st0" d="M45.45,23.17c0.62,0,1.12-0.44,1.12-0.98c0-0.54-0.5-0.98-1.12-0.98c-0.62,0-1.12,0.44-1.12,0.98
	C44.33,22.73,44.83,23.17,45.45,23.17z"/>
<path class="st0" d="M45.45,27.1c0.62,0,1.12-0.44,1.12-0.98s-0.5-0.98-1.12-0.98c-0.62,0-1.12,0.44-1.12,0.98
	S44.83,27.1,45.45,27.1z"/>
<path class="st0" d="M45.45,29.07c0.62,0,1.12-0.44,1.12-0.98c0-0.54-0.5-0.98-1.12-0.98c-0.62,0-1.12,0.44-1.12,0.98
	C44.33,28.63,44.83,29.07,45.45,29.07z"/>
<path class="st0" d="M45.45,31.04c0.62,0,1.12-0.44,1.12-0.98c0-0.54-0.5-0.98-1.12-0.98c-0.62,0-1.12,0.44-1.12,0.98
	C44.33,30.6,44.83,31.04,45.45,31.04z"/>
<path class="st0" d="M45.45,33c0.62,0,1.12-0.44,1.12-0.98c0-0.54-0.5-0.98-1.12-0.98c-0.62,0-1.12,0.44-1.12,0.98
	C44.33,32.56,44.83,33,45.45,33z"/>
<path class="st0" d="M45.45,34.97c0.62,0,1.12-0.44,1.12-0.98c0-0.54-0.5-0.98-1.12-0.98c-0.62,0-1.12,0.44-1.12,0.98
	C44.33,34.53,44.83,34.97,45.45,34.97z"/>
<path class="st0" d="M45.45,36.93c0.62,0,1.12-0.44,1.12-0.98c0-0.54-0.5-0.98-1.12-0.98c-0.62,0-1.12,0.44-1.12,0.98
	C44.33,36.49,44.83,36.93,45.45,36.93z"/>
<path class="st0" d="M45.45,38.9c0.62,0,1.12-0.44,1.12-0.98c0-0.54-0.5-0.98-1.12-0.98c-0.62,0-1.12,0.44-1.12,0.98
	C44.33,38.46,44.83,38.9,45.45,38.9z"/>
<path class="st0" d="M45.45,40.86c0.62,0,1.12-0.44,1.12-0.98c0-0.54-0.5-0.98-1.12-0.98c-0.62,0-1.12,0.44-1.12,0.98
	C44.33,40.42,44.83,40.86,45.45,40.86z"/>
<path class="st0" d="M45.45,46.76c0.62,0,1.12-0.44,1.12-0.98c0-0.54-0.5-0.98-1.12-0.98c-0.62,0-1.12,0.44-1.12,0.98
	C44.33,46.32,44.83,46.76,45.45,46.76z"/>
<path class="st0" d="M45.45,54.62c0.62,0,1.12-0.44,1.12-0.98c0-0.54-0.5-0.98-1.12-0.98c-0.62,0-1.12,0.44-1.12,0.98
	C44.33,54.18,44.83,54.62,45.45,54.62z"/>
<path class="st0" d="M45.45,56.59c0.62,0,1.12-0.44,1.12-0.98c0-0.54-0.5-0.98-1.12-0.98c-0.62,0-1.12,0.44-1.12,0.98
	C44.33,56.15,44.83,56.59,45.45,56.59z"/>
<path class="st0" d="M45.45,58.55c0.62,0,1.12-0.44,1.12-0.98c0-0.54-0.5-0.98-1.12-0.98c-0.62,0-1.12,0.44-1.12,0.98
	C44.33,58.11,44.83,58.55,45.45,58.55z"/>
<path class="st0" d="M45.45,66.42c0.62,0,1.12-0.44,1.12-0.98s-0.5-0.98-1.12-0.98c-0.62,0-1.12,0.44-1.12,0.98
	S44.83,66.42,45.45,66.42z"/>
<path class="st0" d="M45.45,68.38c0.62,0,1.12-0.44,1.12-0.98c0-0.54-0.5-0.98-1.12-0.98c-0.62,0-1.12,0.44-1.12,0.98
	C44.33,67.94,44.83,68.38,45.45,68.38z"/>
<path class="st0" d="M47.7,15.31c0.62,0,1.12-0.44,1.12-0.98c0-0.54-0.5-0.98-1.12-0.98c-0.62,0-1.12,0.44-1.12,0.98
	C46.57,14.87,47.08,15.31,47.7,15.31z"/>
<path class="st0" d="M47.7,19.24c0.62,0,1.12-0.44,1.12-0.98c0-0.54-0.5-0.98-1.12-0.98c-0.62,0-1.12,0.44-1.12,0.98
	C46.57,18.8,47.08,19.24,47.7,19.24z"/>
<path class="st0" d="M47.7,25.14c0.62,0,1.12-0.44,1.12-0.98c0-0.54-0.5-0.98-1.12-0.98c-0.62,0-1.12,0.44-1.12,0.98
	C46.57,24.7,47.08,25.14,47.7,25.14z"/>
<path class="st0" d="M47.7,29.07c0.62,0,1.12-0.44,1.12-0.98c0-0.54-0.5-0.98-1.12-0.98c-0.62,0-1.12,0.44-1.12,0.98
	C46.57,28.63,47.08,29.07,47.7,29.07z"/>
<path class="st0" d="M47.7,33c0.62,0,1.12-0.44,1.12-0.98c0-0.54-0.5-0.98-1.12-0.98c-0.62,0-1.12,0.44-1.12,0.98
	C46.57,32.56,47.08,33,47.7,33z"/>
<path class="st0" d="M47.7,36.93c0.62,0,1.12-0.44,1.12-0.98c0-0.54-0.5-0.98-1.12-0.98c-0.62,0-1.12,0.44-1.12,0.98
	C46.57,36.49,47.08,36.93,47.7,36.93z"/>
<path class="st0" d="M47.7,42.83c0.62,0,1.12-0.44,1.12-0.98c0-0.54-0.5-0.98-1.12-0.98c-0.62,0-1.12,0.44-1.12,0.98
	C46.57,42.39,47.08,42.83,47.7,42.83z"/>
<path class="st0" d="M47.7,46.76c0.62,0,1.12-0.44,1.12-0.98c0-0.54-0.5-0.98-1.12-0.98c-0.62,0-1.12,0.44-1.12,0.98
	C46.57,46.32,47.08,46.76,47.7,46.76z"/>
<path class="st0" d="M47.7,58.55c0.62,0,1.12-0.44,1.12-0.98c0-0.54-0.5-0.98-1.12-0.98c-0.62,0-1.12,0.44-1.12,0.98
	C46.57,58.11,47.08,58.55,47.7,58.55z"/>
<path class="st0" d="M47.7,62.48c0.62,0,1.12-0.44,1.12-0.98c0-0.54-0.5-0.98-1.12-0.98c-0.62,0-1.12,0.44-1.12,0.98
	C46.57,62.04,47.08,62.48,47.7,62.48z"/>
<path class="st0" d="M47.7,66.42c0.62,0,1.12-0.44,1.12-0.98s-0.5-0.98-1.12-0.98c-0.62,0-1.12,0.44-1.12,0.98
	S47.08,66.42,47.7,66.42z"/>
<path class="st0" d="M47.7,70.35c0.62,0,1.12-0.44,1.12-0.98s-0.5-0.98-1.12-0.98c-0.62,0-1.12,0.44-1.12,0.98
	S47.08,70.35,47.7,70.35z"/>
<path class="st0" d="M49.94,15.31c0.62,0,1.12-0.44,1.12-0.98c0-0.54-0.5-0.98-1.12-0.98c-0.62,0-1.12,0.44-1.12,0.98
	C48.82,14.87,49.32,15.31,49.94,15.31z"/>
<path class="st0" d="M49.94,21.21c0.62,0,1.12-0.44,1.12-0.98c0-0.54-0.5-0.98-1.12-0.98c-0.62,0-1.12,0.44-1.12,0.98
	C48.82,20.77,49.32,21.21,49.94,21.21z"/>
<path class="st0" d="M49.94,23.17c0.62,0,1.12-0.44,1.12-0.98c0-0.54-0.5-0.98-1.12-0.98c-0.62,0-1.12,0.44-1.12,0.98
	C48.82,22.73,49.32,23.17,49.94,23.17z"/>
<path class="st0" d="M49.94,27.1c0.62,0,1.12-0.44,1.12-0.98s-0.5-0.98-1.12-0.98c-0.62,0-1.12,0.44-1.12,0.98
	S49.32,27.1,49.94,27.1z"/>
<path class="st0" d="M49.94,33c0.62,0,1.12-0.44,1.12-0.98c0-0.54-0.5-0.98-1.12-0.98c-0.62,0-1.12,0.44-1.12,0.98
	C48.82,32.56,49.32,33,49.94,33z"/>
<path class="st0" d="M49.94,34.97c0.62,0,1.12-0.44,1.12-0.98c0-0.54-0.5-0.98-1.12-0.98c-0.62,0-1.12,0.44-1.12,0.98
	C48.82,34.53,49.32,34.97,49.94,34.97z"/>
<path class="st0" d="M49.94,40.86c0.62,0,1.12-0.44,1.12-0.98c0-0.54-0.5-0.98-1.12-0.98c-0.62,0-1.12,0.44-1.12,0.98
	C48.82,40.42,49.32,40.86,49.94,40.86z"/>
<path class="st0" d="M49.94,44.79c0.62,0,1.12-0.44,1.12-0.98c0-0.54-0.5-0.98-1.12-0.98c-0.62,0-1.12,0.44-1.12,0.98
	C48.82,44.35,49.32,44.79,49.94,44.79z"/>
<path class="st0" d="M49.94,46.76c0.62,0,1.12-0.44,1.12-0.98c0-0.54-0.5-0.98-1.12-0.98c-0.62,0-1.12,0.44-1.12,0.98
	C48.82,46.32,49.32,46.76,49.94,46.76z"/>
<path class="st0" d="M49.94,50.69c0.62,0,1.12-0.44,1.12-0.98c0-0.54-0.5-0.98-1.12-0.98c-0.62,0-1.12,0.44-1.12,0.98
	C48.82,50.25,49.32,50.69,49.94,50.69z"/>
<path class="st0" d="M49.94,52.66c0.62,0,1.12-0.44,1.12-0.98c0-0.54-0.5-0.98-1.12-0.98c-0.62,0-1.12,0.44-1.12,0.98
	C48.82,52.22,49.32,52.66,49.94,52.66z"/>
<path class="st0" d="M49.94,54.62c0.62,0,1.12-0.44,1.12-0.98c0-0.54-0.5-0.98-1.12-0.98c-0.62,0-1.12,0.44-1.12,0.98
	C48.82,54.18,49.32,54.62,49.94,54.62z"/>
<path class="st0" d="M49.94,60.52c0.62,0,1.12-0.44,1.12-0.98c0-0.54-0.5-0.98-1.12-0.98c-0.62,0-1.12,0.44-1.12,0.98
	C48.82,60.08,49.32,60.52,49.94,60.52z"/>
<path class="st0" d="M49.94,64.45c0.62,0,1.12-0.44,1.12-0.98c0-0.54-0.5-0.98-1.12-0.98c-0.62,0-1.12,0.44-1.12,0.98
	C48.82,64.01,49.32,64.45,49.94,64.45z"/>
<path class="st0" d="M49.94,68.38c0.62,0,1.12-0.44,1.12-0.98c0-0.54-0.5-0.98-1.12-0.98c-0.62,0-1.12,0.44-1.12,0.98
	C48.82,67.94,49.32,68.38,49.94,68.38z"/>
<path class="st0" d="M49.94,70.35c0.62,0,1.12-0.44,1.12-0.98s-0.5-0.98-1.12-0.98c-0.62,0-1.12,0.44-1.12,0.98
	S49.32,70.35,49.94,70.35z"/>
<path class="st0" d="M52.19,15.31c0.62,0,1.12-0.44,1.12-0.98c0-0.54-0.5-0.98-1.12-0.98c-0.62,0-1.12,0.44-1.12,0.98
	C51.07,14.87,51.57,15.31,52.19,15.31z"/>
<path class="st0" d="M52.19,25.14c0.62,0,1.12-0.44,1.12-0.98c0-0.54-0.5-0.98-1.12-0.98c-0.62,0-1.12,0.44-1.12,0.98
	C51.07,24.7,51.57,25.14,52.19,25.14z"/>
<path class="st0" d="M52.19,31.04c0.62,0,1.12-0.44,1.12-0.98c0-0.54-0.5-0.98-1.12-0.98c-0.62,0-1.12,0.44-1.12,0.98
	C51.07,30.6,51.57,31.04,52.19,31.04z"/>
<path class="st0" d="M52.19,33c0.62,0,1.12-0.44,1.12-0.98c0-0.54-0.5-0.98-1.12-0.98c-0.62,0-1.12,0.44-1.12,0.98
	C51.07,32.56,51.57,33,52.19,33z"/>
<path class="st0" d="M52.19,38.9c0.62,0,1.12-0.44,1.12-0.98c0-0.54-0.5-0.98-1.12-0.98c-0.62,0-1.12,0.44-1.12,0.98
	C51.07,38.46,51.57,38.9,52.19,38.9z"/>
<path class="st0" d="M52.19,46.76c0.62,0,1.12-0.44,1.12-0.98c0-0.54-0.5-0.98-1.12-0.98c-0.62,0-1.12,0.44-1.12,0.98
	C51.07,46.32,51.57,46.76,52.19,46.76z"/>
<path class="st0" d="M52.19,56.59c0.62,0,1.12-0.44,1.12-0.98c0-0.54-0.5-0.98-1.12-0.98c-0.62,0-1.12,0.44-1.12,0.98
	C51.07,56.15,51.57,56.59,52.19,56.59z"/>
<path class="st0" d="M52.19,58.55c0.62,0,1.12-0.44,1.12-0.98c0-0.54-0.5-0.98-1.12-0.98c-0.62,0-1.12,0.44-1.12,0.98
	C51.07,58.11,51.57,58.55,52.19,58.55z"/>
<path class="st0" d="M52.19,62.48c0.62,0,1.12-0.44,1.12-0.98c0-0.54-0.5-0.98-1.12-0.98c-0.62,0-1.12,0.44-1.12,0.98
	C51.07,62.04,51.57,62.48,52.19,62.48z"/>
<path class="st0" d="M52.19,64.45c0.62,0,1.12-0.44,1.12-0.98c0-0.54-0.5-0.98-1.12-0.98c-0.62,0-1.12,0.44-1.12,0.98
	C51.07,64.01,51.57,64.45,52.19,64.45z"/>
<path class="st0" d="M52.19,66.42c0.62,0,1.12-0.44,1.12-0.98s-0.5-0.98-1.12-0.98c-0.62,0-1.12,0.44-1.12,0.98
	S51.57,66.42,52.19,66.42z"/>
<path class="st0" d="M52.19,68.38c0.62,0,1.12-0.44,1.12-0.98c0-0.54-0.5-0.98-1.12-0.98c-0.62,0-1.12,0.44-1.12,0.98
	C51.07,67.94,51.57,68.38,52.19,68.38z"/>
<path class="st0" d="M52.19,70.35c0.62,0,1.12-0.44,1.12-0.98s-0.5-0.98-1.12-0.98c-0.62,0-1.12,0.44-1.12,0.98
	S51.57,70.35,52.19,70.35z"/>
<path class="st0" d="M54.43,15.31c0.62,0,1.12-0.44,1.12-0.98c0-0.54-0.5-0.98-1.12-0.98c-0.62,0-1.12,0.44-1.12,0.98
	C53.31,14.87,53.81,15.31,54.43,15.31z"/>
<path class="st0" d="M54.43,17.28c0.62,0,1.12-0.44,1.12-0.98s-0.5-0.98-1.12-0.98c-0.62,0-1.12,0.44-1.12,0.98
	S53.81,17.28,54.43,17.28z"/>
<path class="st0" d="M54.43,19.24c0.62,0,1.12-0.44,1.12-0.98c0-0.54-0.5-0.98-1.12-0.98c-0.62,0-1.12,0.44-1.12,0.98
	C53.31,18.8,53.81,19.24,54.43,19.24z"/>
<path class="st0" d="M54.43,23.17c0.62,0,1.12-0.44,1.12-0.98c0-0.54-0.5-0.98-1.12-0.98c-0.62,0-1.12,0.44-1.12,0.98
	C53.31,22.73,53.81,23.17,54.43,23.17z"/>
<path class="st0" d="M54.43,27.1c0.62,0,1.12-0.44,1.12-0.98s-0.5-0.98-1.12-0.98c-0.62,0-1.12,0.44-1.12,0.98
	S53.81,27.1,54.43,27.1z"/>
<path class="st0" d="M54.43,29.07c0.62,0,1.12-0.44,1.12-0.98c0-0.54-0.5-0.98-1.12-0.98c-0.62,0-1.12,0.44-1.12,0.98
	C53.31,28.63,53.81,29.07,54.43,29.07z"/>
<path class="st0" d="M54.43,36.93c0.62,0,1.12-0.44,1.12-0.98c0-0.54-0.5-0.98-1.12-0.98c-0.62,0-1.12,0.44-1.12,0.98
	C53.31,36.49,53.81,36.93,54.43,36.93z"/>
<path class="st0" d="M54.43,40.86c0.62,0,1.12-0.44,1.12-0.98c0-0.54-0.5-0.98-1.12-0.98c-0.62,0-1.12,0.44-1.12,0.98
	C53.31,40.42,53.81,40.86,54.43,40.86z"/>
<path class="st0" d="M54.43,42.83c0.62,0,1.12-0.44,1.12-0.98c0-0.54-0.5-0.98-1.12-0.98c-0.62,0-1.12,0.44-1.12,0.98
	C53.31,42.39,53.81,42.83,54.43,42.83z"/>
<path class="st0" d="M54.43,48.73c0.62,0,1.12-0.44,1.12-0.98s-0.5-0.98-1.12-0.98c-0.62,0-1.12,0.44-1.12,0.98
	S53.81,48.73,54.43,48.73z"/>
<path class="st0" d="M54.43,50.69c0.62,0,1.12-0.44,1.12-0.98c0-0.54-0.5-0.98-1.12-0.98c-0.62,0-1.12,0.44-1.12,0.98
	C53.31,50.25,53.81,50.69,54.43,50.69z"/>
<path class="st0" d="M54.43,52.66c0.62,0,1.12-0.44,1.12-0.98c0-0.54-0.5-0.98-1.12-0.98c-0.62,0-1.12,0.44-1.12,0.98
	C53.31,52.22,53.81,52.66,54.43,52.66z"/>
<path class="st0" d="M54.43,54.62c0.62,0,1.12-0.44,1.12-0.98c0-0.54-0.5-0.98-1.12-0.98c-0.62,0-1.12,0.44-1.12,0.98
	C53.31,54.18,53.81,54.62,54.43,54.62z"/>
<path class="st0" d="M54.43,62.48c0.62,0,1.12-0.44,1.12-0.98c0-0.54-0.5-0.98-1.12-0.98c-0.62,0-1.12,0.44-1.12,0.98
	C53.31,62.04,53.81,62.48,54.43,62.48z"/>
<path class="st0" d="M54.43,64.45c0.62,0,1.12-0.44,1.12-0.98c0-0.54-0.5-0.98-1.12-0.98c-0.62,0-1.12,0.44-1.12,0.98
	C53.31,64.01,53.81,64.45,54.43,64.45z"/>
<path class="st0" d="M54.43,70.35c0.62,0,1.12-0.44,1.12-0.98s-0.5-0.98-1.12-0.98c-0.62,0-1.12,0.44-1.12,0.98
	S53.81,70.35,54.43,70.35z"/>
<path class="st0" d="M56.68,15.31c0.62,0,1.12-0.44,1.12-0.98c0-0.54-0.5-0.98-1.12-0.98c-0.62,0-1.12,0.44-1.12,0.98
	C55.56,14.87,56.06,15.31,56.68,15.31z"/>
<path class="st0" d="M56.68,21.21c0.62,0,1.12-0.44,1.12-0.98c0-0.54-0.5-0.98-1.12-0.98c-0.62,0-1.12,0.44-1.12,0.98
	C55.56,20.77,56.06,21.21,56.68,21.21z"/>
<path class="st0" d="M56.68,25.14c0.62,0,1.12-0.44,1.12-0.98c0-0.54-0.5-0.98-1.12-0.98c-0.62,0-1.12,0.44-1.12,0.98
	C55.56,24.7,56.06,25.14,56.68,25.14z"/>
<path class="st0" d="M56.68,29.07c0.62,0,1.12-0.44,1.12-0.98c0-0.54-0.5-0.98-1.12-0.98c-0.62,0-1.12,0.44-1.12,0.98
	C55.56,28.63,56.06,29.07,56.68,29.07z"/>
<path class="st0" d="M56.68,31.04c0.62,0,1.12-0.44,1.12-0.98c0-0.54-0.5-0.98-1.12-0.98c-0.62,0-1.12,0.44-1.12,0.98
	C55.56,30.6,56.06,31.04,56.68,31.04z"/>
<path class="st0" d="M56.68,33c0.62,0,1.12-0.44,1.12-0.98c0-0.54-0.5-0.98-1.12-0.98c-0.62,0-1.12,0.44-1.12,0.98
	C55.56,32.56,56.06,33,56.68,33z"/>
<path class="st0" d="M56.68,34.97c0.62,0,1.12-0.44,1.12-0.98c0-0.54-0.5-0.98-1.12-0.98c-0.62,0-1.12,0.44-1.12,0.98
	C55.56,34.53,56.06,34.97,56.68,34.97z"/>
<path class="st0" d="M56.68,36.93c0.62,0,1.12-0.44,1.12-0.98c0-0.54-0.5-0.98-1.12-0.98c-0.62,0-1.12,0.44-1.12,0.98
	C55.56,36.49,56.06,36.93,56.68,36.93z"/>
<path class="st0" d="M56.68,40.86c0.62,0,1.12-0.44,1.12-0.98c0-0.54-0.5-0.98-1.12-0.98c-0.62,0-1.12,0.44-1.12,0.98
	C55.56,40.42,56.06,40.86,56.68,40.86z"/>
<path class="st0" d="M56.68,48.73c0.62,0,1.12-0.44,1.12-0.98s-0.5-0.98-1.12-0.98c-0.62,0-1.12,0.44-1.12,0.98
	S56.06,48.73,56.68,48.73z"/>
<path class="st0" d="M56.68,56.59c0.62,0,1.12-0.44,1.12-0.98c0-0.54-0.5-0.98-1.12-0.98c-0.62,0-1.12,0.44-1.12,0.98
	C55.56,56.15,56.06,56.59,56.68,56.59z"/>
<path class="st0" d="M56.68,62.48c0.62,0,1.12-0.44,1.12-0.98c0-0.54-0.5-0.98-1.12-0.98c-0.62,0-1.12,0.44-1.12,0.98
	C55.56,62.04,56.06,62.48,56.68,62.48z"/>
<path class="st0" d="M56.68,64.45c0.62,0,1.12-0.44,1.12-0.98c0-0.54-0.5-0.98-1.12-0.98c-0.62,0-1.12,0.44-1.12,0.98
	C55.56,64.01,56.06,64.45,56.68,64.45z"/>
<path class="st0" d="M58.92,15.31c0.62,0,1.12-0.44,1.12-0.98c0-0.54-0.5-0.98-1.12-0.98c-0.62,0-1.12,0.44-1.12,0.98
	C57.8,14.87,58.3,15.31,58.92,15.31z"/>
<path class="st0" d="M58.92,17.28c0.62,0,1.12-0.44,1.12-0.98s-0.5-0.98-1.12-0.98c-0.62,0-1.12,0.44-1.12,0.98
	S58.3,17.28,58.92,17.28z"/>
<path class="st0" d="M58.92,19.24c0.62,0,1.12-0.44,1.12-0.98c0-0.54-0.5-0.98-1.12-0.98c-0.62,0-1.12,0.44-1.12,0.98
	C57.8,18.8,58.3,19.24,58.92,19.24z"/>
<path class="st0" d="M58.92,23.17c0.62,0,1.12-0.44,1.12-0.98c0-0.54-0.5-0.98-1.12-0.98c-0.62,0-1.12,0.44-1.12,0.98
	C57.8,22.73,58.3,23.17,58.92,23.17z"/>
<path class="st0" d="M58.92,27.1c0.62,0,1.12-0.44,1.12-0.98s-0.5-0.98-1.12-0.98c-0.62,0-1.12,0.44-1.12,0.98S58.3,27.1,58.92,27.1
	z"/>
<path class="st0" d="M58.92,33c0.62,0,1.12-0.44,1.12-0.98c0-0.54-0.5-0.98-1.12-0.98c-0.62,0-1.12,0.44-1.12,0.98
	C57.8,32.56,58.3,33,58.92,33z"/>
<path class="st0" d="M58.92,34.97c0.62,0,1.12-0.44,1.12-0.98c0-0.54-0.5-0.98-1.12-0.98c-0.62,0-1.12,0.44-1.12,0.98
	C57.8,34.53,58.3,34.97,58.92,34.97z"/>
<path class="st0" d="M58.92,36.93c0.62,0,1.12-0.44,1.12-0.98c0-0.54-0.5-0.98-1.12-0.98c-0.62,0-1.12,0.44-1.12,0.98
	C57.8,36.49,58.3,36.93,58.92,36.93z"/>
<path class="st0" d="M58.92,38.9c0.62,0,1.12-0.44,1.12-0.98c0-0.54-0.5-0.98-1.12-0.98c-0.62,0-1.12,0.44-1.12,0.98
	C57.8,38.46,58.3,38.9,58.92,38.9z"/>
<path class="st0" d="M58.92,42.83c0.62,0,1.12-0.44,1.12-0.98c0-0.54-0.5-0.98-1.12-0.98c-0.62,0-1.12,0.44-1.12,0.98
	C57.8,42.39,58.3,42.83,58.92,42.83z"/>
<path class="st0" d="M58.92,46.76c0.62,0,1.12-0.44,1.12-0.98c0-0.54-0.5-0.98-1.12-0.98c-0.62,0-1.12,0.44-1.12,0.98
	C57.8,46.32,58.3,46.76,58.92,46.76z"/>
<path class="st0" d="M58.92,50.69c0.62,0,1.12-0.44,1.12-0.98c0-0.54-0.5-0.98-1.12-0.98c-0.62,0-1.12,0.44-1.12,0.98
	C57.8,50.25,58.3,50.69,58.92,50.69z"/>
<path class="st0" d="M58.92,52.66c0.62,0,1.12-0.44,1.12-0.98c0-0.54-0.5-0.98-1.12-0.98c-0.62,0-1.12,0.44-1.12,0.98
	C57.8,52.22,58.3,52.66,58.92,52.66z"/>
<path class="st0" d="M58.92,54.62c0.62,0,1.12-0.44,1.12-0.98c0-0.54-0.5-0.98-1.12-0.98c-0.62,0-1.12,0.44-1.12,0.98
	C57.8,54.18,58.3,54.62,58.92,54.62z"/>
<path class="st0" d="M58.92,66.42c0.62,0,1.12-0.44,1.12-0.98s-0.5-0.98-1.12-0.98c-0.62,0-1.12,0.44-1.12,0.98
	S58.3,66.42,58.92,66.42z"/>
<path class="st0" d="M58.92,70.35c0.62,0,1.12-0.44,1.12-0.98s-0.5-0.98-1.12-0.98c-0.62,0-1.12,0.44-1.12,0.98
	S58.3,70.35,58.92,70.35z"/>
<path class="st0" d="M61.17,15.31c0.62,0,1.12-0.44,1.12-0.98c0-0.54-0.5-0.98-1.12-0.98c-0.62,0-1.12,0.44-1.12,0.98
	C60.05,14.87,60.55,15.31,61.17,15.31z"/>
<path class="st0" d="M61.17,17.28c0.62,0,1.12-0.44,1.12-0.98s-0.5-0.98-1.12-0.98c-0.62,0-1.12,0.44-1.12,0.98
	S60.55,17.28,61.17,17.28z"/>
<path class="st0" d="M61.17,19.24c0.62,0,1.12-0.44,1.12-0.98c0-0.54-0.5-0.98-1.12-0.98c-0.62,0-1.12,0.44-1.12,0.98
	C60.05,18.8,60.55,19.24,61.17,19.24z"/>
<path class="st0" d="M61.17,23.17c0.62,0,1.12-0.44,1.12-0.98c0-0.54-0.5-0.98-1.12-0.98c-0.62,0-1.12,0.44-1.12,0.98
	C60.05,22.73,60.55,23.17,61.17,23.17z"/>
<path class="st0" d="M61.17,31.04c0.62,0,1.12-0.44,1.12-0.98c0-0.54-0.5-0.98-1.12-0.98c-0.62,0-1.12,0.44-1.12,0.98
	C60.05,30.6,60.55,31.04,61.17,31.04z"/>
<path class="st0" d="M61.17,40.86c0.62,0,1.12-0.44,1.12-0.98c0-0.54-0.5-0.98-1.12-0.98c-0.62,0-1.12,0.44-1.12,0.98
	C60.05,40.42,60.55,40.86,61.17,40.86z"/>
<path class="st0" d="M61.17,44.79c0.62,0,1.12-0.44,1.12-0.98c0-0.54-0.5-0.98-1.12-0.98c-0.62,0-1.12,0.44-1.12,0.98
	C60.05,44.35,60.55,44.79,61.17,44.79z"/>
<path class="st0" d="M61.17,46.76c0.62,0,1.12-0.44,1.12-0.98c0-0.54-0.5-0.98-1.12-0.98c-0.62,0-1.12,0.44-1.12,0.98
	C60.05,46.32,60.55,46.76,61.17,46.76z"/>
<path class="st0" d="M61.17,50.69c0.62,0,1.12-0.44,1.12-0.98c0-0.54-0.5-0.98-1.12-0.98c-0.62,0-1.12,0.44-1.12,0.98
	C60.05,50.25,60.55,50.69,61.17,50.69z"/>
<path class="st0" d="M61.17,54.62c0.62,0,1.12-0.44,1.12-0.98c0-0.54-0.5-0.98-1.12-0.98c-0.62,0-1.12,0.44-1.12,0.98
	C60.05,54.18,60.55,54.62,61.17,54.62z"/>
<path class="st0" d="M61.17,56.59c0.62,0,1.12-0.44,1.12-0.98c0-0.54-0.5-0.98-1.12-0.98c-0.62,0-1.12,0.44-1.12,0.98
	C60.05,56.15,60.55,56.59,61.17,56.59z"/>
<path class="st0" d="M61.17,58.55c0.62,0,1.12-0.44,1.12-0.98c0-0.54-0.5-0.98-1.12-0.98c-0.62,0-1.12,0.44-1.12,0.98
	C60.05,58.11,60.55,58.55,61.17,58.55z"/>
<path class="st0" d="M61.17,60.52c0.62,0,1.12-0.44,1.12-0.98c0-0.54-0.5-0.98-1.12-0.98c-0.62,0-1.12,0.44-1.12,0.98
	C60.05,60.08,60.55,60.52,61.17,60.52z"/>
<path class="st0" d="M61.17,62.48c0.62,0,1.12-0.44,1.12-0.98c0-0.54-0.5-0.98-1.12-0.98c-0.62,0-1.12,0.44-1.12,0.98
	C60.05,62.04,60.55,62.48,61.17,62.48z"/>
<path class="st0" d="M61.17,66.42c0.62,0,1.12-0.44,1.12-0.98s-0.5-0.98-1.12-0.98c-0.62,0-1.12,0.44-1.12,0.98
	S60.55,66.42,61.17,66.42z"/>
<path class="st0" d="M61.17,68.38c0.62,0,1.12-0.44,1.12-0.98c0-0.54-0.5-0.98-1.12-0.98c-0.62,0-1.12,0.44-1.12,0.98
	C60.05,67.94,60.55,68.38,61.17,68.38z"/>
<path class="st0" d="M63.42,15.31c0.62,0,1.12-0.44,1.12-0.98c0-0.54-0.5-0.98-1.12-0.98c-0.62,0-1.12,0.44-1.12,0.98
	C62.29,14.87,62.8,15.31,63.42,15.31z"/>
<path class="st0" d="M63.42,17.28c0.62,0,1.12-0.44,1.12-0.98s-0.5-0.98-1.12-0.98c-0.62,0-1.12,0.44-1.12,0.98
	S62.8,17.28,63.42,17.28z"/>
<path class="st0" d="M63.42,19.24c0.62,0,1.12-0.44,1.12-0.98c0-0.54-0.5-0.98-1.12-0.98c-0.62,0-1.12,0.44-1.12,0.98
	C62.29,18.8,62.8,19.24,63.42,19.24z"/>
<path class="st0" d="M63.42,21.21c0.62,0,1.12-0.44,1.12-0.98c0-0.54-0.5-0.98-1.12-0.98c-0.62,0-1.12,0.44-1.12,0.98
	C62.29,20.77,62.8,21.21,63.42,21.21z"/>
<path class="st0" d="M63.42,25.14c0.62,0,1.12-0.44,1.12-0.98c0-0.54-0.5-0.98-1.12-0.98c-0.62,0-1.12,0.44-1.12,0.98
	C62.29,24.7,62.8,25.14,63.42,25.14z"/>
<path class="st0" d="M63.42,27.1c0.62,0,1.12-0.44,1.12-0.98s-0.5-0.98-1.12-0.98c-0.62,0-1.12,0.44-1.12,0.98S62.8,27.1,63.42,27.1
	z"/>
<path class="st0" d="M63.42,29.07c0.62,0,1.12-0.44,1.12-0.98c0-0.54-0.5-0.98-1.12-0.98c-0.62,0-1.12,0.44-1.12,0.98
	C62.29,28.63,62.8,29.07,63.42,29.07z"/>
<path class="st0" d="M63.42,31.04c0.62,0,1.12-0.44,1.12-0.98c0-0.54-0.5-0.98-1.12-0.98c-0.62,0-1.12,0.44-1.12,0.98
	C62.29,30.6,62.8,31.04,63.42,31.04z"/>
<path class="st0" d="M63.42,33c0.62,0,1.12-0.44,1.12-0.98c0-0.54-0.5-0.98-1.12-0.98c-0.62,0-1.12,0.44-1.12,0.98
	C62.29,32.56,62.8,33,63.42,33z"/>
<path class="st0" d="M63.42,38.9c0.62,0,1.12-0.44,1.12-0.98c0-0.54-0.5-0.98-1.12-0.98c-0.62,0-1.12,0.44-1.12,0.98
	C62.29,38.46,62.8,38.9,63.42,38.9z"/>
<path class="st0" d="M63.42,40.86c0.62,0,1.12-0.44,1.12-0.98c0-0.54-0.5-0.98-1.12-0.98c-0.62,0-1.12,0.44-1.12,0.98
	C62.29,40.42,62.8,40.86,63.42,40.86z"/>
<path class="st0" d="M63.42,42.83c0.62,0,1.12-0.44,1.12-0.98c0-0.54-0.5-0.98-1.12-0.98c-0.62,0-1.12,0.44-1.12,0.98
	C62.29,42.39,62.8,42.83,63.42,42.83z"/>
<path class="st0" d="M63.42,46.76c0.62,0,1.12-0.44,1.12-0.98c0-0.54-0.5-0.98-1.12-0.98c-0.62,0-1.12,0.44-1.12,0.98
	C62.29,46.32,62.8,46.76,63.42,46.76z"/>
<path class="st0" d="M63.42,48.73c0.62,0,1.12-0.44,1.12-0.98s-0.5-0.98-1.12-0.98c-0.62,0-1.12,0.44-1.12,0.98
	S62.8,48.73,63.42,48.73z"/>
<path class="st0" d="M63.42,50.69c0.62,0,1.12-0.44,1.12-0.98c0-0.54-0.5-0.98-1.12-0.98c-0.62,0-1.12,0.44-1.12,0.98
	C62.29,50.25,62.8,50.69,63.42,50.69z"/>
<path class="st0" d="M63.42,52.66c0.62,0,1.12-0.44,1.12-0.98c0-0.54-0.5-0.98-1.12-0.98c-0.62,0-1.12,0.44-1.12,0.98
	C62.29,52.22,62.8,52.66,63.42,52.66z"/>
<path class="st0" d="M63.42,54.62c0.62,0,1.12-0.44,1.12-0.98c0-0.54-0.5-0.98-1.12-0.98c-0.62,0-1.12,0.44-1.12,0.98
	C62.29,54.18,62.8,54.62,63.42,54.62z"/>
<path class="st0" d="M63.42,56.59c0.62,0,1.12-0.44,1.12-0.98c0-0.54-0.5-0.98-1.12-0.98c-0.62,0-1.12,0.44-1.12,0.98
	C62.29,56.15,62.8,56.59,63.42,56.59z"/>
<path class="st0" d="M63.42,58.55c0.62,0,1.12-0.44,1.12-0.98c0-0.54-0.5-0.98-1.12-0.98c-0.62,0-1.12,0.44-1.12,0.98
	C62.29,58.11,62.8,58.55,63.42,58.55z"/>
<path class="st0" d="M63.42,60.52c0.62,0,1.12-0.44,1.12-0.98c0-0.54-0.5-0.98-1.12-0.98c-0.62,0-1.12,0.44-1.12,0.98
	C62.29,60.08,62.8,60.52,63.42,60.52z"/>
<path class="st0" d="M63.42,62.48c0.62,0,1.12-0.44,1.12-0.98c0-0.54-0.5-0.98-1.12-0.98c-0.62,0-1.12,0.44-1.12,0.98
	C62.29,62.04,62.8,62.48,63.42,62.48z"/>
<path class="st0" d="M63.42,64.45c0.62,0,1.12-0.44,1.12-0.98c0-0.54-0.5-0.98-1.12-0.98c-0.62,0-1.12,0.44-1.12,0.98
	C62.29,64.01,62.8,64.45,63.42,64.45z"/>
<path class="st0" d="M63.42,66.42c0.62,0,1.12-0.44,1.12-0.98s-0.5-0.98-1.12-0.98c-0.62,0-1.12,0.44-1.12,0.98
	S62.8,66.42,63.42,66.42z"/>
<path class="st0" d="M63.42,68.38c0.62,0,1.12-0.44,1.12-0.98c0-0.54-0.5-0.98-1.12-0.98c-0.62,0-1.12,0.44-1.12,0.98
	C62.29,67.94,62.8,68.38,63.42,68.38z"/>
<path class="st0" d="M65.66,31.04c0.62,0,1.12-0.44,1.12-0.98c0-0.54-0.5-0.98-1.12-0.98c-0.62,0-1.12,0.44-1.12,0.98
	C64.54,30.6,65.04,31.04,65.66,31.04z"/>
<path class="st0" d="M65.66,34.97c0.62,0,1.12-0.44,1.12-0.98c0-0.54-0.5-0.98-1.12-0.98c-0.62,0-1.12,0.44-1.12,0.98
	C64.54,34.53,65.04,34.97,65.66,34.97z"/>
<path class="st0" d="M65.66,44.79c0.62,0,1.12-0.44,1.12-0.98c0-0.54-0.5-0.98-1.12-0.98c-0.62,0-1.12,0.44-1.12,0.98
	C64.54,44.35,65.04,44.79,65.66,44.79z"/>
<path class="st0" d="M65.66,48.73c0.62,0,1.12-0.44,1.12-0.98s-0.5-0.98-1.12-0.98c-0.62,0-1.12,0.44-1.12,0.98
	S65.04,48.73,65.66,48.73z"/>
<path class="st0" d="M65.66,50.69c0.62,0,1.12-0.44,1.12-0.98c0-0.54-0.5-0.98-1.12-0.98c-0.62,0-1.12,0.44-1.12,0.98
	C64.54,50.25,65.04,50.69,65.66,50.69z"/>
<path class="st0" d="M65.66,54.62c0.62,0,1.12-0.44,1.12-0.98c0-0.54-0.5-0.98-1.12-0.98c-0.62,0-1.12,0.44-1.12,0.98
	C64.54,54.18,65.04,54.62,65.66,54.62z"/>
<path class="st0" d="M65.66,62.48c0.62,0,1.12-0.44,1.12-0.98c0-0.54-0.5-0.98-1.12-0.98c-0.62,0-1.12,0.44-1.12,0.98
	C64.54,62.04,65.04,62.48,65.66,62.48z"/>
<path class="st0" d="M65.66,64.45c0.62,0,1.12-0.44,1.12-0.98c0-0.54-0.5-0.98-1.12-0.98c-0.62,0-1.12,0.44-1.12,0.98
	C64.54,64.01,65.04,64.45,65.66,64.45z"/>
<path class="st0" d="M65.66,66.42c0.62,0,1.12-0.44,1.12-0.98s-0.5-0.98-1.12-0.98c-0.62,0-1.12,0.44-1.12,0.98
	S65.04,66.42,65.66,66.42z"/>
<path class="st0" d="M67.91,34.97c0.62,0,1.12-0.44,1.12-0.98c0-0.54-0.5-0.98-1.12-0.98s-1.12,0.44-1.12,0.98
	C66.78,34.53,67.29,34.97,67.91,34.97z"/>
<path class="st0" d="M67.91,36.93c0.62,0,1.12-0.44,1.12-0.98c0-0.54-0.5-0.98-1.12-0.98s-1.12,0.44-1.12,0.98
	C66.78,36.49,67.29,36.93,67.91,36.93z"/>
<path class="st0" d="M67.91,38.9c0.62,0,1.12-0.44,1.12-0.98c0-0.54-0.5-0.98-1.12-0.98s-1.12,0.44-1.12,0.98
	C66.78,38.46,67.29,38.9,67.91,38.9z"/>
<path class="st0" d="M67.91,42.83c0.62,0,1.12-0.44,1.12-0.98c0-0.54-0.5-0.98-1.12-0.98s-1.12,0.44-1.12,0.98
	C66.78,42.39,67.29,42.83,67.91,42.83z"/>
<path class="st0" d="M67.91,44.79c0.62,0,1.12-0.44,1.12-0.98c0-0.54-0.5-0.98-1.12-0.98s-1.12,0.44-1.12,0.98
	C66.78,44.35,67.29,44.79,67.91,44.79z"/>
<path class="st0" d="M67.91,46.76c0.62,0,1.12-0.44,1.12-0.98c0-0.54-0.5-0.98-1.12-0.98s-1.12,0.44-1.12,0.98
	C66.78,46.32,67.29,46.76,67.91,46.76z"/>
<path class="st0" d="M67.91,52.66c0.62,0,1.12-0.44,1.12-0.98c0-0.54-0.5-0.98-1.12-0.98s-1.12,0.44-1.12,0.98
	C66.78,52.22,67.29,52.66,67.91,52.66z"/>
<path class="st0" d="M67.91,54.62c0.62,0,1.12-0.44,1.12-0.98c0-0.54-0.5-0.98-1.12-0.98s-1.12,0.44-1.12,0.98
	C66.78,54.18,67.29,54.62,67.91,54.62z"/>
<path class="st0" d="M67.91,58.55c0.62,0,1.12-0.44,1.12-0.98c0-0.54-0.5-0.98-1.12-0.98s-1.12,0.44-1.12,0.98
	C66.78,58.11,67.29,58.55,67.91,58.55z"/>
<path class="st0" d="M67.91,62.48c0.62,0,1.12-0.44,1.12-0.98c0-0.54-0.5-0.98-1.12-0.98s-1.12,0.44-1.12,0.98
	C66.78,62.04,67.29,62.48,67.91,62.48z"/>
<path class="st0" d="M67.91,66.42c0.62,0,1.12-0.44,1.12-0.98s-0.5-0.98-1.12-0.98s-1.12,0.44-1.12,0.98S67.29,66.42,67.91,66.42z"
	/>
<path class="st0" d="M70.15,31.04c0.62,0,1.12-0.44,1.12-0.98c0-0.54-0.5-0.98-1.12-0.98c-0.62,0-1.12,0.44-1.12,0.98
	C69.03,30.6,69.53,31.04,70.15,31.04z"/>
<path class="st0" d="M70.15,33c0.62,0,1.12-0.44,1.12-0.98c0-0.54-0.5-0.98-1.12-0.98c-0.62,0-1.12,0.44-1.12,0.98
	C69.03,32.56,69.53,33,70.15,33z"/>
<path class="st0" d="M70.15,36.93c0.62,0,1.12-0.44,1.12-0.98c0-0.54-0.5-0.98-1.12-0.98c-0.62,0-1.12,0.44-1.12,0.98
	C69.03,36.49,69.53,36.93,70.15,36.93z"/>
<path class="st0" d="M70.15,40.86c0.62,0,1.12-0.44,1.12-0.98c0-0.54-0.5-0.98-1.12-0.98c-0.62,0-1.12,0.44-1.12,0.98
	C69.03,40.42,69.53,40.86,70.15,40.86z"/>
<path class="st0" d="M70.15,44.79c0.62,0,1.12-0.44,1.12-0.98c0-0.54-0.5-0.98-1.12-0.98c-0.62,0-1.12,0.44-1.12,0.98
	C69.03,44.35,69.53,44.79,70.15,44.79z"/>
<path class="st0" d="M70.15,46.76c0.62,0,1.12-0.44,1.12-0.98c0-0.54-0.5-0.98-1.12-0.98c-0.62,0-1.12,0.44-1.12,0.98
	C69.03,46.32,69.53,46.76,70.15,46.76z"/>
<path class="st0" d="M70.15,50.69c0.62,0,1.12-0.44,1.12-0.98c0-0.54-0.5-0.98-1.12-0.98c-0.62,0-1.12,0.44-1.12,0.98
	C69.03,50.25,69.53,50.69,70.15,50.69z"/>
<path class="st0" d="M70.15,52.66c0.62,0,1.12-0.44,1.12-0.98c0-0.54-0.5-0.98-1.12-0.98c-0.62,0-1.12,0.44-1.12,0.98
	C69.03,52.22,69.53,52.66,70.15,52.66z"/>
<path class="st0" d="M70.15,54.62c0.62,0,1.12-0.44,1.12-0.98c0-0.54-0.5-0.98-1.12-0.98c-0.62,0-1.12,0.44-1.12,0.98
	C69.03,54.18,69.53,54.62,70.15,54.62z"/>
<path class="st0" d="M70.15,62.48c0.62,0,1.12-0.44,1.12-0.98c0-0.54-0.5-0.98-1.12-0.98c-0.62,0-1.12,0.44-1.12,0.98
	C69.03,62.04,69.53,62.48,70.15,62.48z"/>
<path class="st0" d="M70.15,64.45c0.62,0,1.12-0.44,1.12-0.98c0-0.54-0.5-0.98-1.12-0.98c-0.62,0-1.12,0.44-1.12,0.98
	C69.03,64.01,69.53,64.45,70.15,64.45z"/>
<path class="st0" d="M70.15,68.38c0.62,0,1.12-0.44,1.12-0.98c0-0.54-0.5-0.98-1.12-0.98c-0.62,0-1.12,0.44-1.12,0.98
	C69.03,67.94,69.53,68.38,70.15,68.38z"/>
<path class="st0" d="M72.4,31.04c0.62,0,1.12-0.44,1.12-0.98c0-0.54-0.5-0.98-1.12-0.98c-0.62,0-1.12,0.44-1.12,0.98
	C71.28,30.6,71.78,31.04,72.4,31.04z"/>
<path class="st0" d="M72.4,33c0.62,0,1.12-0.44,1.12-0.98c0-0.54-0.5-0.98-1.12-0.98c-0.62,0-1.12,0.44-1.12,0.98
	C71.28,32.56,71.78,33,72.4,33z"/>
<path class="st0" d="M72.4,36.93c0.62,0,1.12-0.44,1.12-0.98c0-0.54-0.5-0.98-1.12-0.98c-0.62,0-1.12,0.44-1.12,0.98
	C71.28,36.49,71.78,36.93,72.4,36.93z"/>
<path class="st0" d="M72.4,42.83c0.62,0,1.12-0.44,1.12-0.98c0-0.54-0.5-0.98-1.12-0.98c-0.62,0-1.12,0.44-1.12,0.98
	C71.28,42.39,71.78,42.83,72.4,42.83z"/>
<path class="st0" d="M72.4,44.79c0.62,0,1.12-0.44,1.12-0.98c0-0.54-0.5-0.98-1.12-0.98c-0.62,0-1.12,0.44-1.12,0.98
	C71.28,44.35,71.78,44.79,72.4,44.79z"/>
<path class="st0" d="M72.4,48.73c0.62,0,1.12-0.44,1.12-0.98s-0.5-0.98-1.12-0.98c-0.62,0-1.12,0.44-1.12,0.98
	S71.78,48.73,72.4,48.73z"/>
<path class="st0" d="M72.4,52.66c0.62,0,1.12-0.44,1.12-0.98c0-0.54-0.5-0.98-1.12-0.98c-0.62,0-1.12,0.44-1.12,0.98
	C71.28,52.22,71.78,52.66,72.4,52.66z"/>
<path class="st0" d="M72.4,54.62c0.62,0,1.12-0.44,1.12-0.98c0-0.54-0.5-0.98-1.12-0.98c-0.62,0-1.12,0.44-1.12,0.98
	C71.28,54.18,71.78,54.62,72.4,54.62z"/>
<path class="st0" d="M72.4,56.59c0.62,0,1.12-0.44,1.12-0.98c0-0.54-0.5-0.98-1.12-0.98c-0.62,0-1.12,0.44-1.12,0.98
	C71.28,56.15,71.78,56.59,72.4,56.59z"/>
<path class="st0" d="M72.4,58.55c0.62,0,1.12-0.44,1.12-0.98c0-0.54-0.5-0.98-1.12-0.98c-0.62,0-1.12,0.44-1.12,0.98
	C71.28,58.11,71.78,58.55,72.4,58.55z"/>
<path class="st0" d="M72.4,60.52c0.62,0,1.12-0.44,1.12-0.98c0-0.54-0.5-0.98-1.12-0.98c-0.62,0-1.12,0.44-1.12,0.98
	C71.28,60.08,71.78,60.52,72.4,60.52z"/>
<path class="st0" d="M72.4,62.48c0.62,0,1.12-0.44,1.12-0.98c0-0.54-0.5-0.98-1.12-0.98c-0.62,0-1.12,0.44-1.12,0.98
	C71.28,62.04,71.78,62.48,72.4,62.48z"/>
<path class="st0" d="M74.64,31.04c0.62,0,1.12-0.44,1.12-0.98c0-0.54-0.5-0.98-1.12-0.98s-1.12,0.44-1.12,0.98
	C73.52,30.6,74.02,31.04,74.64,31.04z"/>
<path class="st0" d="M74.64,36.93c0.62,0,1.12-0.44,1.12-0.98c0-0.54-0.5-0.98-1.12-0.98s-1.12,0.44-1.12,0.98
	C73.52,36.49,74.02,36.93,74.64,36.93z"/>
<path class="st0" d="M74.64,40.86c0.62,0,1.12-0.44,1.12-0.98c0-0.54-0.5-0.98-1.12-0.98s-1.12,0.44-1.12,0.98
	C73.52,40.42,74.02,40.86,74.64,40.86z"/>
<path class="st0" d="M74.64,42.83c0.62,0,1.12-0.44,1.12-0.98c0-0.54-0.5-0.98-1.12-0.98s-1.12,0.44-1.12,0.98
	C73.52,42.39,74.02,42.83,74.64,42.83z"/>
<path class="st0" d="M74.64,48.73c0.62,0,1.12-0.44,1.12-0.98s-0.5-0.98-1.12-0.98s-1.12,0.44-1.12,0.98S74.02,48.73,74.64,48.73z"
	/>
<path class="st0" d="M74.64,50.69c0.62,0,1.12-0.44,1.12-0.98c0-0.54-0.5-0.98-1.12-0.98s-1.12,0.44-1.12,0.98
	C73.52,50.25,74.02,50.69,74.64,50.69z"/>
<path class="st0" d="M74.64,60.52c0.62,0,1.12-0.44,1.12-0.98c0-0.54-0.5-0.98-1.12-0.98s-1.12,0.44-1.12,0.98
	C73.52,60.08,74.02,60.52,74.64,60.52z"/>
<path class="st0" d="M74.64,64.45c0.62,0,1.12-0.44,1.12-0.98c0-0.54-0.5-0.98-1.12-0.98s-1.12,0.44-1.12,0.98
	C73.52,64.01,74.02,64.45,74.64,64.45z"/>
<path class="st0" d="M74.64,66.42c0.62,0,1.12-0.44,1.12-0.98s-0.5-0.98-1.12-0.98s-1.12,0.44-1.12,0.98S74.02,66.42,74.64,66.42z"
	/>
<path class="st0" d="M74.64,68.38c0.62,0,1.12-0.44,1.12-0.98c0-0.54-0.5-0.98-1.12-0.98s-1.12,0.44-1.12,0.98
	C73.52,67.94,74.02,68.38,74.64,68.38z"/>
<path class="st0" d="M76.89,33c0.62,0,1.12-0.44,1.12-0.98c0-0.54-0.5-0.98-1.12-0.98s-1.12,0.44-1.12,0.98
	C75.77,32.56,76.27,33,76.89,33z"/>
<path class="st0" d="M76.89,34.97c0.62,0,1.12-0.44,1.12-0.98c0-0.54-0.5-0.98-1.12-0.98s-1.12,0.44-1.12,0.98
	C75.77,34.53,76.27,34.97,76.89,34.97z"/>
<path class="st0" d="M76.89,36.93c0.62,0,1.12-0.44,1.12-0.98c0-0.54-0.5-0.98-1.12-0.98s-1.12,0.44-1.12,0.98
	C75.77,36.49,76.27,36.93,76.89,36.93z"/>
<path class="st0" d="M76.89,38.9c0.62,0,1.12-0.44,1.12-0.98c0-0.54-0.5-0.98-1.12-0.98s-1.12,0.44-1.12,0.98
	C75.77,38.46,76.27,38.9,76.89,38.9z"/>
<path class="st0" d="M76.89,40.86c0.62,0,1.12-0.44,1.12-0.98c0-0.54-0.5-0.98-1.12-0.98s-1.12,0.44-1.12,0.98
	C75.77,40.42,76.27,40.86,76.89,40.86z"/>
<path class="st0" d="M76.89,44.79c0.62,0,1.12-0.44,1.12-0.98c0-0.54-0.5-0.98-1.12-0.98s-1.12,0.44-1.12,0.98
	C75.77,44.35,76.27,44.79,76.89,44.79z"/>
<path class="st0" d="M76.89,48.73c0.62,0,1.12-0.44,1.12-0.98s-0.5-0.98-1.12-0.98s-1.12,0.44-1.12,0.98S76.27,48.73,76.89,48.73z"
	/>
<path class="st0" d="M76.89,54.62c0.62,0,1.12-0.44,1.12-0.98c0-0.54-0.5-0.98-1.12-0.98s-1.12,0.44-1.12,0.98
	C75.77,54.18,76.27,54.62,76.89,54.62z"/>
<path class="st0" d="M76.89,56.59c0.62,0,1.12-0.44,1.12-0.98c0-0.54-0.5-0.98-1.12-0.98s-1.12,0.44-1.12,0.98
	C75.77,56.15,76.27,56.59,76.89,56.59z"/>
<path class="st0" d="M76.89,60.52c0.62,0,1.12-0.44,1.12-0.98c0-0.54-0.5-0.98-1.12-0.98s-1.12,0.44-1.12,0.98
	C75.77,60.08,76.27,60.52,76.89,60.52z"/>
<path class="st0" d="M76.89,62.48c0.62,0,1.12-0.44,1.12-0.98c0-0.54-0.5-0.98-1.12-0.98s-1.12,0.44-1.12,0.98
	C75.77,62.04,76.27,62.48,76.89,62.48z"/>
<path class="st0" d="M76.89,66.42c0.62,0,1.12-0.44,1.12-0.98s-0.5-0.98-1.12-0.98s-1.12,0.44-1.12,0.98S76.27,66.42,76.89,66.42z"
	/>
<path class="st0" d="M76.89,68.38c0.62,0,1.12-0.44,1.12-0.98c0-0.54-0.5-0.98-1.12-0.98s-1.12,0.44-1.12,0.98
	C75.77,67.94,76.27,68.38,76.89,68.38z"/>
<path class="st0" d="M76.89,70.35c0.62,0,1.12-0.44,1.12-0.98s-0.5-0.98-1.12-0.98s-1.12,0.44-1.12,0.98S76.27,70.35,76.89,70.35z"
	/>
<path class="st0" d="M79.14,31.04c0.62,0,1.12-0.44,1.12-0.98c0-0.54-0.5-0.98-1.12-0.98c-0.62,0-1.12,0.44-1.12,0.98
	C78.01,30.6,78.52,31.04,79.14,31.04z"/>
<path class="st0" d="M79.14,33c0.62,0,1.12-0.44,1.12-0.98c0-0.54-0.5-0.98-1.12-0.98c-0.62,0-1.12,0.44-1.12,0.98
	C78.01,32.56,78.52,33,79.14,33z"/>
<path class="st0" d="M79.14,34.97c0.62,0,1.12-0.44,1.12-0.98c0-0.54-0.5-0.98-1.12-0.98c-0.62,0-1.12,0.44-1.12,0.98
	C78.01,34.53,78.52,34.97,79.14,34.97z"/>
<path class="st0" d="M79.14,38.9c0.62,0,1.12-0.44,1.12-0.98c0-0.54-0.5-0.98-1.12-0.98c-0.62,0-1.12,0.44-1.12,0.98
	C78.01,38.46,78.52,38.9,79.14,38.9z"/>
<path class="st0" d="M79.14,46.76c0.62,0,1.12-0.44,1.12-0.98c0-0.54-0.5-0.98-1.12-0.98c-0.62,0-1.12,0.44-1.12,0.98
	C78.01,46.32,78.52,46.76,79.14,46.76z"/>
<path class="st0" d="M79.14,50.69c0.62,0,1.12-0.44,1.12-0.98c0-0.54-0.5-0.98-1.12-0.98c-0.62,0-1.12,0.44-1.12,0.98
	C78.01,50.25,78.52,50.69,79.14,50.69z"/>
<path class="st0" d="M79.14,52.66c0.62,0,1.12-0.44,1.12-0.98c0-0.54-0.5-0.98-1.12-0.98c-0.62,0-1.12,0.44-1.12,0.98
	C78.01,52.22,78.52,52.66,79.14,52.66z"/>
<path class="st0" d="M79.14,58.55c0.62,0,1.12-0.44,1.12-0.98c0-0.54-0.5-0.98-1.12-0.98c-0.62,0-1.12,0.44-1.12,0.98
	C78.01,58.11,78.52,58.55,79.14,58.55z"/>
<path class="st0" d="M79.14,62.48c0.62,0,1.12-0.44,1.12-0.98c0-0.54-0.5-0.98-1.12-0.98c-0.62,0-1.12,0.44-1.12,0.98
	C78.01,62.04,78.52,62.48,79.14,62.48z"/>
<path class="st0" d="M79.14,64.45c0.62,0,1.12-0.44,1.12-0.98c0-0.54-0.5-0.98-1.12-0.98c-0.62,0-1.12,0.44-1.12,0.98
	C78.01,64.01,78.52,64.45,79.14,64.45z"/>
<path class="st0" d="M79.14,66.42c0.62,0,1.12-0.44,1.12-0.98s-0.5-0.98-1.12-0.98c-0.62,0-1.12,0.44-1.12,0.98
	S78.52,66.42,79.14,66.42z"/>
<path class="st0" d="M79.14,70.35c0.62,0,1.12-0.44,1.12-0.98s-0.5-0.98-1.12-0.98c-0.62,0-1.12,0.44-1.12,0.98
	S78.52,70.35,79.14,70.35z"/>
<path class="st0" d="M81.38,34.97c0.62,0,1.12-0.44,1.12-0.98c0-0.54-0.5-0.98-1.12-0.98s-1.12,0.44-1.12,0.98
	C80.26,34.53,80.76,34.97,81.38,34.97z"/>
<path class="st0" d="M81.38,38.9c0.62,0,1.12-0.44,1.12-0.98c0-0.54-0.5-0.98-1.12-0.98s-1.12,0.44-1.12,0.98
	C80.26,38.46,80.76,38.9,81.38,38.9z"/>
<path class="st0" d="M81.38,44.79c0.62,0,1.12-0.44,1.12-0.98c0-0.54-0.5-0.98-1.12-0.98s-1.12,0.44-1.12,0.98
	C80.26,44.35,80.76,44.79,81.38,44.79z"/>
<path class="st0" d="M81.38,52.66c0.62,0,1.12-0.44,1.12-0.98c0-0.54-0.5-0.98-1.12-0.98s-1.12,0.44-1.12,0.98
	C80.26,52.22,80.76,52.66,81.38,52.66z"/>
<path class="st0" d="M81.38,54.62c0.62,0,1.12-0.44,1.12-0.98c0-0.54-0.5-0.98-1.12-0.98s-1.12,0.44-1.12,0.98
	C80.26,54.18,80.76,54.62,81.38,54.62z"/>
<path class="st0" d="M81.38,60.52c0.62,0,1.12-0.44,1.12-0.98c0-0.54-0.5-0.98-1.12-0.98s-1.12,0.44-1.12,0.98
	C80.26,60.08,80.76,60.52,81.38,60.52z"/>
<path class="st0" d="M81.38,62.48c0.62,0,1.12-0.44,1.12-0.98c0-0.54-0.5-0.98-1.12-0.98s-1.12,0.44-1.12,0.98
	C80.26,62.04,80.76,62.48,81.38,62.48z"/>
<path class="st0" d="M18.5,15.31c0.62,0,1.12-0.44,1.12-0.98c0-0.54-0.5-0.98-1.12-0.98s-1.12,0.44-1.12,0.98
	C17.38,14.87,17.88,15.31,18.5,15.31z"/>
<path class="st0" d="M18.5,17.28c0.62,0,1.12-0.44,1.12-0.98s-0.5-0.98-1.12-0.98s-1.12,0.44-1.12,0.98S17.88,17.28,18.5,17.28z"/>
<path class="st0" d="M18.5,19.24c0.62,0,1.12-0.44,1.12-0.98c0-0.54-0.5-0.98-1.12-0.98s-1.12,0.44-1.12,0.98
	C17.38,18.8,17.88,19.24,18.5,19.24z"/>
<path class="st0" d="M18.5,21.21c0.62,0,1.12-0.44,1.12-0.98c0-0.54-0.5-0.98-1.12-0.98s-1.12,0.44-1.12,0.98
	C17.38,20.77,17.88,21.21,18.5,21.21z"/>
<path class="st0" d="M18.5,23.17c0.62,0,1.12-0.44,1.12-0.98c0-0.54-0.5-0.98-1.12-0.98s-1.12,0.44-1.12,0.98
	C17.38,22.73,17.88,23.17,18.5,23.17z"/>
<path class="st0" d="M18.5,25.14c0.62,0,1.12-0.44,1.12-0.98c0-0.54-0.5-0.98-1.12-0.98s-1.12,0.44-1.12,0.98
	C17.38,24.7,17.88,25.14,18.5,25.14z"/>
<path class="st0" d="M18.5,27.1c0.62,0,1.12-0.44,1.12-0.98s-0.5-0.98-1.12-0.98s-1.12,0.44-1.12,0.98S17.88,27.1,18.5,27.1z"/>
<path class="st0" d="M20.75,15.31c0.62,0,1.12-0.44,1.12-0.98c0-0.54-0.5-0.98-1.12-0.98s-1.12,0.44-1.12,0.98
	C19.63,14.87,20.13,15.31,20.75,15.31z"/>
<path class="st0" d="M20.75,27.1c0.62,0,1.12-0.44,1.12-0.98s-0.5-0.98-1.12-0.98s-1.12,0.44-1.12,0.98S20.13,27.1,20.75,27.1z"/>
<path class="st0" d="M22.99,15.31c0.62,0,1.12-0.44,1.12-0.98c0-0.54-0.5-0.98-1.12-0.98s-1.12,0.44-1.12,0.98
	C21.87,14.87,22.37,15.31,22.99,15.31z"/>
<path class="st0" d="M22.99,27.1c0.62,0,1.12-0.44,1.12-0.98s-0.5-0.98-1.12-0.98s-1.12,0.44-1.12,0.98S22.37,27.1,22.99,27.1z"/>
<path class="st0" d="M25.24,15.31c0.62,0,1.12-0.44,1.12-0.98c0-0.54-0.5-0.98-1.12-0.98c-0.62,0-1.12,0.44-1.12,0.98
	C24.12,14.87,24.62,15.31,25.24,15.31z"/>
<path class="st0" d="M25.24,27.1c0.62,0,1.12-0.44,1.12-0.98s-0.5-0.98-1.12-0.98c-0.62,0-1.12,0.44-1.12,0.98
	S24.62,27.1,25.24,27.1z"/>
<path class="st0" d="M27.49,15.31c0.62,0,1.12-0.44,1.12-0.98c0-0.54-0.5-0.98-1.12-0.98c-0.62,0-1.12,0.44-1.12,0.98
	C26.36,14.87,26.87,15.31,27.49,15.31z"/>
<path class="st0" d="M27.49,27.1c0.62,0,1.12-0.44,1.12-0.98s-0.5-0.98-1.12-0.98c-0.62,0-1.12,0.44-1.12,0.98
	S26.87,27.1,27.49,27.1z"/>
<path class="st0" d="M29.73,15.31c0.62,0,1.12-0.44,1.12-0.98c0-0.54-0.5-0.98-1.12-0.98s-1.12,0.44-1.12,0.98
	C28.61,14.87,29.11,15.31,29.73,15.31z"/>
<path class="st0" d="M29.73,27.1c0.62,0,1.12-0.44,1.12-0.98s-0.5-0.98-1.12-0.98s-1.12,0.44-1.12,0.98S29.11,27.1,29.73,27.1z"/>
<path class="st0" d="M31.98,15.31c0.62,0,1.12-0.44,1.12-0.98c0-0.54-0.5-0.98-1.12-0.98c-0.62,0-1.12,0.44-1.12,0.98
	C30.85,14.87,31.36,15.31,31.98,15.31z"/>
<path class="st0" d="M31.98,17.28c0.62,0,1.12-0.44,1.12-0.98s-0.5-0.98-1.12-0.98c-0.62,0-1.12,0.44-1.12,0.98
	S31.36,17.28,31.98,17.28z"/>
<path class="st0" d="M31.98,19.24c0.62,0,1.12-0.44,1.12-0.98c0-0.54-0.5-0.98-1.12-0.98c-0.62,0-1.12,0.44-1.12,0.98
	C30.85,18.8,31.36,19.24,31.98,19.24z"/>
<path class="st0" d="M31.98,21.21c0.62,0,1.12-0.44,1.12-0.98c0-0.54-0.5-0.98-1.12-0.98c-0.62,0-1.12,0.44-1.12,0.98
	C30.85,20.77,31.36,21.21,31.98,21.21z"/>
<path class="st0" d="M31.98,23.17c0.62,0,1.12-0.44,1.12-0.98c0-0.54-0.5-0.98-1.12-0.98c-0.62,0-1.12,0.44-1.12,0.98
	C30.85,22.73,31.36,23.17,31.98,23.17z"/>
<path class="st0" d="M31.98,25.14c0.62,0,1.12-0.44,1.12-0.98c0-0.54-0.5-0.98-1.12-0.98c-0.62,0-1.12,0.44-1.12,0.98
	C30.85,24.7,31.36,25.14,31.98,25.14z"/>
<path class="st0" d="M31.98,27.1c0.62,0,1.12-0.44,1.12-0.98s-0.5-0.98-1.12-0.98c-0.62,0-1.12,0.44-1.12,0.98
	S31.36,27.1,31.98,27.1z"/>
<path class="st0" d="M22.99,19.24c0.62,0,1.12-0.44,1.12-0.98c0-0.54-0.5-0.98-1.12-0.98s-1.12,0.44-1.12,0.98
	C21.87,18.8,22.37,19.24,22.99,19.24z"/>
<path class="st0" d="M22.99,21.21c0.62,0,1.12-0.44,1.12-0.98c0-0.54-0.5-0.98-1.12-0.98s-1.12,0.44-1.12,0.98
	C21.87,20.77,22.37,21.21,22.99,21.21z"/>
<path class="st0" d="M22.99,23.17c0.62,0,1.12-0.44,1.12-0.98c0-0.54-0.5-0.98-1.12-0.98s-1.12,0.44-1.12,0.98
	C21.87,22.73,22.37,23.17,22.99,23.17z"/>
<path class="st0" d="M25.24,19.24c0.62,0,1.12-0.44,1.12-0.98c0-0.54-0.5-0.98-1.12-0.98c-0.62,0-1.12,0.44-1.12,0.98
	C24.12,18.8,24.62,19.24,25.24,19.24z"/>
<path class="st0" d="M25.24,21.21c0.62,0,1.12-0.44,1.12-0.98c0-0.54-0.5-0.98-1.12-0.98c-0.62,0-1.12,0.44-1.12,0.98
	C24.12,20.77,24.62,21.21,25.24,21.21z"/>
<path class="st0" d="M25.24,23.17c0.62,0,1.12-0.44,1.12-0.98c0-0.54-0.5-0.98-1.12-0.98c-0.62,0-1.12,0.44-1.12,0.98
	C24.12,22.73,24.62,23.17,25.24,23.17z"/>
<path class="st0" d="M27.49,19.24c0.62,0,1.12-0.44,1.12-0.98c0-0.54-0.5-0.98-1.12-0.98c-0.62,0-1.12,0.44-1.12,0.98
	C26.36,18.8,26.87,19.24,27.49,19.24z"/>
<path class="st0" d="M27.49,21.21c0.62,0,1.12-0.44,1.12-0.98c0-0.54-0.5-0.98-1.12-0.98c-0.62,0-1.12,0.44-1.12,0.98
	C26.36,20.77,26.87,21.21,27.49,21.21z"/>
<path class="st0" d="M27.49,23.17c0.62,0,1.12-0.44,1.12-0.98c0-0.54-0.5-0.98-1.12-0.98c-0.62,0-1.12,0.44-1.12,0.98
	C26.36,22.73,26.87,23.17,27.49,23.17z"/>
<path class="st0" d="M67.91,15.31c0.62,0,1.12-0.44,1.12-0.98c0-0.54-0.5-0.98-1.12-0.98s-1.12,0.44-1.12,0.98
	C66.78,14.87,67.29,15.31,67.91,15.31z"/>
<path class="st0" d="M67.91,17.28c0.62,0,1.12-0.44,1.12-0.98s-0.5-0.98-1.12-0.98s-1.12,0.44-1.12,0.98S67.29,17.28,67.91,17.28z"
	/>
<path class="st0" d="M67.91,19.24c0.62,0,1.12-0.44,1.12-0.98c0-0.54-0.5-0.98-1.12-0.98s-1.12,0.44-1.12,0.98
	C66.78,18.8,67.29,19.24,67.91,19.24z"/>
<path class="st0" d="M67.91,21.21c0.62,0,1.12-0.44,1.12-0.98c0-0.54-0.5-0.98-1.12-0.98s-1.12,0.44-1.12,0.98
	C66.78,20.77,67.29,21.21,67.91,21.21z"/>
<path class="st0" d="M67.91,23.17c0.62,0,1.12-0.44,1.12-0.98c0-0.54-0.5-0.98-1.12-0.98s-1.12,0.44-1.12,0.98
	C66.78,22.73,67.29,23.17,67.91,23.17z"/>
<path class="st0" d="M67.91,25.14c0.62,0,1.12-0.44,1.12-0.98c0-0.54-0.5-0.98-1.12-0.98s-1.12,0.44-1.12,0.98
	C66.78,24.7,67.29,25.14,67.91,25.14z"/>
<path class="st0" d="M67.91,27.1c0.62,0,1.12-0.44,1.12-0.98s-0.5-0.98-1.12-0.98s-1.12,0.44-1.12,0.98S67.29,27.1,67.91,27.1z"/>
<path class="st0" d="M70.15,15.31c0.62,0,1.12-0.44,1.12-0.98c0-0.54-0.5-0.98-1.12-0.98c-0.62,0-1.12,0.44-1.12,0.98
	C69.03,14.87,69.53,15.31,70.15,15.31z"/>
<path class="st0" d="M70.15,27.1c0.62,0,1.12-0.44,1.12-0.98s-0.5-0.98-1.12-0.98c-0.62,0-1.12,0.44-1.12,0.98
	S69.53,27.1,70.15,27.1z"/>
<path class="st0" d="M72.4,15.31c0.62,0,1.12-0.44,1.12-0.98c0-0.54-0.5-0.98-1.12-0.98c-0.62,0-1.12,0.44-1.12,0.98
	C71.28,14.87,71.78,15.31,72.4,15.31z"/>
<path class="st0" d="M72.4,27.1c0.62,0,1.12-0.44,1.12-0.98s-0.5-0.98-1.12-0.98c-0.62,0-1.12,0.44-1.12,0.98S71.78,27.1,72.4,27.1z
	"/>
<path class="st0" d="M74.64,15.31c0.62,0,1.12-0.44,1.12-0.98c0-0.54-0.5-0.98-1.12-0.98s-1.12,0.44-1.12,0.98
	C73.52,14.87,74.02,15.31,74.64,15.31z"/>
<path class="st0" d="M74.64,27.1c0.62,0,1.12-0.44,1.12-0.98s-0.5-0.98-1.12-0.98s-1.12,0.44-1.12,0.98S74.02,27.1,74.64,27.1z"/>
<path class="st0" d="M76.89,15.31c0.62,0,1.12-0.44,1.12-0.98c0-0.54-0.5-0.98-1.12-0.98s-1.12,0.44-1.12,0.98
	C75.77,14.87,76.27,15.31,76.89,15.31z"/>
<path class="st0" d="M76.89,27.1c0.62,0,1.12-0.44,1.12-0.98s-0.5-0.98-1.12-0.98s-1.12,0.44-1.12,0.98S76.27,27.1,76.89,27.1z"/>
<path class="st0" d="M79.14,15.31c0.62,0,1.12-0.44,1.12-0.98c0-0.54-0.5-0.98-1.12-0.98c-0.62,0-1.12,0.44-1.12,0.98
	C78.01,14.87,78.52,15.31,79.14,15.31z"/>
<path class="st0" d="M79.14,27.1c0.62,0,1.12-0.44,1.12-0.98s-0.5-0.98-1.12-0.98c-0.62,0-1.12,0.44-1.12,0.98
	S78.52,27.1,79.14,27.1z"/>
<path class="st0" d="M81.38,15.31c0.62,0,1.12-0.44,1.12-0.98c0-0.54-0.5-0.98-1.12-0.98s-1.12,0.44-1.12,0.98
	C80.26,14.87,80.76,15.31,81.38,15.31z"/>
<path class="st0" d="M81.38,17.28c0.62,0,1.12-0.44,1.12-0.98s-0.5-0.98-1.12-0.98s-1.12,0.44-1.12,0.98S80.76,17.28,81.38,17.28z"
	/>
<path class="st0" d="M81.38,19.24c0.62,0,1.12-0.44,1.12-0.98c0-0.54-0.5-0.98-1.12-0.98s-1.12,0.44-1.12,0.98
	C80.26,18.8,80.76,19.24,81.38,19.24z"/>
<path class="st0" d="M81.38,21.21c0.62,0,1.12-0.44,1.12-0.98c0-0.54-0.5-0.98-1.12-0.98s-1.12,0.44-1.12,0.98
	C80.26,20.77,80.76,21.21,81.38,21.21z"/>
<path class="st0" d="M81.38,23.17c0.62,0,1.12-0.44,1.12-0.98c0-0.54-0.5-0.98-1.12-0.98s-1.12,0.44-1.12,0.98
	C80.26,22.73,80.76,23.17,81.38,23.17z"/>
<path class="st0" d="M81.38,25.14c0.62,0,1.12-0.44,1.12-0.98c0-0.54-0.5-0.98-1.12-0.98s-1.12,0.44-1.12,0.98
	C80.26,24.7,80.76,25.14,81.38,25.14z"/>
<path class="st0" d="M81.38,27.1c0.62,0,1.12-0.44,1.12-0.98s-0.5-0.98-1.12-0.98s-1.12,0.44-1.12,0.98S80.76,27.1,81.38,27.1z"/>
<path class="st0" d="M72.4,19.24c0.62,0,1.12-0.44,1.12-0.98c0-0.54-0.5-0.98-1.12-0.98c-0.62,0-1.12,0.44-1.12,0.98
	C71.28,18.8,71.78,19.24,72.4,19.24z"/>
<path class="st0" d="M72.4,21.21c0.62,0,1.12-0.44,1.12-0.98c0-0.54-0.5-0.98-1.12-0.98c-0.62,0-1.12,0.44-1.12,0.98
	C71.28,20.77,71.78,21.21,72.4,21.21z"/>
<path class="st0" d="M72.4,23.17c0.62,0,1.12-0.44,1.12-0.98c0-0.54-0.5-0.98-1.12-0.98c-0.62,0-1.12,0.44-1.12,0.98
	C71.28,22.73,71.78,23.17,72.4,23.17z"/>
<path class="st0" d="M74.64,19.24c0.62,0,1.12-0.44,1.12-0.98c0-0.54-0.5-0.98-1.12-0.98s-1.12,0.44-1.12,0.98
	C73.52,18.8,74.02,19.24,74.64,19.24z"/>
<path class="st0" d="M74.64,21.21c0.62,0,1.12-0.44,1.12-0.98c0-0.54-0.5-0.98-1.12-0.98s-1.12,0.44-1.12,0.98
	C73.52,20.77,74.02,21.21,74.64,21.21z"/>
<path class="st0" d="M74.64,23.17c0.62,0,1.12-0.44,1.12-0.98c0-0.54-0.5-0.98-1.12-0.98s-1.12,0.44-1.12,0.98
	C73.52,22.73,74.02,23.17,74.64,23.17z"/>
<path class="st0" d="M76.89,19.24c0.62,0,1.12-0.44,1.12-0.98c0-0.54-0.5-0.98-1.12-0.98s-1.12,0.44-1.12,0.98
	C75.77,18.8,76.27,19.24,76.89,19.24z"/>
<path class="st0" d="M76.89,21.21c0.62,0,1.12-0.44,1.12-0.98c0-0.54-0.5-0.98-1.12-0.98s-1.12,0.44-1.12,0.98
	C75.77,20.77,76.27,21.21,76.89,21.21z"/>
<path class="st0" d="M76.89,23.17c0.62,0,1.12-0.44,1.12-0.98c0-0.54-0.5-0.98-1.12-0.98s-1.12,0.44-1.12,0.98
	C75.77,22.73,76.27,23.17,76.89,23.17z"/>
<path class="st0" d="M18.5,58.55c0.62,0,1.12-0.44,1.12-0.98c0-0.54-0.5-0.98-1.12-0.98s-1.12,0.44-1.12,0.98
	C17.38,58.11,17.88,58.55,18.5,58.55z"/>
<path class="st0" d="M18.5,60.52c0.62,0,1.12-0.44,1.12-0.98c0-0.54-0.5-0.98-1.12-0.98s-1.12,0.44-1.12,0.98
	C17.38,60.08,17.88,60.52,18.5,60.52z"/>
<path class="st0" d="M18.5,62.48c0.62,0,1.12-0.44,1.12-0.98c0-0.54-0.5-0.98-1.12-0.98s-1.12,0.44-1.12,0.98
	C17.38,62.04,17.88,62.48,18.5,62.48z"/>
<path class="st0" d="M18.5,64.45c0.62,0,1.12-0.44,1.12-0.98c0-0.54-0.5-0.98-1.12-0.98s-1.12,0.44-1.12,0.98
	C17.38,64.01,17.88,64.45,18.5,64.45z"/>
<path class="st0" d="M18.5,66.42c0.62,0,1.12-0.44,1.12-0.98s-0.5-0.98-1.12-0.98s-1.12,0.44-1.12,0.98S17.88,66.42,18.5,66.42z"/>
<path class="st0" d="M18.5,68.38c0.62,0,1.12-0.44,1.12-0.98c0-0.54-0.5-0.98-1.12-0.98s-1.12,0.44-1.12,0.98
	C17.38,67.94,17.88,68.38,18.5,68.38z"/>
<path class="st0" d="M18.5,70.35c0.62,0,1.12-0.44,1.12-0.98c0-0.54-0.5-0.98-1.12-0.98s-1.12,0.44-1.12,0.98
	C17.38,69.91,17.88,70.35,18.5,70.35z"/>
<path class="st0" d="M20.75,58.55c0.62,0,1.12-0.44,1.12-0.98c0-0.54-0.5-0.98-1.12-0.98s-1.12,0.44-1.12,0.98
	C19.63,58.11,20.13,58.55,20.75,58.55z"/>
<path class="st0" d="M20.75,70.35c0.62,0,1.12-0.44,1.12-0.98c0-0.54-0.5-0.98-1.12-0.98s-1.12,0.44-1.12,0.98
	C19.63,69.91,20.13,70.35,20.75,70.35z"/>
<path class="st0" d="M22.99,58.55c0.62,0,1.12-0.44,1.12-0.98c0-0.54-0.5-0.98-1.12-0.98s-1.12,0.44-1.12,0.98
	C21.87,58.11,22.37,58.55,22.99,58.55z"/>
<path class="st0" d="M22.99,70.35c0.62,0,1.12-0.44,1.12-0.98c0-0.54-0.5-0.98-1.12-0.98s-1.12,0.44-1.12,0.98
	C21.87,69.91,22.37,70.35,22.99,70.35z"/>
<path class="st0" d="M25.24,58.55c0.62,0,1.12-0.44,1.12-0.98c0-0.54-0.5-0.98-1.12-0.98c-0.62,0-1.12,0.44-1.12,0.98
	C24.12,58.11,24.62,58.55,25.24,58.55z"/>
<path class="st0" d="M25.24,70.35c0.62,0,1.12-0.44,1.12-0.98c0-0.54-0.5-0.98-1.12-0.98c-0.62,0-1.12,0.44-1.12,0.98
	C24.12,69.91,24.62,70.35,25.24,70.35z"/>
<path class="st0" d="M27.49,58.55c0.62,0,1.12-0.44,1.12-0.98c0-0.54-0.5-0.98-1.12-0.98c-0.62,0-1.12,0.44-1.12,0.98
	C26.36,58.11,26.87,58.55,27.49,58.55z"/>
<path class="st0" d="M27.49,70.35c0.62,0,1.12-0.44,1.12-0.98c0-0.54-0.5-0.98-1.12-0.98c-0.62,0-1.12,0.44-1.12,0.98
	C26.36,69.91,26.87,70.35,27.49,70.35z"/>
<path class="st0" d="M29.73,58.55c0.62,0,1.12-0.44,1.12-0.98c0-0.54-0.5-0.98-1.12-0.98s-1.12,0.44-1.12,0.98
	C28.61,58.11,29.11,58.55,29.73,58.55z"/>
<path class="st0" d="M29.73,70.35c0.62,0,1.12-0.44,1.12-0.98c0-0.54-0.5-0.98-1.12-0.98s-1.12,0.44-1.12,0.98
	C28.61,69.91,29.11,70.35,29.73,70.35z"/>
<path class="st0" d="M31.98,58.55c0.62,0,1.12-0.44,1.12-0.98c0-0.54-0.5-0.98-1.12-0.98c-0.62,0-1.12,0.44-1.12,0.98
	C30.85,58.11,31.36,58.55,31.98,58.55z"/>
<path class="st0" d="M31.98,60.52c0.62,0,1.12-0.44,1.12-0.98c0-0.54-0.5-0.98-1.12-0.98c-0.62,0-1.12,0.44-1.12,0.98
	C30.85,60.08,31.36,60.52,31.98,60.52z"/>
<path class="st0" d="M31.98,62.48c0.62,0,1.12-0.44,1.12-0.98c0-0.54-0.5-0.98-1.12-0.98c-0.62,0-1.12,0.44-1.12,0.98
	C30.85,62.04,31.36,62.48,31.98,62.48z"/>
<path class="st0" d="M31.98,64.45c0.62,0,1.12-0.44,1.12-0.98c0-0.54-0.5-0.98-1.12-0.98c-0.62,0-1.12,0.44-1.12,0.98
	C30.85,64.01,31.36,64.45,31.98,64.45z"/>
<path class="st0" d="M31.98,66.42c0.62,0,1.12-0.44,1.12-0.98s-0.5-0.98-1.12-0.98c-0.62,0-1.12,0.44-1.12,0.98
	S31.36,66.42,31.98,66.42z"/>
<path class="st0" d="M31.98,68.38c0.62,0,1.12-0.44,1.12-0.98c0-0.54-0.5-0.98-1.12-0.98c-0.62,0-1.12,0.44-1.12,0.98
	C30.85,67.94,31.36,68.38,31.98,68.38z"/>
<path class="st0" d="M31.98,70.35c0.62,0,1.12-0.44,1.12-0.98c0-0.54-0.5-0.98-1.12-0.98c-0.62,0-1.12,0.44-1.12,0.98
	C30.85,69.91,31.36,70.35,31.98,70.35z"/>
<path class="st0" d="M22.99,62.48c0.62,0,1.12-0.44,1.12-0.98c0-0.54-0.5-0.98-1.12-0.98s-1.12,0.44-1.12,0.98
	C21.87,62.04,22.37,62.48,22.99,62.48z"/>
<path class="st0" d="M22.99,64.45c0.62,0,1.12-0.44,1.12-0.98c0-0.54-0.5-0.98-1.12-0.98s-1.12,0.44-1.12,0.98
	C21.87,64.01,22.37,64.45,22.99,64.45z"/>
<path class="st0" d="M22.99,66.42c0.62,0,1.12-0.44,1.12-0.98s-0.5-0.98-1.12-0.98s-1.12,0.44-1.12,0.98S22.37,66.42,22.99,66.42z"
	/>
<path class="st0" d="M25.24,62.48c0.62,0,1.12-0.44,1.12-0.98c0-0.54-0.5-0.98-1.12-0.98c-0.62,0-1.12,0.44-1.12,0.98
	C24.12,62.04,24.62,62.48,25.24,62.48z"/>
<path class="st0" d="M25.24,64.45c0.62,0,1.12-0.44,1.12-0.98c0-0.54-0.5-0.98-1.12-0.98c-0.62,0-1.12,0.44-1.12,0.98
	C24.12,64.01,24.62,64.45,25.24,64.45z"/>
<path class="st0" d="M25.24,66.42c0.62,0,1.12-0.44,1.12-0.98s-0.5-0.98-1.12-0.98c-0.62,0-1.12,0.44-1.12,0.98
	S24.62,66.42,25.24,66.42z"/>
<path class="st0" d="M27.49,62.48c0.62,0,1.12-0.44,1.12-0.98c0-0.54-0.5-0.98-1.12-0.98c-0.62,0-1.12,0.44-1.12,0.98
	C26.36,62.04,26.87,62.48,27.49,62.48z"/>
<path class="st0" d="M27.49,64.45c0.62,0,1.12-0.44,1.12-0.98c0-0.54-0.5-0.98-1.12-0.98c-0.62,0-1.12,0.44-1.12,0.98
	C26.36,64.01,26.87,64.45,27.49,64.45z"/>
<path class="st0" d="M27.49,66.42c0.62,0,1.12-0.44,1.12-0.98s-0.5-0.98-1.12-0.98c-0.62,0-1.12,0.44-1.12,0.98
	S26.87,66.42,27.49,66.42z"/>
<path class="st0" d="M115.76,33.09c0,0.93-0.23,1.65-0.68,2.16c-0.42,0.51-0.99,0.76-1.71,0.76c-0.37,0-0.69-0.06-0.95-0.17
	c-0.24-0.12-0.49-0.3-0.75-0.56c0.37-0.23,0.65-0.57,0.83-1.01c0.21-0.44,0.32-0.9,0.32-1.39c0-0.39-0.08-0.79-0.24-1.18
	c-0.13-0.39-0.36-0.74-0.68-1.04c-0.32-0.32-0.71-0.58-1.19-0.76c-0.48-0.21-1.05-0.31-1.71-0.31c-0.69,0-1.31,0.12-1.87,0.35
	c-0.53,0.21-0.98,0.51-1.35,0.9c-0.34,0.37-0.61,0.81-0.79,1.32c-0.19,0.51-0.28,1.05-0.28,1.63c0,1.11,0.3,2,0.91,2.68
	c0.64,0.67,1.42,1.24,2.34,1.7c0.93,0.46,1.93,0.9,3.02,1.32c1.11,0.42,2.13,0.94,3.06,1.56c0.93,0.6,1.69,1.38,2.3,2.33
	c0.64,0.93,0.95,2.17,0.95,3.72c0,1.39-0.26,2.58-0.79,3.58c-0.53,0.97-1.23,1.76-2.1,2.36c-0.85,0.6-1.83,1.04-2.94,1.32
	s-2.25,0.42-3.42,0.42c-1.03,0-2.05-0.1-3.06-0.31c-1.01-0.21-1.91-0.53-2.7-0.97c-0.79-0.46-1.44-1.04-1.95-1.74
	c-0.48-0.72-0.71-1.58-0.71-2.57c0-0.58,0.09-1.17,0.28-1.77c0.19-0.6,0.45-1.15,0.79-1.63c0.37-0.49,0.82-0.88,1.35-1.18
	c0.56-0.32,1.19-0.49,1.91-0.49c0.58,0,1.07,0.14,1.47,0.42c0.42,0.28,0.79,0.8,1.11,1.56c-0.64,0.02-1.16,0.14-1.59,0.35
	c-0.4,0.21-0.71,0.46-0.95,0.76c-0.24,0.3-0.41,0.63-0.52,0.97c-0.08,0.35-0.12,0.67-0.12,0.97c0,0.63,0.16,1.17,0.48,1.63
	c0.32,0.46,0.71,0.86,1.19,1.18c0.5,0.3,1.03,0.53,1.59,0.7c0.58,0.14,1.14,0.21,1.67,0.21c1.22,0,2.22-0.41,3.02-1.22
	c0.79-0.81,1.19-1.98,1.19-3.51c0-1.3-0.29-2.32-0.87-3.06c-0.56-0.76-1.27-1.4-2.14-1.91c-0.87-0.51-1.81-0.95-2.82-1.32
	c-0.98-0.37-1.91-0.81-2.78-1.32c-0.87-0.51-1.6-1.16-2.18-1.95c-0.56-0.81-0.83-1.89-0.83-3.23c0-1.16,0.23-2.18,0.68-3.06
	c0.45-0.88,1.03-1.61,1.75-2.19c0.74-0.6,1.59-1.04,2.54-1.32c0.98-0.3,1.99-0.45,3.02-0.45c0.45,0,1.06,0.05,1.83,0.14
	c0.79,0.09,1.56,0.3,2.3,0.63c0.77,0.32,1.42,0.81,1.95,1.46C115.48,31.18,115.76,32.03,115.76,33.09z M123.71,36.98V48.8
	c0,0.23,0.01,0.52,0.04,0.87s0.09,0.7,0.2,1.04c0.13,0.32,0.32,0.61,0.56,0.87c0.24,0.23,0.57,0.35,0.99,0.35
	c1.3,0,2.25-1.26,2.86-3.79h1.47c-0.29,1.46-0.66,2.62-1.11,3.48c-0.45,0.83-0.93,1.47-1.43,1.91c-0.5,0.44-1.02,0.72-1.55,0.83
	c-0.53,0.14-1.01,0.21-1.43,0.21c-0.93,0-1.68-0.15-2.26-0.45c-0.58-0.32-1.05-0.73-1.39-1.22c-0.34-0.49-0.58-1.03-0.71-1.63
	c-0.13-0.6-0.2-1.18-0.2-1.74V36.98H123.71z M119.02,31.98c0-0.63,0.25-1.17,0.75-1.63c0.5-0.46,1.13-0.7,1.87-0.7
	c0.71,0,1.34,0.23,1.87,0.7c0.53,0.46,0.79,1.01,0.79,1.63c0,0.65-0.26,1.19-0.79,1.63c-0.53,0.44-1.15,0.66-1.87,0.66
	c-0.74,0-1.36-0.22-1.87-0.66C119.27,33.17,119.02,32.63,119.02,31.98z M132.27,36.98v2.4c0.69-1.11,1.42-1.82,2.18-2.12
	c0.77-0.3,1.5-0.45,2.18-0.45c0.69,0,1.28,0.08,1.79,0.24c0.53,0.16,0.98,0.38,1.35,0.66s0.68,0.6,0.91,0.97
	c0.26,0.37,0.48,0.78,0.64,1.22c0.37-0.7,0.75-1.24,1.15-1.63c0.4-0.42,0.79-0.73,1.19-0.94c0.4-0.23,0.78-0.37,1.15-0.42
	c0.4-0.07,0.75-0.1,1.07-0.1c1.19,0,2.14,0.2,2.86,0.59c0.74,0.39,1.3,0.9,1.67,1.53c0.37,0.6,0.61,1.27,0.71,2.02
	c0.13,0.72,0.2,1.41,0.2,2.09c0,0.42-0.01,0.88-0.04,1.39c-0.03,0.49-0.05,1-0.08,1.53c-0.03,0.51-0.05,1.03-0.08,1.56
	c-0.03,0.51-0.04,0.98-0.04,1.43c0,0.19,0.01,0.45,0.04,0.8c0.03,0.32,0.09,0.65,0.2,0.97c0.11,0.32,0.28,0.61,0.52,0.87
	c0.24,0.23,0.58,0.35,1.03,0.35c0.61,0,1.15-0.3,1.63-0.9c0.5-0.6,0.91-1.56,1.23-2.88h1.47c-0.29,1.46-0.66,2.62-1.11,3.48
	c-0.45,0.83-0.93,1.47-1.43,1.91c-0.5,0.44-1.01,0.72-1.51,0.83c-0.5,0.14-0.97,0.21-1.39,0.21c-0.85,0-1.56-0.14-2.14-0.42
	c-0.58-0.3-1.06-0.7-1.43-1.18c-0.37-0.49-0.65-1.05-0.83-1.7c-0.16-0.65-0.24-1.32-0.24-2.02c0-0.21,0-0.59,0-1.15
	c0.03-0.58,0.04-1.19,0.04-1.84c0.03-0.65,0.04-1.26,0.04-1.84c0.03-0.58,0.04-0.98,0.04-1.22c0-0.74-0.07-1.36-0.2-1.84
	s-0.32-0.87-0.56-1.15s-0.52-0.48-0.83-0.59c-0.29-0.12-0.61-0.17-0.95-0.17c-0.82,0-1.5,0.29-2.03,0.87
	c-0.5,0.58-0.86,1.55-1.07,2.92v11.12h-3.97V42.75c0-0.42-0.03-0.82-0.08-1.22c-0.03-0.39-0.12-0.74-0.28-1.04
	c-0.16-0.32-0.38-0.58-0.68-0.76c-0.29-0.19-0.69-0.28-1.19-0.28c-0.85,0-1.5,0.31-1.95,0.94c-0.42,0.6-0.82,1.55-1.19,2.85v11.12
	h-3.97V36.98H132.27z M159.85,35.7v2.68c0.5-0.46,1.09-0.83,1.75-1.11c0.69-0.3,1.48-0.45,2.38-0.45c0.93,0,1.79,0.17,2.58,0.52
	c0.79,0.35,1.48,0.88,2.07,1.6c0.61,0.7,1.09,1.59,1.43,2.68c0.34,1.07,0.52,2.34,0.52,3.82c0,2.9-0.62,5.14-1.87,6.74
	c-1.24,1.6-2.9,2.4-4.96,2.4c-0.87,0-1.63-0.14-2.26-0.42c-0.61-0.3-1.15-0.72-1.63-1.25v9.28l-4.01,0.87V35.7H159.85z
	 M162.59,39.07c-0.58,0-1.11,0.15-1.59,0.45c-0.45,0.28-0.83,0.68-1.15,1.22v10.43c0.37,0.42,0.78,0.72,1.23,0.9
	c0.48,0.19,0.94,0.28,1.39,0.28c0.66,0,1.24-0.19,1.75-0.56s0.93-0.87,1.27-1.49c0.37-0.65,0.65-1.4,0.83-2.26
	c0.19-0.86,0.28-1.77,0.28-2.75c0-1.2-0.13-2.2-0.4-2.99c-0.24-0.81-0.56-1.45-0.95-1.91c-0.4-0.49-0.83-0.82-1.31-1.01
	C163.46,39.17,163.01,39.07,162.59,39.07z M176.64,30.03V48.8c0,0.23,0.01,0.52,0.04,0.87s0.09,0.7,0.2,1.04
	c0.13,0.32,0.32,0.61,0.56,0.87c0.24,0.23,0.57,0.35,0.99,0.35c1.3,0,2.25-1.26,2.86-3.79h1.47c-0.29,1.46-0.66,2.62-1.11,3.48
	c-0.45,0.83-0.93,1.47-1.43,1.91c-0.5,0.44-1.02,0.72-1.55,0.83c-0.53,0.14-1.01,0.21-1.43,0.21c-0.93,0-1.68-0.15-2.26-0.45
	c-0.58-0.32-1.05-0.73-1.39-1.22c-0.34-0.49-0.58-1.03-0.71-1.63c-0.13-0.6-0.2-1.18-0.2-1.74V30.52L176.64,30.03z M193.63,41.33
	c0,1.62-0.77,2.98-2.3,4.07c-1.51,1.09-3.61,1.76-6.31,2.02c0.11,0.93,0.29,1.68,0.56,2.26c0.29,0.58,0.64,1.04,1.03,1.39
	c0.4,0.32,0.85,0.56,1.35,0.7c0.53,0.12,1.07,0.17,1.63,0.17c0.85,0,1.64-0.13,2.38-0.38c0.77-0.25,1.4-0.7,1.91-1.32
	c0.03,0.16,0.04,0.32,0.04,0.49c0.03,0.14,0.04,0.27,0.04,0.38c0,0.53-0.16,1.01-0.48,1.43c-0.29,0.42-0.7,0.79-1.23,1.11
	c-0.5,0.3-1.1,0.53-1.79,0.7c-0.66,0.16-1.36,0.24-2.1,0.24c-0.9,0-1.8-0.14-2.7-0.42c-0.9-0.3-1.72-0.76-2.46-1.39
	c-0.71-0.65-1.3-1.48-1.75-2.5s-0.68-2.26-0.68-3.72c0-0.97,0.12-2.03,0.36-3.16c0.26-1.14,0.69-2.19,1.27-3.16
	c0.61-0.97,1.39-1.78,2.34-2.43c0.98-0.65,2.18-0.97,3.61-0.97c0.66,0,1.3,0.07,1.91,0.21c0.64,0.12,1.2,0.35,1.71,0.7
	c0.5,0.32,0.9,0.78,1.19,1.36C193.47,39.65,193.63,40.4,193.63,41.33z M184.98,46.06c1.88-0.25,3.36-0.83,4.45-1.74
	c1.11-0.9,1.67-2.02,1.67-3.34c0-0.88-0.17-1.51-0.52-1.88c-0.34-0.39-0.83-0.59-1.47-0.59c-0.69,0-1.3,0.23-1.83,0.7
	c-0.5,0.46-0.93,1.07-1.27,1.81c-0.34,0.72-0.61,1.53-0.79,2.43C185.05,44.33,184.98,45.2,184.98,46.06z M205.14,46.33h-7.94V43.9
	h7.94V46.33z M216.59,36.81c0.93,0,1.73,0.12,2.42,0.35c0.69,0.23,1.27,0.56,1.75,0.97c0.5,0.39,0.9,0.88,1.19,1.46
	c0.32,0.56,0.56,1.16,0.71,1.81c0.74,0,1.27-0.2,1.59-0.59c0.32-0.42,0.54-0.8,0.68-1.15h1.15c-0.21,0.76-0.57,1.55-1.07,2.36
	c-0.48,0.79-1.15,1.38-2.03,1.77c0.05,0.28,0.08,0.56,0.08,0.83c0,0.25,0,0.52,0,0.8c0,2.85-0.6,5.09-1.79,6.71
	c-1.19,1.62-2.86,2.43-5,2.43c-0.87,0-1.76-0.14-2.66-0.42c-0.87-0.28-1.67-0.74-2.38-1.39c-0.71-0.65-1.3-1.48-1.75-2.5
	c-0.42-1.02-0.64-2.28-0.64-3.79c0-1.02,0.12-2.1,0.36-3.23c0.26-1.14,0.69-2.18,1.27-3.13c0.61-0.95,1.4-1.74,2.38-2.36
	C213.86,37.12,215.1,36.81,216.59,36.81z M216.98,51.93c1.4,0,2.44-0.6,3.1-1.81c0.66-1.23,0.99-2.95,0.99-5.18
	c0-0.12-0.01-0.23-0.04-0.35c0-0.14,0-0.27,0-0.38c-0.74,0-1.28-0.17-1.63-0.52c-0.34-0.37-0.52-0.89-0.52-1.56
	c0-0.46,0.13-0.82,0.4-1.08c0.26-0.28,0.62-0.44,1.07-0.49c-0.32-0.67-0.71-1.15-1.19-1.43c-0.48-0.28-0.99-0.42-1.55-0.42
	c-0.82,0-1.52,0.24-2.1,0.73c-0.56,0.46-1.02,1.07-1.39,1.81c-0.34,0.74-0.6,1.56-0.75,2.47c-0.16,0.88-0.24,1.75-0.24,2.61
	c0,1.14,0.12,2.06,0.36,2.78c0.24,0.72,0.54,1.29,0.91,1.7c0.37,0.42,0.78,0.71,1.23,0.87C216.08,51.85,216.53,51.93,216.98,51.93z"
	/>
</svg>
